<svg width="1217" height="264" viewBox="0 0 1217 264" fill="none" xmlns="http://www.w3.org/2000/svg">
<rect x="1.50195" y="1.5" width="1213" height="261" rx="23.5" fill="white" stroke="#FF6B00" stroke-width="3"/>
<path d="M276.079 49.0869H301.934V85H295.024V55.4834H283.013V85H276.079V49.0869ZM321.88 57.7539C324.386 57.7539 326.738 58.3805 328.936 59.6338C331.149 60.887 332.874 62.5879 334.111 64.7363C335.348 66.8848 335.967 69.2041 335.967 71.6943C335.967 74.2008 335.34 76.5446 334.087 78.7256C332.85 80.9066 331.157 82.6156 329.009 83.8525C326.86 85.0732 324.492 85.6836 321.904 85.6836C318.096 85.6836 314.84 84.3327 312.139 81.6309C309.453 78.9128 308.11 75.6169 308.11 71.7432C308.11 67.5928 309.632 64.1341 312.676 61.3672C315.345 58.9583 318.413 57.7539 321.88 57.7539ZM321.978 64.0283C319.91 64.0283 318.185 64.7526 316.802 66.2012C315.435 67.6335 314.751 69.4727 314.751 71.7188C314.751 74.0299 315.426 75.9017 316.777 77.334C318.145 78.7663 319.87 79.4824 321.953 79.4824C324.036 79.4824 325.77 78.7581 327.153 77.3096C328.537 75.861 329.229 73.9974 329.229 71.7188C329.229 69.4401 328.545 67.5928 327.178 66.1768C325.827 64.7445 324.093 64.0283 321.978 64.0283ZM367.437 63.8086L361.895 66.8604C360.853 65.7699 359.819 65.013 358.794 64.5898C357.785 64.1667 356.597 63.9551 355.229 63.9551C352.739 63.9551 350.721 64.7038 349.175 66.2012C347.645 67.6823 346.88 69.5866 346.88 71.9141C346.88 74.1764 347.62 76.0238 349.102 77.4561C350.583 78.8883 352.528 79.6045 354.937 79.6045C357.915 79.6045 360.234 78.5872 361.895 76.5527L367.144 80.1416C364.295 83.8363 360.275 85.6836 355.083 85.6836C350.412 85.6836 346.75 84.3001 344.097 81.5332C341.46 78.7663 340.142 75.5273 340.142 71.8164C340.142 69.2448 340.785 66.8766 342.07 64.7119C343.356 62.5472 345.146 60.8464 347.441 59.6094C349.753 58.3724 352.332 57.7539 355.181 57.7539C357.817 57.7539 360.186 58.2829 362.285 59.3408C364.385 60.3825 366.102 61.8717 367.437 63.8086ZM397.197 85H390.41L383.77 68.2275L377.007 85H370.244L381.572 58.4375H385.869L397.197 85ZM427.324 73.6475H405.913C406.222 75.5355 407.044 77.041 408.379 78.1641C409.73 79.2708 411.447 79.8242 413.53 79.8242C416.021 79.8242 418.161 78.9535 419.951 77.2119L425.566 79.8486C424.167 81.8343 422.49 83.3073 420.537 84.2676C418.584 85.2116 416.265 85.6836 413.579 85.6836C409.412 85.6836 406.019 84.3734 403.398 81.7529C400.778 79.1162 399.468 75.8203 399.468 71.8652C399.468 67.8125 400.77 64.4515 403.374 61.7822C405.994 59.0967 409.274 57.7539 413.213 57.7539C417.396 57.7539 420.798 59.0967 423.418 61.7822C426.038 64.4515 427.349 67.9834 427.349 72.3779L427.324 73.6475ZM420.635 68.3984C420.195 66.9173 419.325 65.7129 418.022 64.7852C416.737 63.8574 415.239 63.3936 413.53 63.3936C411.675 63.3936 410.047 63.9144 408.647 64.9561C407.769 65.6071 406.955 66.7546 406.206 68.3984H420.635ZM446.758 58.4375H453.423V68.374L462.603 58.4375H470.732L458.892 71.377L470.879 85H462.041L454.131 75.625L453.423 76.4551V85H446.758V58.4375ZM470.659 58.4375H477.471L484.38 75.1123L491.997 58.4375H498.833L482.183 94.7168H475.298L480.767 83.0225L470.659 58.4375ZM509.233 58.4375V61.3672C510.438 60.1628 511.74 59.2594 513.14 58.6572C514.539 58.055 516.037 57.7539 517.632 57.7539C521.099 57.7539 524.045 59.0641 526.47 61.6846C528.895 64.305 530.107 67.666 530.107 71.7676C530.107 75.7227 528.854 79.0348 526.348 81.7041C523.841 84.3571 520.871 85.6836 517.437 85.6836C515.907 85.6836 514.482 85.415 513.164 84.8779C511.846 84.3245 510.535 83.4294 509.233 82.1924V94.7168H502.617V58.4375H509.233ZM516.24 63.9062C514.141 63.9062 512.399 64.6224 511.016 66.0547C509.632 67.487 508.94 69.3587 508.94 71.6699C508.94 74.0299 509.632 75.9424 511.016 77.4072C512.399 78.8558 514.141 79.5801 516.24 79.5801C518.275 79.5801 519.984 78.8395 521.367 77.3584C522.767 75.8773 523.467 73.9893 523.467 71.6943C523.467 69.4157 522.783 67.5521 521.416 66.1035C520.049 64.6387 518.324 63.9062 516.24 63.9062ZM561.626 63.8086L556.084 66.8604C555.042 65.7699 554.009 65.013 552.983 64.5898C551.974 64.1667 550.786 63.9551 549.419 63.9551C546.929 63.9551 544.91 64.7038 543.364 66.2012C541.834 67.6823 541.069 69.5866 541.069 71.9141C541.069 74.1764 541.81 76.0238 543.291 77.4561C544.772 78.8883 546.717 79.6045 549.126 79.6045C552.104 79.6045 554.424 78.5872 556.084 76.5527L561.333 80.1416C558.485 83.8363 554.465 85.6836 549.272 85.6836C544.601 85.6836 540.939 84.3001 538.286 81.5332C535.649 78.7663 534.331 75.5273 534.331 71.8164C534.331 69.2448 534.974 66.8766 536.26 64.7119C537.546 62.5472 539.336 60.8464 541.631 59.6094C543.942 58.3724 546.522 57.7539 549.37 57.7539C552.007 57.7539 554.375 58.2829 556.475 59.3408C558.574 60.3825 560.291 61.8717 561.626 63.8086ZM587.285 58.4375H593.926V85H587.285V82.1924C585.983 83.4294 584.673 84.3245 583.354 84.8779C582.052 85.415 580.636 85.6836 579.106 85.6836C575.672 85.6836 572.702 84.3571 570.195 81.7041C567.689 79.0348 566.436 75.7227 566.436 71.7676C566.436 67.666 567.648 64.305 570.073 61.6846C572.498 59.0641 575.444 57.7539 578.911 57.7539C580.506 57.7539 582.004 58.055 583.403 58.6572C584.803 59.2594 586.097 60.1628 587.285 61.3672V58.4375ZM580.278 63.9062C578.211 63.9062 576.494 64.6387 575.127 66.1035C573.76 67.5521 573.076 69.4157 573.076 71.6943C573.076 73.9893 573.768 75.8773 575.151 77.3584C576.551 78.8395 578.268 79.5801 580.303 79.5801C582.402 79.5801 584.144 78.8558 585.527 77.4072C586.911 75.9424 587.603 74.0299 587.603 71.6699C587.603 69.3587 586.911 67.487 585.527 66.0547C584.144 64.6224 582.394 63.9062 580.278 63.9062ZM614.678 85V58.4375H625.347C628.846 58.4375 631.222 59.1292 632.476 60.5127C633.729 61.8799 634.355 63.4342 634.355 65.1758C634.355 67.7637 633.07 69.6273 630.498 70.7666C634.014 71.971 635.771 74.2415 635.771 77.5781C635.771 79.3848 635.308 80.8822 634.38 82.0703C633.452 83.2422 632.272 84.0234 630.84 84.4141C629.424 84.8047 627.438 85 624.883 85H614.678ZM621.367 68.8867H623.931C625.021 68.8867 625.859 68.6182 626.445 68.0811C627.048 67.5277 627.349 66.9173 627.349 66.25C627.349 65.2572 627.064 64.484 626.494 63.9307C625.924 63.3773 625.249 63.1006 624.468 63.1006L623.613 63.125H621.367V68.8867ZM621.367 79.873H624.712C626.014 79.873 626.925 79.5719 627.446 78.9697C627.983 78.3512 628.252 77.749 628.252 77.1631C628.252 76.3005 627.951 75.5111 627.349 74.7949C626.763 74.0788 625.697 73.7207 624.15 73.7207H621.367V79.873ZM648.101 68.0078H650.078C652.861 68.0078 654.993 68.2275 656.475 68.667C657.972 69.0902 659.233 69.9854 660.259 71.3525C661.284 72.7197 661.797 74.4368 661.797 76.5039C661.797 78.5547 661.333 80.2637 660.405 81.6309C659.478 82.9818 658.289 83.8851 656.841 84.3408C655.409 84.7803 653.39 85 650.786 85H641.411V58.4375H648.101V68.0078ZM648.101 79.873H650.127C651.331 79.873 652.202 79.7917 652.739 79.6289C653.276 79.4499 653.748 79.1162 654.155 78.6279C654.562 78.1396 654.766 77.5456 654.766 76.8457C654.766 74.5671 653.464 73.4277 650.859 73.4277H648.101V79.873ZM666.436 58.4375H673.101V85H666.436V58.4375ZM700.542 85H693.853V58.4375H717.144V85H710.454V64.8584H700.542V85ZM736.382 57.7539C738.888 57.7539 741.24 58.3805 743.438 59.6338C745.651 60.887 747.376 62.5879 748.613 64.7363C749.85 66.8848 750.469 69.2041 750.469 71.6943C750.469 74.2008 749.842 76.5446 748.589 78.7256C747.352 80.9066 745.659 82.6156 743.511 83.8525C741.362 85.0732 738.994 85.6836 736.406 85.6836C732.598 85.6836 729.342 84.3327 726.641 81.6309C723.955 78.9128 722.612 75.6169 722.612 71.7432C722.612 67.5928 724.134 64.1341 727.178 61.3672C729.847 58.9583 732.915 57.7539 736.382 57.7539ZM736.479 64.0283C734.412 64.0283 732.687 64.7526 731.304 66.2012C729.937 67.6335 729.253 69.4727 729.253 71.7188C729.253 74.0299 729.928 75.9017 731.279 77.334C732.646 78.7663 734.372 79.4824 736.455 79.4824C738.538 79.4824 740.272 78.7581 741.655 77.3096C743.039 75.861 743.73 73.9974 743.73 71.7188C743.73 69.4401 743.047 67.5928 741.68 66.1768C740.329 64.7445 738.595 64.0283 736.479 64.0283ZM779.668 85H772.881L766.24 68.2275L759.478 85H752.715L764.043 58.4375H768.34L779.668 85ZM780.229 58.4375H787.041L793.95 75.1123L801.567 58.4375H808.403L791.753 94.7168H784.868L790.337 83.0225L780.229 58.4375ZM826.592 74.4531H821.245C817.632 74.4531 814.849 73.7614 812.896 72.3779C810.959 70.9782 809.99 68.6833 809.99 65.4932V58.4375H816.68V64.9805C816.68 67.3079 818.234 68.4717 821.343 68.4717L823.931 68.4473H826.592V58.4375H833.281V85H826.592V74.4531ZM843.535 85H839.995V58.4375H846.489V74.0381L860.088 58.4375H863.286V85H856.792V69.7168L843.535 85ZM867.681 58.4375H892.437V64.7852H883.623V85H876.934V64.7852H867.681V58.4375ZM923.418 73.6475H902.007C902.316 75.5355 903.138 77.041 904.473 78.1641C905.824 79.2708 907.541 79.8242 909.624 79.8242C912.114 79.8242 914.255 78.9535 916.045 77.2119L921.66 79.8486C920.26 81.8343 918.584 83.3073 916.631 84.2676C914.678 85.2116 912.358 85.6836 909.673 85.6836C905.506 85.6836 902.113 84.3734 899.492 81.7529C896.872 79.1162 895.562 75.8203 895.562 71.8652C895.562 67.8125 896.864 64.4515 899.468 61.7822C902.088 59.0967 905.368 57.7539 909.307 57.7539C913.49 57.7539 916.891 59.0967 919.512 61.7822C922.132 64.4515 923.442 67.9834 923.442 72.3779L923.418 73.6475ZM916.729 68.3984C916.289 66.9173 915.418 65.7129 914.116 64.7852C912.83 63.8574 911.333 63.3936 909.624 63.3936C907.769 63.3936 906.141 63.9144 904.741 64.9561C903.862 65.6071 903.049 66.7546 902.3 68.3984H916.729ZM932.476 57.7539C933.534 57.7539 934.437 58.1283 935.186 58.877C935.934 59.6257 936.309 60.529 936.309 61.5869C936.309 62.6286 935.934 63.5238 935.186 64.2725C934.437 65.0212 933.534 65.3955 932.476 65.3955C931.418 65.3955 930.514 65.0293 929.766 64.2969C929.017 63.5482 928.643 62.6449 928.643 61.5869C928.643 60.529 929.017 59.6257 929.766 58.877C930.514 58.1283 931.418 57.7539 932.476 57.7539ZM932.476 78.042C933.534 78.042 934.437 78.4163 935.186 79.165C935.934 79.8975 936.309 80.7926 936.309 81.8506C936.309 82.9085 935.934 83.8118 935.186 84.5605C934.437 85.3092 933.534 85.6836 932.476 85.6836C931.418 85.6836 930.514 85.3092 929.766 84.5605C929.017 83.8118 928.643 82.9085 928.643 81.8506C928.643 80.7926 929.017 79.8975 929.766 79.165C930.514 78.4163 931.418 78.042 932.476 78.042Z" fill="black"/>
<path d="M60.0493 150.043H72.9766V168H69.522V153.242H63.5161V168H60.0493V150.043ZM90.0176 162.324H79.312C79.4666 163.268 79.8776 164.021 80.5449 164.582C81.2204 165.135 82.0789 165.412 83.1206 165.412C84.3657 165.412 85.4359 164.977 86.3311 164.106L89.1387 165.424C88.4388 166.417 87.6006 167.154 86.624 167.634C85.6475 168.106 84.4878 168.342 83.145 168.342C81.0617 168.342 79.3649 167.687 78.0547 166.376C76.7445 165.058 76.0894 163.41 76.0894 161.433C76.0894 159.406 76.7404 157.726 78.0425 156.391C79.3527 155.048 80.9925 154.377 82.9619 154.377C85.0534 154.377 86.7542 155.048 88.0645 156.391C89.3747 157.726 90.0298 159.492 90.0298 161.689L90.0176 162.324ZM86.6729 159.699C86.4531 158.959 86.0177 158.356 85.3667 157.893C84.7238 157.429 83.9751 157.197 83.1206 157.197C82.1929 157.197 81.3791 157.457 80.6792 157.978C80.2397 158.304 79.8328 158.877 79.4585 159.699H86.6729ZM96.0356 154.719V156.184C96.6379 155.581 97.2889 155.13 97.9888 154.829C98.6886 154.528 99.4373 154.377 100.235 154.377C101.968 154.377 103.441 155.032 104.654 156.342C105.866 157.653 106.473 159.333 106.473 161.384C106.473 163.361 105.846 165.017 104.593 166.352C103.34 167.679 101.854 168.342 100.137 168.342C99.3722 168.342 98.6602 168.208 98.001 167.939C97.3418 167.662 96.6867 167.215 96.0356 166.596V172.858H92.7275V154.719H96.0356ZM99.5391 157.453C98.4893 157.453 97.6185 157.811 96.9268 158.527C96.235 159.243 95.8892 160.179 95.8892 161.335C95.8892 162.515 96.235 163.471 96.9268 164.204C97.6185 164.928 98.4893 165.29 99.5391 165.29C100.556 165.29 101.411 164.92 102.103 164.179C102.802 163.439 103.152 162.495 103.152 161.347C103.152 160.208 102.811 159.276 102.127 158.552C101.443 157.819 100.581 157.453 99.5391 157.453ZM109.231 168V154.719H114.566C116.316 154.719 117.504 155.065 118.13 155.756C118.757 156.44 119.07 157.217 119.07 158.088C119.07 159.382 118.427 160.314 117.142 160.883C118.899 161.486 119.778 162.621 119.778 164.289C119.778 165.192 119.546 165.941 119.083 166.535C118.619 167.121 118.029 167.512 117.312 167.707C116.604 167.902 115.612 168 114.334 168H109.231ZM112.576 159.943H113.858C114.403 159.943 114.822 159.809 115.115 159.541C115.416 159.264 115.567 158.959 115.567 158.625C115.567 158.129 115.424 157.742 115.14 157.465C114.855 157.189 114.517 157.05 114.126 157.05L113.699 157.062H112.576V159.943ZM112.576 165.437H114.249C114.9 165.437 115.355 165.286 115.616 164.985C115.884 164.676 116.019 164.375 116.019 164.082C116.019 163.65 115.868 163.256 115.567 162.897C115.274 162.539 114.741 162.36 113.968 162.36H112.576V165.437ZM125.943 159.504H126.932C128.323 159.504 129.389 159.614 130.13 159.833C130.879 160.045 131.509 160.493 132.022 161.176C132.535 161.86 132.791 162.718 132.791 163.752C132.791 164.777 132.559 165.632 132.095 166.315C131.631 166.991 131.037 167.443 130.313 167.67C129.597 167.89 128.588 168 127.286 168H122.598V154.719H125.943V159.504ZM125.943 165.437H126.956C127.558 165.437 127.994 165.396 128.262 165.314C128.531 165.225 128.767 165.058 128.97 164.814C129.174 164.57 129.275 164.273 129.275 163.923C129.275 162.784 128.624 162.214 127.322 162.214H125.943V165.437ZM135.11 154.719H138.443V168H135.11V154.719ZM144.046 162.373V159.992H144.705C145.153 159.992 145.543 159.886 145.877 159.675C146.211 159.463 146.377 159.121 146.377 158.649C146.377 158.243 146.227 157.909 145.926 157.648C145.633 157.38 145.271 157.246 144.839 157.246C144.294 157.246 143.611 157.51 142.789 158.039L141.47 155.744C142.618 154.833 143.895 154.377 145.303 154.377C146.597 154.377 147.667 154.715 148.514 155.39C149.368 156.057 149.795 156.961 149.795 158.1C149.795 159.256 149.177 160.192 147.94 160.908C149.592 161.518 150.418 162.621 150.418 164.216C150.418 165.404 149.954 166.389 149.026 167.17C148.099 167.951 146.817 168.342 145.181 168.342C143.383 168.342 141.897 167.837 140.726 166.828L142.569 164.509C143.358 165.095 144.107 165.388 144.815 165.388C145.385 165.388 145.836 165.253 146.17 164.985C146.504 164.708 146.67 164.354 146.67 163.923C146.67 163.508 146.512 163.146 146.194 162.836C145.885 162.527 145.458 162.373 144.913 162.373H144.046ZM162.308 162.373V159.992H162.967C163.414 159.992 163.805 159.886 164.139 159.675C164.472 159.463 164.639 159.121 164.639 158.649C164.639 158.243 164.489 157.909 164.188 157.648C163.895 157.38 163.532 157.246 163.101 157.246C162.556 157.246 161.872 157.51 161.05 158.039L159.732 155.744C160.879 154.833 162.157 154.377 163.565 154.377C164.859 154.377 165.929 154.715 166.775 155.39C167.63 156.057 168.057 156.961 168.057 158.1C168.057 159.256 167.439 160.192 166.202 160.908C167.854 161.518 168.68 162.621 168.68 164.216C168.68 165.404 168.216 166.389 167.288 167.17C166.36 167.951 165.079 168.342 163.443 168.342C161.644 168.342 160.159 167.837 158.987 166.828L160.831 164.509C161.62 165.095 162.369 165.388 163.077 165.388C163.646 165.388 164.098 165.253 164.432 164.985C164.765 164.708 164.932 164.354 164.932 163.923C164.932 163.508 164.773 163.146 164.456 162.836C164.147 162.527 163.72 162.373 163.174 162.373H162.308ZM181.155 154.719H184.476V168H181.155V166.596C180.504 167.215 179.849 167.662 179.19 167.939C178.539 168.208 177.831 168.342 177.066 168.342C175.349 168.342 173.864 167.679 172.61 166.352C171.357 165.017 170.73 163.361 170.73 161.384C170.73 159.333 171.337 157.653 172.549 156.342C173.762 155.032 175.235 154.377 176.968 154.377C177.766 154.377 178.514 154.528 179.214 154.829C179.914 155.13 180.561 155.581 181.155 156.184V154.719ZM177.652 157.453C176.618 157.453 175.76 157.819 175.076 158.552C174.393 159.276 174.051 160.208 174.051 161.347C174.051 162.495 174.397 163.439 175.088 164.179C175.788 164.92 176.647 165.29 177.664 165.29C178.714 165.29 179.585 164.928 180.276 164.204C180.968 163.471 181.314 162.515 181.314 161.335C181.314 160.179 180.968 159.243 180.276 158.527C179.585 157.811 178.71 157.453 177.652 157.453ZM187.845 154.719H191.177V159.687L195.767 154.719H199.832L193.912 161.188L199.905 168H195.486L191.531 163.312L191.177 163.728V168H187.845V154.719ZM211.087 154.719H214.407V168H211.087V166.596C210.436 167.215 209.781 167.662 209.122 167.939C208.471 168.208 207.763 168.342 206.998 168.342C205.28 168.342 203.795 167.679 202.542 166.352C201.289 165.017 200.662 163.361 200.662 161.384C200.662 159.333 201.268 157.653 202.481 156.342C203.694 155.032 205.167 154.377 206.9 154.377C207.697 154.377 208.446 154.528 209.146 154.829C209.846 155.13 210.493 155.581 211.087 156.184V154.719ZM207.583 157.453C206.55 157.453 205.691 157.819 205.008 158.552C204.324 159.276 203.982 160.208 203.982 161.347C203.982 162.495 204.328 163.439 205.02 164.179C205.72 164.92 206.578 165.29 207.596 165.29C208.646 165.29 209.516 164.928 210.208 164.204C210.9 163.471 211.246 162.515 211.246 161.335C211.246 160.179 210.9 159.243 210.208 158.527C209.516 157.811 208.641 157.453 207.583 157.453ZM219.998 162.373V159.992H220.657C221.105 159.992 221.495 159.886 221.829 159.675C222.163 159.463 222.33 159.121 222.33 158.649C222.33 158.243 222.179 157.909 221.878 157.648C221.585 157.38 221.223 157.246 220.792 157.246C220.246 157.246 219.563 157.51 218.741 158.039L217.422 155.744C218.57 154.833 219.847 154.377 221.255 154.377C222.549 154.377 223.619 154.715 224.466 155.39C225.32 156.057 225.748 156.961 225.748 158.1C225.748 159.256 225.129 160.192 223.892 160.908C225.544 161.518 226.37 162.621 226.37 164.216C226.37 165.404 225.906 166.389 224.979 167.17C224.051 167.951 222.769 168.342 221.133 168.342C219.335 168.342 217.85 167.837 216.678 166.828L218.521 164.509C219.31 165.095 220.059 165.388 220.767 165.388C221.337 165.388 221.788 165.253 222.122 164.985C222.456 164.708 222.623 164.354 222.623 163.923C222.623 163.508 222.464 163.146 222.146 162.836C221.837 162.527 221.41 162.373 220.865 162.373H219.998Z" fill="black"/>
<path d="M69.0625 197.845L68.1411 198.418C67.3442 197.361 66.2568 196.832 64.8789 196.832C63.7777 196.832 62.8618 197.186 62.1313 197.895C61.4064 198.603 61.0439 199.464 61.0439 200.476C61.0439 201.135 61.21 201.755 61.542 202.336C61.8796 202.917 62.3389 203.368 62.9199 203.689C63.5065 204.01 64.1623 204.17 64.8872 204.17C66.2153 204.17 67.3 203.642 68.1411 202.585L69.0625 203.191C68.6309 203.838 68.0498 204.342 67.3193 204.701C66.5944 205.055 65.7671 205.233 64.8374 205.233C63.4097 205.233 62.2254 204.779 61.2847 203.871C60.3439 202.964 59.8735 201.86 59.8735 200.559C59.8735 199.685 60.0921 198.874 60.5293 198.127C60.972 197.374 61.578 196.788 62.3472 196.367C63.1164 195.947 63.9769 195.736 64.9287 195.736C65.5264 195.736 66.1019 195.828 66.6553 196.01C67.2142 196.193 67.6873 196.431 68.0747 196.724C68.4621 197.018 68.7913 197.391 69.0625 197.845ZM81.9619 192.483H82.2109V200.991H83.6885V202.161H82.2109V205H80.9907V202.161H75.1553L81.9619 192.483ZM80.9907 200.991V195.902L77.3965 200.991H80.9907ZM84.6929 199.903H89.2583V200.916H84.6929V199.903ZM92.2466 196.99V205H91.0928V195.969H95.6582V196.99H92.2466ZM101.51 195.736C102.899 195.736 104.05 196.24 104.963 197.247C105.793 198.166 106.208 199.253 106.208 200.509C106.208 201.771 105.769 202.875 104.889 203.821C104.014 204.762 102.888 205.233 101.51 205.233C100.127 205.233 98.9951 204.762 98.1152 203.821C97.2409 202.875 96.8037 201.771 96.8037 200.509C96.8037 199.259 97.2188 198.174 98.0488 197.255C98.9619 196.243 100.116 195.736 101.51 195.736ZM101.51 196.874C100.547 196.874 99.7201 197.231 99.0283 197.944C98.3366 198.658 97.9907 199.522 97.9907 200.534C97.9907 201.187 98.1484 201.796 98.4639 202.36C98.7793 202.925 99.2054 203.362 99.7422 203.672C100.279 203.976 100.868 204.129 101.51 204.129C102.152 204.129 102.742 203.976 103.278 203.672C103.815 203.362 104.241 202.925 104.557 202.36C104.872 201.796 105.03 201.187 105.03 200.534C105.03 199.522 104.681 198.658 103.984 197.944C103.292 197.231 102.468 196.874 101.51 196.874ZM122.893 195.969H123.225L126.288 205H125.076L122.843 198.351L119.374 205H119.158L115.68 198.351L113.455 205H112.243L115.323 195.969H115.638L119.274 203.033L122.893 195.969ZM135.635 202.004L136.614 202.518C136.293 203.149 135.923 203.658 135.502 204.046C135.081 204.433 134.608 204.729 134.083 204.934C133.557 205.133 132.962 205.233 132.298 205.233C130.826 205.233 129.675 204.751 128.845 203.788C128.015 202.82 127.6 201.727 127.6 200.509C127.6 199.364 127.951 198.343 128.654 197.446C129.545 196.306 130.737 195.736 132.231 195.736C133.77 195.736 134.998 196.32 135.917 197.488C136.57 198.312 136.902 199.342 136.913 200.576H128.795C128.817 201.627 129.152 202.491 129.799 203.166C130.447 203.835 131.246 204.17 132.198 204.17C132.658 204.17 133.103 204.09 133.535 203.929C133.972 203.769 134.343 203.556 134.647 203.29C134.951 203.025 135.281 202.596 135.635 202.004ZM135.635 199.571C135.48 198.952 135.253 198.456 134.954 198.086C134.661 197.715 134.271 197.416 133.784 197.189C133.297 196.962 132.785 196.849 132.248 196.849C131.363 196.849 130.602 197.134 129.965 197.704C129.5 198.119 129.149 198.741 128.911 199.571H135.635ZM147.854 197.845L146.932 198.418C146.135 197.361 145.048 196.832 143.67 196.832C142.569 196.832 141.653 197.186 140.922 197.895C140.197 198.603 139.835 199.464 139.835 200.476C139.835 201.135 140.001 201.755 140.333 202.336C140.671 202.917 141.13 203.368 141.711 203.689C142.298 204.01 142.953 204.17 143.678 204.17C145.006 204.17 146.091 203.642 146.932 202.585L147.854 203.191C147.422 203.838 146.841 204.342 146.11 204.701C145.385 205.055 144.558 205.233 143.628 205.233C142.201 205.233 141.016 204.779 140.076 203.871C139.135 202.964 138.665 201.86 138.665 200.559C138.665 199.685 138.883 198.874 139.32 198.127C139.763 197.374 140.369 196.788 141.138 196.367C141.907 195.947 142.768 195.736 143.72 195.736C144.317 195.736 144.893 195.828 145.446 196.01C146.005 196.193 146.478 196.431 146.866 196.724C147.253 197.018 147.582 197.391 147.854 197.845ZM153.905 200.958H153.075L150.501 205H149.248L151.962 200.841C151.287 200.758 150.739 200.504 150.319 200.078C149.898 199.646 149.688 199.112 149.688 198.476C149.688 197.679 149.929 197.062 150.41 196.625C150.897 196.187 151.534 195.969 152.319 195.969H155.067V205H153.905V200.958ZM153.905 196.973H153.141C152.4 196.973 151.902 197.02 151.647 197.114C151.392 197.208 151.19 197.372 151.041 197.604C150.892 197.831 150.817 198.138 150.817 198.526C150.817 198.896 150.914 199.203 151.107 199.447C151.301 199.685 151.517 199.832 151.755 199.887C151.993 199.942 152.455 199.97 153.141 199.97H153.905V196.973ZM166.107 205H157.665V195.969H158.835V203.904H164.082V195.969H165.252V203.904H167.203V206.428H166.107V205ZM177.77 195.969V205H176.624V203.448C176.137 204.04 175.589 204.485 174.98 204.784C174.377 205.083 173.716 205.233 172.997 205.233C171.718 205.233 170.625 204.77 169.718 203.846C168.816 202.917 168.365 201.788 168.365 200.46C168.365 199.159 168.821 198.047 169.734 197.123C170.647 196.199 171.746 195.736 173.03 195.736C173.771 195.736 174.441 195.894 175.039 196.21C175.642 196.525 176.17 196.998 176.624 197.629V195.969H177.77ZM173.121 196.857C172.474 196.857 171.876 197.018 171.328 197.339C170.78 197.654 170.343 198.099 170.017 198.675C169.696 199.25 169.535 199.859 169.535 200.501C169.535 201.137 169.698 201.746 170.025 202.327C170.351 202.908 170.789 203.362 171.336 203.689C171.89 204.01 172.482 204.17 173.113 204.17C173.749 204.17 174.352 204.01 174.922 203.689C175.492 203.368 175.93 202.933 176.234 202.385C176.544 201.838 176.699 201.22 176.699 200.534C176.699 199.488 176.353 198.614 175.661 197.911C174.975 197.208 174.128 196.857 173.121 196.857Z" fill="black"/>
<path d="M345.041 150.043H357.968V168H354.513V153.242H348.507V168H345.041V150.043ZM365.011 154.719V156.184C365.613 155.581 366.264 155.13 366.964 154.829C367.664 154.528 368.413 154.377 369.21 154.377C370.944 154.377 372.417 155.032 373.629 156.342C374.842 157.653 375.448 159.333 375.448 161.384C375.448 163.361 374.822 165.017 373.568 166.352C372.315 167.679 370.83 168.342 369.113 168.342C368.348 168.342 367.636 168.208 366.977 167.939C366.317 167.662 365.662 167.215 365.011 166.596V172.858H361.703V154.719H365.011ZM368.515 157.453C367.465 157.453 366.594 157.811 365.902 158.527C365.211 159.243 364.865 160.179 364.865 161.335C364.865 162.515 365.211 163.471 365.902 164.204C366.594 164.928 367.465 165.29 368.515 165.29C369.532 165.29 370.386 164.92 371.078 164.179C371.778 163.439 372.128 162.495 372.128 161.347C372.128 160.208 371.786 159.276 371.103 158.552C370.419 157.819 369.556 157.453 368.515 157.453ZM388.021 154.719H391.342V168H388.021V166.596C387.37 167.215 386.715 167.662 386.056 167.939C385.405 168.208 384.697 168.342 383.932 168.342C382.215 168.342 380.73 167.679 379.477 166.352C378.223 165.017 377.597 163.361 377.597 161.384C377.597 159.333 378.203 157.653 379.416 156.342C380.628 155.032 382.101 154.377 383.834 154.377C384.632 154.377 385.381 154.528 386.081 154.829C386.78 155.13 387.427 155.581 388.021 156.184V154.719ZM384.518 157.453C383.485 157.453 382.626 157.819 381.942 158.552C381.259 159.276 380.917 160.208 380.917 161.347C380.917 162.495 381.263 163.439 381.955 164.179C382.654 164.92 383.513 165.29 384.53 165.29C385.58 165.29 386.451 164.928 387.143 164.204C387.834 163.471 388.18 162.515 388.18 161.335C388.18 160.179 387.834 159.243 387.143 158.527C386.451 157.811 385.576 157.453 384.518 157.453ZM394.711 154.719H398.043V159.687L402.633 154.719H406.698L400.778 161.188L406.771 168H402.353L398.397 163.312L398.043 163.728V168H394.711V154.719ZM406.955 154.719H419.333V157.893H414.926V168H411.581V157.893H406.955V154.719ZM423.275 168H421.505V154.719H424.752V162.519L431.552 154.719H433.151V168H429.904V160.358L423.275 168ZM436.532 154.719H439.865V159.687L444.455 154.719H448.52L442.599 161.188L448.593 168H444.174L440.219 163.312L439.865 163.728V168H436.532V154.719ZM448.483 154.719H451.889L455.343 163.056L459.152 154.719H462.57L454.245 172.858H450.802L453.537 167.011L448.483 154.719Z" fill="black"/>
<path d="M345.92 205H343.297V195.969H345.878C346.863 195.969 347.572 196.196 348.003 196.65C348.441 197.103 348.659 197.635 348.659 198.243C348.659 199.162 348.255 199.784 347.447 200.111C348.62 200.526 349.207 201.326 349.207 202.51C349.207 204.17 348.111 205 345.92 205ZM344.467 196.973V199.796H345.223C345.909 199.796 346.357 199.768 346.567 199.713C346.778 199.657 346.974 199.522 347.157 199.306C347.345 199.084 347.439 198.794 347.439 198.434C347.439 198.058 347.342 197.742 347.148 197.488C346.955 197.233 346.75 197.084 346.534 197.04C346.324 196.995 345.887 196.973 345.223 196.973H344.467ZM344.467 200.858V204.021H345.712C346.299 204.021 346.717 203.985 346.966 203.913C347.22 203.835 347.436 203.672 347.613 203.423C347.796 203.174 347.887 202.859 347.887 202.477C347.887 201.984 347.732 201.591 347.422 201.298C347.112 201.005 346.703 200.858 346.194 200.858H344.467ZM354.951 195.969H360.895V196.973H358.504V205H357.333V196.973H354.951V195.969ZM362.488 195.969H363.642V197.629C364.101 196.998 364.63 196.525 365.228 196.21C365.825 195.894 366.492 195.736 367.228 195.736C368.512 195.736 369.61 196.199 370.523 197.123C371.437 198.047 371.893 199.159 371.893 200.46C371.893 201.788 371.439 202.917 370.532 203.846C369.63 204.77 368.54 205.233 367.261 205.233C366.542 205.233 365.881 205.083 365.277 204.784C364.674 204.485 364.129 204.04 363.642 203.448V208.304H362.488V195.969ZM367.137 196.857C366.13 196.857 365.28 197.208 364.588 197.911C363.902 198.614 363.559 199.488 363.559 200.534C363.559 201.22 363.711 201.838 364.016 202.385C364.326 202.933 364.765 203.368 365.335 203.689C365.911 204.01 366.517 204.17 367.153 204.17C367.779 204.17 368.365 204.01 368.913 203.689C369.466 203.362 369.906 202.908 370.233 202.327C370.559 201.746 370.723 201.137 370.723 200.501C370.723 199.859 370.559 199.25 370.233 198.675C369.912 198.099 369.478 197.654 368.93 197.339C368.382 197.018 367.784 196.857 367.137 196.857ZM381.68 202.004L382.659 202.518C382.338 203.149 381.967 203.658 381.547 204.046C381.126 204.433 380.653 204.729 380.127 204.934C379.602 205.133 379.007 205.233 378.343 205.233C376.871 205.233 375.72 204.751 374.89 203.788C374.06 202.82 373.645 201.727 373.645 200.509C373.645 199.364 373.996 198.343 374.699 197.446C375.59 196.306 376.782 195.736 378.276 195.736C379.815 195.736 381.043 196.32 381.962 197.488C382.615 198.312 382.947 199.342 382.958 200.576H374.84C374.862 201.627 375.197 202.491 375.844 203.166C376.492 203.835 377.291 204.17 378.243 204.17C378.702 204.17 379.148 204.09 379.58 203.929C380.017 203.769 380.388 203.556 380.692 203.29C380.996 203.025 381.326 202.596 381.68 202.004ZM381.68 199.571C381.525 198.952 381.298 198.456 380.999 198.086C380.706 197.715 380.316 197.416 379.829 197.189C379.342 196.962 378.83 196.849 378.293 196.849C377.408 196.849 376.647 197.134 376.01 197.704C375.545 198.119 375.194 198.741 374.956 199.571H381.68ZM376.616 192.4C376.882 192.4 377.109 192.494 377.297 192.682C377.485 192.87 377.579 193.097 377.579 193.362C377.579 193.628 377.485 193.855 377.297 194.043C377.109 194.231 376.882 194.325 376.616 194.325C376.351 194.325 376.124 194.231 375.936 194.043C375.747 193.855 375.653 193.628 375.653 193.362C375.653 193.097 375.747 192.87 375.936 192.682C376.124 192.494 376.351 192.4 376.616 192.4ZM380.003 192.4C380.269 192.4 380.495 192.494 380.684 192.682C380.872 192.87 380.966 193.097 380.966 193.362C380.966 193.628 380.872 193.855 380.684 194.043C380.495 194.231 380.269 194.325 380.003 194.325C379.737 194.325 379.51 194.231 379.322 194.043C379.134 193.855 379.04 193.628 379.04 193.362C379.04 193.097 379.134 192.87 379.322 192.682C379.51 192.494 379.737 192.4 380.003 192.4ZM384.087 195.969H385.481L387.872 199.314L390.263 195.969H391.657L388.569 200.26L392.047 205H390.636L387.872 201.207L385.149 205H383.763L387.183 200.26L384.087 195.969ZM404.416 200.651H399.169V205H397.999V195.969H399.169V199.555H404.416V195.969H405.578V205H404.416V200.651ZM417.174 195.969V205H416.028V203.448C415.541 204.04 414.993 204.485 414.385 204.784C413.782 205.083 413.12 205.233 412.401 205.233C411.123 205.233 410.03 204.77 409.122 203.846C408.22 202.917 407.769 201.788 407.769 200.46C407.769 199.159 408.226 198.047 409.139 197.123C410.052 196.199 411.15 195.736 412.434 195.736C413.176 195.736 413.845 195.894 414.443 196.21C415.046 196.525 415.575 196.998 416.028 197.629V195.969H417.174ZM412.525 196.857C411.878 196.857 411.28 197.018 410.732 197.339C410.185 197.654 409.747 198.099 409.421 198.675C409.1 199.25 408.939 199.859 408.939 200.501C408.939 201.137 409.103 201.746 409.429 202.327C409.756 202.908 410.193 203.362 410.741 203.689C411.294 204.01 411.886 204.17 412.517 204.17C413.153 204.17 413.757 204.01 414.327 203.689C414.897 203.368 415.334 202.933 415.638 202.385C415.948 201.838 416.103 201.22 416.103 200.534C416.103 199.488 415.757 198.614 415.065 197.911C414.379 197.208 413.533 196.857 412.525 196.857ZM419.797 195.969H427.375V205H426.213V197.065H420.959V205H419.797V195.969ZM429.99 195.969H431.144V197.629C431.603 196.998 432.132 196.525 432.729 196.21C433.327 195.894 433.994 195.736 434.73 195.736C436.014 195.736 437.112 196.199 438.025 197.123C438.938 198.047 439.395 199.159 439.395 200.46C439.395 201.788 438.941 202.917 438.034 203.846C437.132 204.77 436.042 205.233 434.763 205.233C434.044 205.233 433.382 205.083 432.779 204.784C432.176 204.485 431.631 204.04 431.144 203.448V208.304H429.99V195.969ZM434.639 196.857C433.632 196.857 432.782 197.208 432.09 197.911C431.404 198.614 431.061 199.488 431.061 200.534C431.061 201.22 431.213 201.838 431.518 202.385C431.827 202.933 432.267 203.368 432.837 203.689C433.413 204.01 434.019 204.17 434.655 204.17C435.281 204.17 435.867 204.01 436.415 203.689C436.968 203.362 437.408 202.908 437.735 202.327C438.061 201.746 438.225 201.137 438.225 200.501C438.225 199.859 438.061 199.25 437.735 198.675C437.414 198.099 436.979 197.654 436.432 197.339C435.884 197.018 435.286 196.857 434.639 196.857ZM450.576 195.969V205H449.431V203.448C448.944 204.04 448.396 204.485 447.787 204.784C447.184 205.083 446.523 205.233 445.803 205.233C444.525 205.233 443.432 204.77 442.524 203.846C441.622 202.917 441.171 201.788 441.171 200.46C441.171 199.159 441.628 198.047 442.541 197.123C443.454 196.199 444.553 195.736 445.836 195.736C446.578 195.736 447.248 195.894 447.845 196.21C448.448 196.525 448.977 196.998 449.431 197.629V195.969H450.576ZM445.928 196.857C445.28 196.857 444.683 197.018 444.135 197.339C443.587 197.654 443.15 198.099 442.823 198.675C442.502 199.25 442.342 199.859 442.342 200.501C442.342 201.137 442.505 201.746 442.832 202.327C443.158 202.908 443.595 203.362 444.143 203.689C444.696 204.01 445.289 204.17 445.919 204.17C446.556 204.17 447.159 204.01 447.729 203.689C448.299 203.368 448.736 202.933 449.041 202.385C449.35 201.838 449.505 201.22 449.505 200.534C449.505 199.488 449.16 198.614 448.468 197.911C447.782 197.208 446.935 196.857 445.928 196.857ZM455.822 205H453.199V195.969H455.781C456.766 195.969 457.474 196.196 457.906 196.65C458.343 197.103 458.562 197.635 458.562 198.243C458.562 199.162 458.158 199.784 457.35 200.111C458.523 200.526 459.109 201.326 459.109 202.51C459.109 204.17 458.014 205 455.822 205ZM454.37 196.973V199.796H455.125C455.811 199.796 456.259 199.768 456.47 199.713C456.68 199.657 456.876 199.522 457.059 199.306C457.247 199.084 457.341 198.794 457.341 198.434C457.341 198.058 457.244 197.742 457.051 197.488C456.857 197.233 456.652 197.084 456.437 197.04C456.226 196.995 455.789 196.973 455.125 196.973H454.37ZM454.37 200.858V204.021H455.615C456.201 204.021 456.619 203.985 456.868 203.913C457.123 203.835 457.339 203.672 457.516 203.423C457.698 203.174 457.79 202.859 457.79 202.477C457.79 201.984 457.635 201.591 457.325 201.298C457.015 201.005 456.605 200.858 456.096 200.858H454.37ZM468.796 205H467.56L464.538 198.426L461.542 205H460.296L464.43 195.969H464.638L468.796 205ZM478.185 202.004L479.164 202.518C478.843 203.149 478.472 203.658 478.052 204.046C477.631 204.433 477.158 204.729 476.632 204.934C476.107 205.133 475.512 205.233 474.848 205.233C473.376 205.233 472.225 204.751 471.395 203.788C470.564 202.82 470.149 201.727 470.149 200.509C470.149 199.364 470.501 198.343 471.204 197.446C472.095 196.306 473.287 195.736 474.781 195.736C476.32 195.736 477.548 196.32 478.467 197.488C479.12 198.312 479.452 199.342 479.463 200.576H471.345C471.367 201.627 471.702 202.491 472.349 203.166C472.997 203.835 473.796 204.17 474.748 204.17C475.207 204.17 475.653 204.09 476.084 203.929C476.522 203.769 476.892 203.556 477.197 203.29C477.501 203.025 477.83 202.596 478.185 202.004ZM478.185 199.571C478.03 198.952 477.803 198.456 477.504 198.086C477.211 197.715 476.82 197.416 476.333 197.189C475.847 196.962 475.335 196.849 474.798 196.849C473.912 196.849 473.152 197.134 472.515 197.704C472.05 198.119 471.699 198.741 471.461 199.571H478.185ZM488.054 200.651H482.808V205H481.638V195.969H482.808V199.555H488.054V195.969H489.216V205H488.054V200.651ZM492.977 195.969V202.651L499.609 195.969H499.7V205H498.538V198.376L491.956 205H491.814V195.969H492.977ZM506.1 200.958H505.27L502.697 205H501.443L504.158 200.841C503.483 200.758 502.935 200.504 502.514 200.078C502.094 199.646 501.883 199.112 501.883 198.476C501.883 197.679 502.124 197.062 502.605 196.625C503.092 196.187 503.729 195.969 504.515 195.969H507.262V205H506.1V200.958ZM506.1 196.973H505.336C504.595 196.973 504.097 197.02 503.842 197.114C503.588 197.208 503.386 197.372 503.236 197.604C503.087 197.831 503.012 198.138 503.012 198.526C503.012 198.896 503.109 199.203 503.303 199.447C503.496 199.685 503.712 199.832 503.95 199.887C504.188 199.942 504.65 199.97 505.336 199.97H506.1V196.973ZM508.831 195.969H510.226L512.616 199.314L515.007 195.969H516.401L513.313 200.26L516.792 205H515.38L512.616 201.207L509.894 205H508.507L511.927 200.26L508.831 195.969ZM343.372 228.012L346.858 219.969H347.464L350.925 228.012H352.013V230.154H350.892V229H343.421V230.204H342.276V228.012H343.372ZM347.14 221.762L344.5 228.012H349.672L347.14 221.762ZM354.752 219.969V226.651L361.384 219.969H361.476V229H360.313V222.376L353.731 229H353.59V219.969H354.752ZM365.576 223.771H366.182C366.569 223.771 366.924 223.643 367.245 223.389C367.571 223.134 367.734 222.769 367.734 222.293C367.734 221.889 367.604 221.543 367.344 221.255C367.084 220.962 366.686 220.816 366.149 220.816C365.524 220.816 364.896 221.059 364.265 221.546L363.609 220.741C364.422 220.06 365.286 219.72 366.199 219.72C366.951 219.72 367.582 219.944 368.091 220.392C368.6 220.84 368.855 221.419 368.855 222.127C368.855 223.068 368.44 223.707 367.61 224.045C368.694 224.498 369.237 225.292 369.237 226.427C369.237 227.146 368.982 227.797 368.473 228.378C367.97 228.953 367.214 229.241 366.207 229.241C364.973 229.241 363.98 228.84 363.227 228.037L363.958 227.207C364.516 227.838 365.233 228.153 366.107 228.153C366.694 228.153 367.153 227.996 367.485 227.68C367.823 227.365 367.992 226.95 367.992 226.435C367.992 225.932 367.823 225.528 367.485 225.223C367.148 224.919 366.749 224.767 366.29 224.767H365.576V223.771ZM380.252 219.969V229H379.106V227.448C378.619 228.04 378.072 228.485 377.463 228.784C376.86 229.083 376.198 229.233 375.479 229.233C374.201 229.233 373.108 228.77 372.2 227.846C371.298 226.917 370.847 225.788 370.847 224.46C370.847 223.159 371.304 222.047 372.217 221.123C373.13 220.199 374.228 219.736 375.512 219.736C376.254 219.736 376.923 219.894 377.521 220.21C378.124 220.525 378.653 220.998 379.106 221.629V219.969H380.252ZM375.604 220.857C374.956 220.857 374.358 221.018 373.811 221.339C373.263 221.654 372.826 222.099 372.499 222.675C372.178 223.25 372.018 223.859 372.018 224.501C372.018 225.137 372.181 225.746 372.507 226.327C372.834 226.908 373.271 227.362 373.819 227.689C374.372 228.01 374.964 228.17 375.595 228.17C376.232 228.17 376.835 228.01 377.405 227.689C377.975 227.368 378.412 226.933 378.716 226.385C379.026 225.838 379.181 225.22 379.181 224.534C379.181 223.488 378.835 222.614 378.144 221.911C377.457 221.208 376.611 220.857 375.604 220.857ZM384.037 219.969V226.651L390.669 219.969H390.761V229H389.599V222.376L383.016 229H382.875V219.969H384.037ZM383.879 216.341H384.975C385.163 216.629 385.415 216.845 385.73 216.989C386.046 217.133 386.422 217.205 386.859 217.205C387.302 217.205 387.659 217.141 387.93 217.014C388.201 216.887 388.459 216.662 388.702 216.341H389.765C389.643 216.839 389.33 217.257 388.827 217.595C388.329 217.927 387.67 218.093 386.851 218.093C386.038 218.093 385.374 217.93 384.859 217.603C384.344 217.271 384.018 216.851 383.879 216.341ZM399.767 224.651H394.521V229H393.351V219.969H394.521V223.555H399.767V219.969H400.929V229H399.767V224.651ZM412.525 219.969V229H411.38V227.448C410.893 228.04 410.345 228.485 409.736 228.784C409.133 229.083 408.472 229.233 407.752 229.233C406.474 229.233 405.381 228.77 404.474 227.846C403.572 226.917 403.121 225.788 403.121 224.46C403.121 223.159 403.577 222.047 404.49 221.123C405.403 220.199 406.502 219.736 407.786 219.736C408.527 219.736 409.197 219.894 409.794 220.21C410.398 220.525 410.926 220.998 411.38 221.629V219.969H412.525ZM407.877 220.857C407.229 220.857 406.632 221.018 406.084 221.339C405.536 221.654 405.099 222.099 404.772 222.675C404.451 223.25 404.291 223.859 404.291 224.501C404.291 225.137 404.454 225.746 404.781 226.327C405.107 226.908 405.544 227.362 406.092 227.689C406.646 228.01 407.238 228.17 407.869 228.17C408.505 228.17 409.108 228.01 409.678 227.689C410.248 227.368 410.685 226.933 410.99 226.385C411.3 225.838 411.455 225.22 411.455 224.534C411.455 223.488 411.109 222.614 410.417 221.911C409.731 221.208 408.884 220.857 407.877 220.857Z" fill="black"/>
<path d="M652.042 150.043H664.97V168H661.515V153.242H655.509V168H652.042V150.043ZM674.943 154.377C676.196 154.377 677.372 154.69 678.471 155.317C679.577 155.944 680.44 156.794 681.059 157.868C681.677 158.942 681.986 160.102 681.986 161.347C681.986 162.6 681.673 163.772 681.046 164.863C680.428 165.953 679.582 166.808 678.507 167.426C677.433 168.037 676.249 168.342 674.955 168.342C673.051 168.342 671.423 167.666 670.072 166.315C668.729 164.956 668.058 163.308 668.058 161.372C668.058 159.296 668.819 157.567 670.341 156.184C671.675 154.979 673.209 154.377 674.943 154.377ZM674.992 157.514C673.958 157.514 673.096 157.876 672.404 158.601C671.72 159.317 671.378 160.236 671.378 161.359C671.378 162.515 671.716 163.451 672.392 164.167C673.075 164.883 673.938 165.241 674.979 165.241C676.021 165.241 676.888 164.879 677.58 164.155C678.271 163.431 678.617 162.499 678.617 161.359C678.617 160.22 678.275 159.296 677.592 158.588C676.916 157.872 676.05 157.514 674.992 157.514ZM692.851 163.093L696.928 154.719H699.125L702.445 168H699.186L697.416 160.212L693.461 168H692.094L688.224 160.212L686.442 168H683.195L686.515 154.719H688.712L692.851 163.093ZM710.539 154.377C711.792 154.377 712.968 154.69 714.066 155.317C715.173 155.944 716.036 156.794 716.654 157.868C717.273 158.942 717.582 160.102 717.582 161.347C717.582 162.6 717.269 163.772 716.642 164.863C716.024 165.953 715.177 166.808 714.103 167.426C713.029 168.037 711.845 168.342 710.551 168.342C708.646 168.342 707.019 167.666 705.668 166.315C704.325 164.956 703.654 163.308 703.654 161.372C703.654 159.296 704.415 157.567 705.937 156.184C707.271 154.979 708.805 154.377 710.539 154.377ZM710.587 157.514C709.554 157.514 708.691 157.876 708 158.601C707.316 159.317 706.974 160.236 706.974 161.359C706.974 162.515 707.312 163.451 707.987 164.167C708.671 164.883 709.534 165.241 710.575 165.241C711.617 165.241 712.484 164.879 713.175 164.155C713.867 163.431 714.213 162.499 714.213 161.359C714.213 160.22 713.871 159.296 713.188 158.588C712.512 157.872 711.645 157.514 710.587 157.514ZM739.469 164.802H742.863V170.332H739.677V168H720.304V154.719H723.649V164.802H728.214V154.719H731.559V164.802H736.137V154.719H739.469V164.802ZM748.039 159.504H749.027C750.419 159.504 751.485 159.614 752.226 159.833C752.974 160.045 753.605 160.493 754.118 161.176C754.63 161.86 754.887 162.718 754.887 163.752C754.887 164.777 754.655 165.632 754.191 166.315C753.727 166.991 753.133 167.443 752.409 167.67C751.693 167.89 750.683 168 749.381 168H744.694V154.719H748.039V159.504ZM748.039 165.437H749.052C749.654 165.437 750.089 165.396 750.358 165.314C750.626 165.225 750.862 165.058 751.066 164.814C751.269 164.57 751.371 164.273 751.371 163.923C751.371 162.784 750.72 162.214 749.418 162.214H748.039V165.437Z" fill="black"/>
<path d="M655.922 205H653.299V195.969H655.88C656.865 195.969 657.574 196.196 658.005 196.65C658.443 197.103 658.661 197.635 658.661 198.243C658.661 199.162 658.257 199.784 657.449 200.111C658.622 200.526 659.209 201.326 659.209 202.51C659.209 204.17 658.113 205 655.922 205ZM654.469 196.973V199.796H655.225C655.911 199.796 656.359 199.768 656.569 199.713C656.78 199.657 656.976 199.522 657.159 199.306C657.347 199.084 657.441 198.794 657.441 198.434C657.441 198.058 657.344 197.742 657.15 197.488C656.957 197.233 656.752 197.084 656.536 197.04C656.326 196.995 655.889 196.973 655.225 196.973H654.469ZM654.469 200.858V204.021H655.714C656.301 204.021 656.719 203.985 656.968 203.913C657.222 203.835 657.438 203.672 657.615 203.423C657.798 203.174 657.889 202.859 657.889 202.477C657.889 201.984 657.734 201.591 657.424 201.298C657.114 201.005 656.705 200.858 656.196 200.858H654.469ZM664.953 195.969H670.896V196.973H668.506V205H667.335V196.973H664.953V195.969ZM672.49 195.969H673.644V197.629C674.103 196.998 674.632 196.525 675.229 196.21C675.827 195.894 676.494 195.736 677.23 195.736C678.514 195.736 679.612 196.199 680.525 197.123C681.438 198.047 681.895 199.159 681.895 200.46C681.895 201.788 681.441 202.917 680.534 203.846C679.632 204.77 678.542 205.233 677.263 205.233C676.544 205.233 675.882 205.083 675.279 204.784C674.676 204.485 674.131 204.04 673.644 203.448V208.304H672.49V195.969ZM677.139 196.857C676.132 196.857 675.282 197.208 674.59 197.911C673.904 198.614 673.561 199.488 673.561 200.534C673.561 201.22 673.713 201.838 674.018 202.385C674.327 202.933 674.767 203.368 675.337 203.689C675.913 204.01 676.519 204.17 677.155 204.17C677.781 204.17 678.367 204.01 678.915 203.689C679.468 203.362 679.908 202.908 680.235 202.327C680.561 201.746 680.725 201.137 680.725 200.501C680.725 199.859 680.561 199.25 680.235 198.675C679.914 198.099 679.479 197.654 678.932 197.339C678.384 197.018 677.786 196.857 677.139 196.857ZM683.107 195.969H684.335L687.44 202.925L690.453 195.969H691.69L686.303 208.304H685.074L686.817 204.319L683.107 195.969ZM693.267 204.012L696.753 195.969H697.359L700.821 204.012H701.908V206.154H700.788V205H693.317V206.204H692.171V204.012H693.267ZM697.036 197.762L694.396 204.012H699.567L697.036 197.762ZM707.76 195.736C709.149 195.736 710.3 196.24 711.213 197.247C712.043 198.166 712.458 199.253 712.458 200.509C712.458 201.771 712.019 202.875 711.139 203.821C710.264 204.762 709.138 205.233 707.76 205.233C706.377 205.233 705.245 204.762 704.365 203.821C703.491 202.875 703.054 201.771 703.054 200.509C703.054 199.259 703.469 198.174 704.299 197.255C705.212 196.243 706.366 195.736 707.76 195.736ZM707.76 196.874C706.797 196.874 705.97 197.231 705.278 197.944C704.587 198.658 704.241 199.522 704.241 200.534C704.241 201.187 704.398 201.796 704.714 202.36C705.029 202.925 705.455 203.362 705.992 203.672C706.529 203.976 707.118 204.129 707.76 204.129C708.402 204.129 708.992 203.976 709.528 203.672C710.065 203.362 710.491 202.925 710.807 202.36C711.122 201.796 711.28 201.187 711.28 200.534C711.28 199.522 710.931 198.658 710.234 197.944C709.542 197.231 708.718 196.874 707.76 196.874ZM713.654 195.969H714.882L717.987 202.925L721 195.969H722.237L716.85 208.304H715.621L717.364 204.319L713.654 195.969ZM732.505 197.845L731.583 198.418C730.787 197.361 729.699 196.832 728.321 196.832C727.22 196.832 726.304 197.186 725.574 197.895C724.849 198.603 724.486 199.464 724.486 200.476C724.486 201.135 724.652 201.755 724.984 202.336C725.322 202.917 725.781 203.368 726.362 203.689C726.949 204.01 727.605 204.17 728.33 204.17C729.658 204.17 730.742 203.642 731.583 202.585L732.505 203.191C732.073 203.838 731.492 204.342 730.762 204.701C730.037 205.055 729.209 205.233 728.28 205.233C726.852 205.233 725.668 204.779 724.727 203.871C723.786 202.964 723.316 201.86 723.316 200.559C723.316 199.685 723.535 198.874 723.972 198.127C724.414 197.374 725.02 196.788 725.79 196.367C726.559 195.947 727.419 195.736 728.371 195.736C728.969 195.736 729.544 195.828 730.098 196.01C730.657 196.193 731.13 196.431 731.517 196.724C731.904 197.018 732.234 197.391 732.505 197.845ZM733.733 195.969H739.677V196.973H737.286V205H736.116V196.973H733.733V195.969ZM741.271 195.969H742.424V197.629C742.884 196.998 743.412 196.525 744.01 196.21C744.607 195.894 745.274 195.736 746.01 195.736C747.294 195.736 748.393 196.199 749.306 197.123C750.219 198.047 750.675 199.159 750.675 200.46C750.675 201.788 750.222 202.917 749.314 203.846C748.412 204.77 747.322 205.233 746.043 205.233C745.324 205.233 744.663 205.083 744.06 204.784C743.456 204.485 742.911 204.04 742.424 203.448V208.304H741.271V195.969ZM745.919 196.857C744.912 196.857 744.062 197.208 743.371 197.911C742.684 198.614 742.341 199.488 742.341 200.534C742.341 201.22 742.493 201.838 742.798 202.385C743.108 202.933 743.548 203.368 744.118 203.689C744.693 204.01 745.299 204.17 745.936 204.17C746.561 204.17 747.147 204.01 747.695 203.689C748.249 203.362 748.689 202.908 749.015 202.327C749.342 201.746 749.505 201.137 749.505 200.501C749.505 199.859 749.342 199.25 749.015 198.675C748.694 198.099 748.26 197.654 747.712 197.339C747.164 197.018 746.566 196.857 745.919 196.857ZM757.133 195.736C758.522 195.736 759.673 196.24 760.586 197.247C761.417 198.166 761.832 199.253 761.832 200.509C761.832 201.771 761.392 202.875 760.512 203.821C759.637 204.762 758.511 205.233 757.133 205.233C755.75 205.233 754.618 204.762 753.738 203.821C752.864 202.875 752.427 201.771 752.427 200.509C752.427 199.259 752.842 198.174 753.672 197.255C754.585 196.243 755.739 195.736 757.133 195.736ZM757.133 196.874C756.17 196.874 755.343 197.231 754.651 197.944C753.96 198.658 753.614 199.522 753.614 200.534C753.614 201.187 753.771 201.796 754.087 202.36C754.402 202.925 754.828 203.362 755.365 203.672C755.902 203.976 756.491 204.129 757.133 204.129C757.775 204.129 758.365 203.976 758.901 203.672C759.438 203.362 759.864 202.925 760.18 202.36C760.495 201.796 760.653 201.187 760.653 200.534C760.653 199.522 760.304 198.658 759.607 197.944C758.915 197.231 758.091 196.874 757.133 196.874ZM765.16 195.969V202.651L771.792 195.969H771.884V205H770.722V198.376L764.139 205H763.998V195.969H765.16ZM765.002 192.341H766.098C766.286 192.629 766.538 192.845 766.854 192.989C767.169 193.133 767.545 193.205 767.982 193.205C768.425 193.205 768.782 193.141 769.053 193.014C769.324 192.887 769.582 192.662 769.825 192.341H770.888C770.766 192.839 770.453 193.257 769.95 193.595C769.452 193.927 768.793 194.093 767.974 194.093C767.161 194.093 766.497 193.93 765.982 193.603C765.467 193.271 765.141 192.851 765.002 192.341ZM783.239 197.845L782.318 198.418C781.521 197.361 780.434 196.832 779.056 196.832C777.954 196.832 777.039 197.186 776.308 197.895C775.583 198.603 775.221 199.464 775.221 200.476C775.221 201.135 775.387 201.755 775.719 202.336C776.056 202.917 776.516 203.368 777.097 203.689C777.683 204.01 778.339 204.17 779.064 204.17C780.392 204.17 781.477 203.642 782.318 202.585L783.239 203.191C782.808 203.838 782.227 204.342 781.496 204.701C780.771 205.055 779.944 205.233 779.014 205.233C777.586 205.233 776.402 204.779 775.461 203.871C774.521 202.964 774.05 201.86 774.05 200.559C774.05 199.685 774.269 198.874 774.706 198.127C775.149 197.374 775.755 196.788 776.524 196.367C777.293 195.947 778.154 195.736 779.105 195.736C779.703 195.736 780.279 195.828 780.832 196.01C781.391 196.193 781.864 196.431 782.251 196.724C782.639 197.018 782.968 197.391 783.239 197.845ZM784.468 195.969H790.411V196.973H788.021V205H786.85V196.973H784.468V195.969ZM794.611 205H791.988V195.969H794.57C795.555 195.969 796.263 196.196 796.695 196.65C797.132 197.103 797.351 197.635 797.351 198.243C797.351 199.162 796.947 199.784 796.139 200.111C797.312 200.526 797.898 201.326 797.898 202.51C797.898 204.17 796.803 205 794.611 205ZM793.159 196.973V199.796H793.914C794.6 199.796 795.049 199.768 795.259 199.713C795.469 199.657 795.666 199.522 795.848 199.306C796.036 199.084 796.13 198.794 796.13 198.434C796.13 198.058 796.034 197.742 795.84 197.488C795.646 197.233 795.441 197.084 795.226 197.04C795.015 196.995 794.578 196.973 793.914 196.973H793.159ZM793.159 200.858V204.021H794.404C794.99 204.021 795.408 203.985 795.657 203.913C795.912 203.835 796.128 203.672 796.305 203.423C796.487 203.174 796.579 202.859 796.579 202.477C796.579 201.984 796.424 201.591 796.114 201.298C795.804 201.005 795.394 200.858 794.885 200.858H793.159ZM807.544 202.004L808.523 202.518C808.202 203.149 807.832 203.658 807.411 204.046C806.991 204.433 806.517 204.729 805.992 204.934C805.466 205.133 804.871 205.233 804.207 205.233C802.735 205.233 801.584 204.751 800.754 203.788C799.924 202.82 799.509 201.727 799.509 200.509C799.509 199.364 799.86 198.343 800.563 197.446C801.454 196.306 802.646 195.736 804.141 195.736C805.679 195.736 806.908 196.32 807.826 197.488C808.479 198.312 808.811 199.342 808.822 200.576H800.704C800.726 201.627 801.061 202.491 801.708 203.166C802.356 203.835 803.156 204.17 804.107 204.17C804.567 204.17 805.012 204.09 805.444 203.929C805.881 203.769 806.252 203.556 806.556 203.29C806.861 203.025 807.19 202.596 807.544 202.004ZM807.544 199.571C807.389 198.952 807.162 198.456 806.863 198.086C806.57 197.715 806.18 197.416 805.693 197.189C805.206 196.962 804.694 196.849 804.157 196.849C803.272 196.849 802.511 197.134 801.875 197.704C801.41 198.119 801.058 198.741 800.82 199.571H807.544Z" fill="black"/>
<path d="M961.042 150.043H973.97V168H970.515V153.242H964.509V168H961.042V150.043ZM983.943 154.377C985.196 154.377 986.372 154.69 987.471 155.317C988.577 155.944 989.44 156.794 990.059 157.868C990.677 158.942 990.986 160.102 990.986 161.347C990.986 162.6 990.673 163.772 990.046 164.863C989.428 165.953 988.582 166.808 987.507 167.426C986.433 168.037 985.249 168.342 983.955 168.342C982.051 168.342 980.423 167.666 979.072 166.315C977.729 164.956 977.058 163.308 977.058 161.372C977.058 159.296 977.819 157.567 979.341 156.184C980.675 154.979 982.209 154.377 983.943 154.377ZM983.992 157.514C982.958 157.514 982.096 157.876 981.404 158.601C980.72 159.317 980.378 160.236 980.378 161.359C980.378 162.515 980.716 163.451 981.392 164.167C982.075 164.883 982.938 165.241 983.979 165.241C985.021 165.241 985.888 164.879 986.58 164.155C987.271 163.431 987.617 162.499 987.617 161.359C987.617 160.22 987.275 159.296 986.592 158.588C985.916 157.872 985.05 157.514 983.992 157.514ZM997.029 154.719V156.184C997.631 155.581 998.282 155.13 998.982 154.829C999.682 154.528 1000.43 154.377 1001.23 154.377C1002.96 154.377 1004.43 155.032 1005.65 156.342C1006.86 157.653 1007.47 159.333 1007.47 161.384C1007.47 163.361 1006.84 165.017 1005.59 166.352C1004.33 167.679 1002.85 168.342 1001.13 168.342C1000.37 168.342 999.653 168.208 998.994 167.939C998.335 167.662 997.68 167.215 997.029 166.596V172.858H993.721V154.719H997.029ZM1000.53 157.453C999.482 157.453 998.612 157.811 997.92 158.527C997.228 159.243 996.882 160.179 996.882 161.335C996.882 162.515 997.228 163.471 997.92 164.204C998.612 164.928 999.482 165.29 1000.53 165.29C1001.55 165.29 1002.4 164.92 1003.1 164.179C1003.8 163.439 1004.15 162.495 1004.15 161.347C1004.15 160.208 1003.8 159.276 1003.12 158.552C1002.44 157.819 1001.57 157.453 1000.53 157.453ZM1009.04 154.719H1021.42V157.893H1017.01V168H1013.67V157.893H1009.04V154.719ZM1032.87 166.865C1031.7 167.874 1030.44 168.378 1029.06 168.378C1027.39 168.378 1025.94 167.719 1024.71 166.401C1023.49 165.074 1022.87 163.418 1022.87 161.433C1022.87 159.357 1023.47 157.673 1024.67 156.379C1025.86 155.077 1027.3 154.426 1028.97 154.426C1030.47 154.426 1031.77 154.934 1032.87 155.952V149.592H1036.18V155.952C1037.28 154.902 1038.57 154.377 1040.07 154.377C1041.14 154.377 1042.13 154.658 1043.05 155.219C1043.97 155.781 1044.72 156.586 1045.3 157.636C1045.87 158.686 1046.16 159.935 1046.16 161.384C1046.16 163.41 1045.54 165.078 1044.29 166.389C1043.06 167.691 1041.62 168.342 1039.99 168.342C1038.61 168.342 1037.34 167.849 1036.18 166.865V172.858H1032.87V166.865ZM1042.83 161.359C1042.83 160.228 1042.51 159.3 1041.87 158.576C1041.22 157.844 1040.39 157.478 1039.38 157.478C1038.5 157.478 1037.73 157.827 1037.07 158.527C1036.42 159.219 1036.09 160.208 1036.09 161.494C1036.09 162.69 1036.4 163.626 1037.03 164.301C1037.67 164.977 1038.45 165.314 1039.39 165.314C1040.36 165.314 1041.17 164.944 1041.83 164.204C1042.5 163.455 1042.83 162.507 1042.83 161.359ZM1032.97 161.481C1032.97 160.611 1032.82 159.899 1032.53 159.345C1032.23 158.784 1031.84 158.336 1031.34 158.002C1030.85 157.669 1030.3 157.502 1029.67 157.502C1028.6 157.502 1027.75 157.884 1027.14 158.649C1026.53 159.406 1026.23 160.318 1026.23 161.384C1026.23 162.523 1026.56 163.467 1027.22 164.216C1027.88 164.965 1028.69 165.339 1029.66 165.339C1030.59 165.339 1031.38 165.005 1032.01 164.338C1032.65 163.662 1032.97 162.71 1032.97 161.481ZM1055.04 154.377C1056.29 154.377 1057.47 154.69 1058.56 155.317C1059.67 155.944 1060.53 156.794 1061.15 157.868C1061.77 158.942 1062.08 160.102 1062.08 161.347C1062.08 162.6 1061.77 163.772 1061.14 164.863C1060.52 165.953 1059.68 166.808 1058.6 167.426C1057.53 168.037 1056.34 168.342 1055.05 168.342C1053.14 168.342 1051.52 167.666 1050.17 166.315C1048.82 164.956 1048.15 163.308 1048.15 161.372C1048.15 159.296 1048.91 157.567 1050.43 156.184C1051.77 154.979 1053.3 154.377 1055.04 154.377ZM1055.09 157.514C1054.05 157.514 1053.19 157.876 1052.5 158.601C1051.81 159.317 1051.47 160.236 1051.47 161.359C1051.47 162.515 1051.81 163.451 1052.49 164.167C1053.17 164.883 1054.03 165.241 1055.07 165.241C1056.11 165.241 1056.98 164.879 1057.67 164.155C1058.37 163.431 1058.71 162.499 1058.71 161.359C1058.71 160.22 1058.37 159.296 1057.69 158.588C1057.01 157.872 1056.14 157.514 1055.09 157.514ZM1076.68 168H1073.29L1069.97 159.614L1066.58 168H1063.2L1068.87 154.719H1071.02L1076.68 168ZM1080.2 168H1078.43V154.719H1081.67V162.519L1088.47 154.719H1090.07V168H1086.82V160.358L1080.2 168ZM1099.69 154.377C1100.94 154.377 1102.12 154.69 1103.22 155.317C1104.32 155.944 1105.19 156.794 1105.81 157.868C1106.42 158.942 1106.73 160.102 1106.73 161.347C1106.73 162.6 1106.42 163.772 1105.79 164.863C1105.17 165.953 1104.33 166.808 1103.25 167.426C1102.18 168.037 1101 168.342 1099.7 168.342C1097.8 168.342 1096.17 167.666 1094.82 166.315C1093.48 164.956 1092.81 163.308 1092.81 161.372C1092.81 159.296 1093.57 157.567 1095.09 156.184C1096.42 154.979 1097.96 154.377 1099.69 154.377ZM1099.74 157.514C1098.71 157.514 1097.84 157.876 1097.15 158.601C1096.47 159.317 1096.13 160.236 1096.13 161.359C1096.13 162.515 1096.46 163.451 1097.14 164.167C1097.82 164.883 1098.68 165.241 1099.73 165.241C1100.77 165.241 1101.63 164.879 1102.33 164.155C1103.02 163.431 1103.36 162.499 1103.36 161.359C1103.36 160.22 1103.02 159.296 1102.34 158.588C1101.66 157.872 1100.8 157.514 1099.74 157.514Z" fill="black"/>
<path d="M962.374 204.012L965.86 195.969H966.466L969.927 204.012H971.015V206.154H969.894V205H962.423V206.204H961.278V204.012H962.374ZM966.142 197.762L963.502 204.012H968.674L966.142 197.762ZM980.237 205H979L975.979 198.426L972.982 205H971.737L975.871 195.969H976.078L980.237 205ZM985.832 200.958H985.001L982.428 205H981.175L983.889 200.841C983.214 200.758 982.666 200.504 982.246 200.078C981.825 199.646 981.615 199.112 981.615 198.476C981.615 197.679 981.855 197.062 982.337 196.625C982.824 196.187 983.46 195.969 984.246 195.969H986.994V205H985.832V200.958ZM985.832 196.973H985.068C984.326 196.973 983.828 197.02 983.574 197.114C983.319 197.208 983.117 197.372 982.968 197.604C982.818 197.831 982.744 198.138 982.744 198.526C982.744 198.896 982.84 199.203 983.034 199.447C983.228 199.685 983.444 199.832 983.682 199.887C983.92 199.942 984.382 199.97 985.068 199.97H985.832V196.973ZM1003.07 197.845L1002.15 198.418C1001.35 197.361 1000.27 196.832 998.889 196.832C997.787 196.832 996.872 197.186 996.141 197.895C995.416 198.603 995.054 199.464 995.054 200.476C995.054 201.135 995.22 201.755 995.552 202.336C995.889 202.917 996.349 203.368 996.93 203.689C997.516 204.01 998.172 204.17 998.897 204.17C1000.23 204.17 1001.31 203.642 1002.15 202.585L1003.07 203.191C1002.64 203.838 1002.06 204.342 1001.33 204.701C1000.6 205.055 999.777 205.233 998.847 205.233C997.419 205.233 996.235 204.779 995.294 203.871C994.354 202.964 993.883 201.86 993.883 200.559C993.883 199.685 994.102 198.874 994.539 198.127C994.982 197.374 995.588 196.788 996.357 196.367C997.126 195.947 997.987 195.736 998.938 195.736C999.536 195.736 1000.11 195.828 1000.67 196.01C1001.22 196.193 1001.7 196.431 1002.08 196.724C1002.47 197.018 1002.8 197.391 1003.07 197.845ZM1004.3 195.969H1010.24V196.973H1007.85V205H1006.68V196.973H1004.3V195.969ZM1020.82 195.969V205H1019.67V203.448C1019.19 204.04 1018.64 204.485 1018.03 204.784C1017.43 205.083 1016.77 205.233 1016.05 205.233C1014.77 205.233 1013.68 204.77 1012.77 203.846C1011.87 202.917 1011.41 201.788 1011.41 200.46C1011.41 199.159 1011.87 198.047 1012.78 197.123C1013.7 196.199 1014.8 195.736 1016.08 195.736C1016.82 195.736 1017.49 195.894 1018.09 196.21C1018.69 196.525 1019.22 196.998 1019.67 197.629V195.969H1020.82ZM1016.17 196.857C1015.52 196.857 1014.93 197.018 1014.38 197.339C1013.83 197.654 1013.39 198.099 1013.07 198.675C1012.75 199.25 1012.58 199.859 1012.58 200.501C1012.58 201.137 1012.75 201.746 1013.07 202.327C1013.4 202.908 1013.84 203.362 1014.39 203.689C1014.94 204.01 1015.53 204.17 1016.16 204.17C1016.8 204.17 1017.4 204.01 1017.97 203.689C1018.54 203.368 1018.98 202.933 1019.28 202.385C1019.59 201.838 1019.75 201.22 1019.75 200.534C1019.75 199.488 1019.4 198.614 1018.71 197.911C1018.02 197.208 1017.18 196.857 1016.17 196.857ZM1023.46 195.969H1024.61V197.629C1025.07 196.998 1025.6 196.525 1026.2 196.21C1026.8 195.894 1027.46 195.736 1028.2 195.736C1029.48 195.736 1030.58 196.199 1031.49 197.123C1032.41 198.047 1032.86 199.159 1032.86 200.46C1032.86 201.788 1032.41 202.917 1031.5 203.846C1030.6 204.77 1029.51 205.233 1028.23 205.233C1027.51 205.233 1026.85 205.083 1026.25 204.784C1025.64 204.485 1025.1 204.04 1024.61 203.448V208.304H1023.46V195.969ZM1028.11 196.857C1027.1 196.857 1026.25 197.208 1025.56 197.911C1024.87 198.614 1024.53 199.488 1024.53 200.534C1024.53 201.22 1024.68 201.838 1024.99 202.385C1025.3 202.933 1025.74 203.368 1026.31 203.689C1026.88 204.01 1027.49 204.17 1028.12 204.17C1028.75 204.17 1029.34 204.01 1029.88 203.689C1030.44 203.362 1030.88 202.908 1031.2 202.327C1031.53 201.746 1031.69 201.137 1031.69 200.501C1031.69 199.859 1031.53 199.25 1031.2 198.675C1030.88 198.099 1030.45 197.654 1029.9 197.339C1029.35 197.018 1028.75 196.857 1028.11 196.857ZM1034.03 195.969H1039.98V196.973H1037.59V205H1036.42V196.973H1034.03V195.969ZM1050.55 195.969V205H1049.41V203.448C1048.92 204.04 1048.37 204.485 1047.76 204.784C1047.16 205.083 1046.5 205.233 1045.78 205.233C1044.5 205.233 1043.41 204.77 1042.5 203.846C1041.6 202.917 1041.15 201.788 1041.15 200.46C1041.15 199.159 1041.6 198.047 1042.52 197.123C1043.43 196.199 1044.53 195.736 1045.81 195.736C1046.55 195.736 1047.22 195.894 1047.82 196.21C1048.42 196.525 1048.95 196.998 1049.41 197.629V195.969H1050.55ZM1045.9 196.857C1045.26 196.857 1044.66 197.018 1044.11 197.339C1043.56 197.654 1043.13 198.099 1042.8 198.675C1042.48 199.25 1042.32 199.859 1042.32 200.501C1042.32 201.137 1042.48 201.746 1042.81 202.327C1043.13 202.908 1043.57 203.362 1044.12 203.689C1044.67 204.01 1045.27 204.17 1045.9 204.17C1046.53 204.17 1047.14 204.01 1047.71 203.689C1048.28 203.368 1048.71 202.933 1049.02 202.385C1049.33 201.838 1049.48 201.22 1049.48 200.534C1049.48 199.488 1049.14 198.614 1048.44 197.911C1047.76 197.208 1046.91 196.857 1045.9 196.857ZM1057.89 195.969H1059.06V199.771L1063.24 195.969H1064.85L1060.28 200.103L1065.22 205H1063.58L1059.43 200.825L1059.06 201.149V205H1057.89V195.969ZM1075.42 195.969V205H1074.28V203.448C1073.79 204.04 1073.24 204.485 1072.63 204.784C1072.03 205.083 1071.37 205.233 1070.65 205.233C1069.37 205.233 1068.28 204.77 1067.37 203.846C1066.47 202.917 1066.02 201.788 1066.02 200.46C1066.02 199.159 1066.47 198.047 1067.39 197.123C1068.3 196.199 1069.4 195.736 1070.68 195.736C1071.42 195.736 1072.09 195.894 1072.69 196.21C1073.29 196.525 1073.82 196.998 1074.28 197.629V195.969H1075.42ZM1070.77 196.857C1070.13 196.857 1069.53 197.018 1068.98 197.339C1068.43 197.654 1068 198.099 1067.67 198.675C1067.35 199.25 1067.19 199.859 1067.19 200.501C1067.19 201.137 1067.35 201.746 1067.68 202.327C1068 202.908 1068.44 203.362 1068.99 203.689C1069.54 204.01 1070.13 204.17 1070.77 204.17C1071.4 204.17 1072 204.01 1072.57 203.689C1073.14 203.368 1073.58 202.933 1073.89 202.385C1074.2 201.838 1074.35 201.22 1074.35 200.534C1074.35 199.488 1074.01 198.614 1073.31 197.911C1072.63 197.208 1071.78 196.857 1070.77 196.857ZM1078.06 195.969H1079.22V197.629C1079.67 196.998 1080.2 196.525 1080.8 196.21C1081.4 195.894 1082.07 195.736 1082.8 195.736C1084.09 195.736 1085.18 196.199 1086.1 197.123C1087.01 198.047 1087.47 199.159 1087.47 200.46C1087.47 201.788 1087.01 202.917 1086.1 203.846C1085.2 204.77 1084.11 205.233 1082.83 205.233C1082.12 205.233 1081.45 205.083 1080.85 204.784C1080.25 204.485 1079.7 204.04 1079.22 203.448V208.304H1078.06V195.969ZM1082.71 196.857C1081.7 196.857 1080.85 197.208 1080.16 197.911C1079.48 198.614 1079.13 199.488 1079.13 200.534C1079.13 201.22 1079.28 201.838 1079.59 202.385C1079.9 202.933 1080.34 203.368 1080.91 203.689C1081.48 204.01 1082.09 204.17 1082.73 204.17C1083.35 204.17 1083.94 204.01 1084.49 203.689C1085.04 203.362 1085.48 202.908 1085.81 202.327C1086.13 201.746 1086.3 201.137 1086.3 200.501C1086.3 199.859 1086.13 199.25 1085.81 198.675C1085.49 198.099 1085.05 197.654 1084.5 197.339C1083.96 197.018 1083.36 196.857 1082.71 196.857ZM1090.8 199.547H1091.91C1092.79 199.547 1093.48 199.616 1093.97 199.754C1094.47 199.892 1094.9 200.2 1095.26 200.675C1095.62 201.146 1095.8 201.688 1095.8 202.302C1095.8 203.044 1095.54 203.68 1095.02 204.212C1094.5 204.737 1093.71 205 1092.65 205H1089.65V195.969H1090.8V199.547ZM1090.84 200.609V204.021H1092.18C1093.75 204.021 1094.54 203.467 1094.54 202.36C1094.54 202.045 1094.45 201.735 1094.28 201.431C1094.12 201.126 1093.87 200.913 1093.54 200.792C1093.22 200.67 1092.65 200.609 1091.83 200.609H1090.84ZM1105.27 202.004L1106.25 202.518C1105.93 203.149 1105.56 203.658 1105.14 204.046C1104.72 204.433 1104.24 204.729 1103.72 204.934C1103.19 205.133 1102.6 205.233 1101.93 205.233C1100.46 205.233 1099.31 204.751 1098.48 203.788C1097.65 202.82 1097.24 201.727 1097.24 200.509C1097.24 199.364 1097.59 198.343 1098.29 197.446C1099.18 196.306 1100.37 195.736 1101.87 195.736C1103.41 195.736 1104.64 196.32 1105.55 197.488C1106.21 198.312 1106.54 199.342 1106.55 200.576H1098.43C1098.45 201.627 1098.79 202.491 1099.44 203.166C1100.08 203.835 1100.88 204.17 1101.83 204.17C1102.29 204.17 1102.74 204.09 1103.17 203.929C1103.61 203.769 1103.98 203.556 1104.28 203.29C1104.59 203.025 1104.92 202.596 1105.27 202.004ZM1105.27 199.571C1105.12 198.952 1104.89 198.456 1104.59 198.086C1104.3 197.715 1103.91 197.416 1103.42 197.189C1102.93 196.962 1102.42 196.849 1101.88 196.849C1101 196.849 1100.24 197.134 1099.6 197.704C1099.14 198.119 1098.79 198.741 1098.55 199.571H1105.27ZM1108.74 195.969H1109.9V197.629C1110.35 196.998 1110.88 196.525 1111.48 196.21C1112.08 195.894 1112.74 195.736 1113.48 195.736C1114.76 195.736 1115.86 196.199 1116.78 197.123C1117.69 198.047 1118.15 199.159 1118.15 200.46C1118.15 201.788 1117.69 202.917 1116.78 203.846C1115.88 204.77 1114.79 205.233 1113.51 205.233C1112.79 205.233 1112.13 205.083 1111.53 204.784C1110.93 204.485 1110.38 204.04 1109.9 203.448V208.304H1108.74V195.969ZM1113.39 196.857C1112.38 196.857 1111.53 197.208 1110.84 197.911C1110.16 198.614 1109.81 199.488 1109.81 200.534C1109.81 201.22 1109.96 201.838 1110.27 202.385C1110.58 202.933 1111.02 203.368 1111.59 203.689C1112.16 204.01 1112.77 204.17 1113.41 204.17C1114.03 204.17 1114.62 204.01 1115.17 203.689C1115.72 203.362 1116.16 202.908 1116.49 202.327C1116.81 201.746 1116.98 201.137 1116.98 200.501C1116.98 199.859 1116.81 199.25 1116.49 198.675C1116.16 198.099 1115.73 197.654 1115.18 197.339C1114.63 197.018 1114.04 196.857 1113.39 196.857ZM1121.48 199.547H1122.59C1123.47 199.547 1124.16 199.616 1124.65 199.754C1125.15 199.892 1125.58 200.2 1125.94 200.675C1126.3 201.146 1126.48 201.688 1126.48 202.302C1126.48 203.044 1126.22 203.68 1125.7 204.212C1125.18 204.737 1124.39 205 1123.33 205H1120.33V195.969H1121.48V199.547ZM1121.52 200.609V204.021H1122.86C1124.43 204.021 1125.22 203.467 1125.22 202.36C1125.22 202.045 1125.13 201.735 1124.96 201.431C1124.79 201.126 1124.55 200.913 1124.22 200.792C1123.9 200.67 1123.33 200.609 1122.51 200.609H1121.52ZM1128.08 195.969H1129.25V205H1128.08V195.969Z" fill="black"/>
</svg>
