<svg width="1200" height="117" viewBox="0 0 1200 117" fill="none" xmlns="http://www.w3.org/2000/svg">
<path d="M18.5566 13.205L16.1641 15.4877C14.5365 13.7705 12.7054 12.912 10.6709 12.912C8.95378 12.912 7.50521 13.4979 6.3252 14.6698C5.15332 15.8417 4.56738 17.2862 4.56738 19.0033C4.56738 20.1996 4.8278 21.2616 5.34863 22.1893C5.86947 23.1171 6.60596 23.8454 7.55811 24.3744C8.51025 24.9034 9.5682 25.1678 10.7319 25.1678C11.7248 25.1678 12.6322 24.9847 13.4541 24.6185C14.276 24.2442 15.1794 23.5687 16.1641 22.5922L18.4834 25.0092C17.1569 26.3031 15.9036 27.2024 14.7236 27.7069C13.5436 28.2033 12.1968 28.4515 10.6831 28.4515C7.89176 28.4515 5.60498 27.5686 3.82275 25.8026C2.04867 24.0285 1.16162 21.758 1.16162 18.9911C1.16162 17.2007 1.56445 15.6097 2.37012 14.2181C3.18392 12.8265 4.34359 11.7076 5.84912 10.8612C7.36279 10.0149 8.9904 9.59167 10.7319 9.59167C12.2131 9.59167 13.6372 9.90499 15.0044 10.5316C16.3797 11.1582 17.5638 12.0494 18.5566 13.205ZM20.0093 14.7186H32.3872V17.8925H27.9805V27.9999H24.6357V17.8925H20.0093V14.7186ZM40.8101 14.3768C42.0633 14.3768 43.2393 14.6901 44.3379 15.3168C45.4447 15.9434 46.3073 16.7938 46.9258 17.868C47.5443 18.9423 47.8535 20.1019 47.8535 21.347C47.8535 22.6003 47.5402 23.7722 46.9136 24.8627C46.2951 25.9532 45.4487 26.8077 44.3745 27.4261C43.3003 28.0365 42.1162 28.3417 40.8223 28.3417C38.918 28.3417 37.2904 27.6662 35.9395 26.3153C34.5967 24.9563 33.9253 23.3083 33.9253 21.3715C33.9253 19.2963 34.6862 17.5669 36.208 16.1835C37.5426 14.979 39.0767 14.3768 40.8101 14.3768ZM40.8589 17.514C39.8254 17.514 38.9627 17.8762 38.271 18.6005C37.5874 19.3166 37.2456 20.2362 37.2456 21.3593C37.2456 22.5149 37.5833 23.4507 38.2588 24.1669C38.9424 24.883 39.805 25.2411 40.8467 25.2411C41.8883 25.2411 42.755 24.8789 43.4468 24.1547C44.1385 23.4304 44.4844 22.4986 44.4844 21.3593C44.4844 20.2199 44.1426 19.2963 43.459 18.5883C42.7835 17.8721 41.9168 17.514 40.8589 17.514ZM52.3457 27.9999H50.5757V14.7186H53.8228V22.5189L60.6221 14.7186H62.2212V27.9999H58.9741V20.3583L52.3457 27.9999ZM73.7324 23.0927L77.8096 14.7186H80.0068L83.3271 27.9999H80.0679L78.2979 20.2118L74.3428 27.9999H72.9756L69.106 20.2118L67.3237 27.9999H64.0767L67.397 14.7186H69.5942L73.7324 23.0927ZM91.4204 14.3768C92.6737 14.3768 93.8496 14.6901 94.9482 15.3168C96.055 15.9434 96.9176 16.7938 97.5361 17.868C98.1546 18.9423 98.4639 20.1019 98.4639 21.347C98.4639 22.6003 98.1506 23.7722 97.5239 24.8627C96.9054 25.9532 96.0591 26.8077 94.9849 27.4261C93.9106 28.0365 92.7266 28.3417 91.4326 28.3417C89.5283 28.3417 87.9007 27.6662 86.5498 26.3153C85.207 24.9563 84.5356 23.3083 84.5356 21.3715C84.5356 19.2963 85.2965 17.5669 86.8184 16.1835C88.153 14.979 89.687 14.3768 91.4204 14.3768ZM91.4692 17.514C90.4357 17.514 89.5731 17.8762 88.8813 18.6005C88.1978 19.3166 87.856 20.2362 87.856 21.3593C87.856 22.5149 88.1937 23.4507 88.8691 24.1669C89.5527 24.883 90.4154 25.2411 91.457 25.2411C92.4987 25.2411 93.3654 24.8789 94.0571 24.1547C94.7489 23.4304 95.0947 22.4986 95.0947 21.3593C95.0947 20.2199 94.7529 19.2963 94.0693 18.5883C93.3939 17.8721 92.5272 17.514 91.4692 17.514ZM114.199 17.4042L111.428 18.9301C110.907 18.3848 110.39 18.0064 109.877 17.7948C109.373 17.5832 108.779 17.4774 108.095 17.4774C106.85 17.4774 105.841 17.8518 105.068 18.6005C104.303 19.341 103.92 20.2932 103.92 21.4569C103.92 22.5881 104.291 23.5118 105.031 24.2279C105.772 24.9441 106.744 25.3021 107.949 25.3021C109.438 25.3021 110.598 24.7935 111.428 23.7762L114.052 25.5707C112.628 27.418 110.618 28.3417 108.022 28.3417C105.686 28.3417 103.855 27.6499 102.529 26.2665C101.21 24.883 100.551 23.2635 100.551 21.4081C100.551 20.1223 100.873 18.9382 101.516 17.8558C102.159 16.7735 103.054 15.9231 104.201 15.3046C105.357 14.6861 106.647 14.3768 108.071 14.3768C109.389 14.3768 110.573 14.6413 111.623 15.1703C112.673 15.6911 113.531 16.4358 114.199 17.4042ZM116.03 14.7186H128.408V17.8925H124.001V27.9999H120.656V17.8925H116.03V14.7186ZM133.925 19.5038H134.914C136.306 19.5038 137.372 19.6136 138.112 19.8334C138.861 20.045 139.492 20.4926 140.004 21.1761C140.517 21.8597 140.773 22.7183 140.773 23.7518C140.773 24.7772 140.542 25.6317 140.078 26.3153C139.614 26.9908 139.02 27.4424 138.295 27.6703C137.579 27.89 136.57 27.9999 135.268 27.9999H130.581V14.7186H133.925V19.5038ZM133.925 25.4364H134.938C135.541 25.4364 135.976 25.3957 136.245 25.3143C136.513 25.2248 136.749 25.058 136.953 24.8138C137.156 24.5697 137.258 24.2727 137.258 23.9227C137.258 22.7834 136.607 22.2137 135.305 22.2137H133.925V25.4364ZM150.344 14.7186H153.676V19.6869L158.266 14.7186H162.331L156.411 21.1884L162.404 27.9999H157.985L154.03 23.3124L153.676 23.7274V27.9999H150.344V14.7186ZM162.294 14.7186H165.7L169.155 23.056L172.963 14.7186H176.381L168.056 32.8583H164.614L167.348 27.0111L162.294 14.7186ZM181.582 14.7186V16.1835C182.184 15.5813 182.835 15.1296 183.535 14.8285C184.235 14.5274 184.983 14.3768 185.781 14.3768C187.514 14.3768 188.987 15.0319 190.2 16.3422C191.412 17.6524 192.019 19.3329 192.019 21.3837C192.019 23.3612 191.392 25.0173 190.139 26.3519C188.885 27.6784 187.4 28.3417 185.683 28.3417C184.918 28.3417 184.206 28.2074 183.547 27.9388C182.888 27.6622 182.233 27.2146 181.582 26.5961V32.8583H178.273V14.7186H181.582ZM185.085 17.453C184.035 17.453 183.164 17.8111 182.473 18.5272C181.781 19.2434 181.435 20.1792 181.435 21.3348C181.435 22.5149 181.781 23.4711 182.473 24.2035C183.164 24.9278 184.035 25.2899 185.085 25.2899C186.102 25.2899 186.957 24.9196 187.648 24.1791C188.348 23.4385 188.698 22.4945 188.698 21.347C188.698 20.2077 188.356 19.2759 187.673 18.5516C186.989 17.8192 186.127 17.453 185.085 17.453ZM207.778 17.4042L205.007 18.9301C204.486 18.3848 203.969 18.0064 203.457 17.7948C202.952 17.5832 202.358 17.4774 201.674 17.4774C200.429 17.4774 199.42 17.8518 198.647 18.6005C197.882 19.341 197.5 20.2932 197.5 21.4569C197.5 22.5881 197.87 23.5118 198.61 24.2279C199.351 24.9441 200.323 25.3021 201.528 25.3021C203.017 25.3021 204.177 24.7935 205.007 23.7762L207.631 25.5707C206.207 27.418 204.197 28.3417 201.601 28.3417C199.265 28.3417 197.434 27.6499 196.108 26.2665C194.79 24.883 194.13 23.2635 194.13 21.4081C194.13 20.1223 194.452 18.9382 195.095 17.8558C195.738 16.7735 196.633 15.9231 197.78 15.3046C198.936 14.6861 200.226 14.3768 201.65 14.3768C202.968 14.3768 204.152 14.6413 205.202 15.1703C206.252 15.6911 207.111 16.4358 207.778 17.4042ZM220.607 14.7186H223.928V27.9999H220.607V26.5961C219.956 27.2146 219.301 27.6622 218.642 27.9388C217.991 28.2074 217.283 28.3417 216.518 28.3417C214.801 28.3417 213.316 27.6784 212.062 26.3519C210.809 25.0173 210.183 23.3612 210.183 21.3837C210.183 19.3329 210.789 17.6524 212.001 16.3422C213.214 15.0319 214.687 14.3768 216.42 14.3768C217.218 14.3768 217.967 14.5274 218.667 14.8285C219.366 15.1296 220.013 15.5813 220.607 16.1835V14.7186ZM217.104 17.453C216.07 17.453 215.212 17.8192 214.528 18.5516C213.845 19.2759 213.503 20.2077 213.503 21.347C213.503 22.4945 213.849 23.4385 214.541 24.1791C215.24 24.9196 216.099 25.2899 217.116 25.2899C218.166 25.2899 219.037 24.9278 219.729 24.2035C220.42 23.4711 220.766 22.5149 220.766 21.3348C220.766 20.1792 220.42 19.2434 219.729 18.5272C219.037 17.8111 218.162 17.453 217.104 17.453Z" fill="black"/>
<path d="M7.26514 63.3842C7.81852 63.7383 8.24463 64.1949 8.54346 64.7538C8.84782 65.3072 9 65.9076 9 66.5551C9 67.2579 8.82292 67.9081 8.46875 68.5057C8.12012 69.1034 7.64974 69.5544 7.05762 69.8588C6.46549 70.1576 5.71012 70.307 4.7915 70.307C3.80648 70.307 3.02344 70.1631 2.44238 69.8754C1.86133 69.5821 1.39648 69.1421 1.04785 68.5555C0.699219 67.9634 0.524902 67.2966 0.524902 66.5551C0.524902 65.9131 0.663249 65.3293 0.939941 64.8036C1.22217 64.2723 1.64274 63.7992 2.20166 63.3842C1.83643 63.0134 1.55973 62.6205 1.37158 62.2054C1.18896 61.7849 1.09766 61.3422 1.09766 60.8773C1.09766 60.2409 1.24984 59.6626 1.5542 59.1425C1.8641 58.6167 2.29574 58.21 2.84912 57.9222C3.40251 57.6289 4.04167 57.4823 4.7666 57.4823C5.48047 57.4823 6.10856 57.6289 6.65088 57.9222C7.1932 58.2155 7.6193 58.6333 7.9292 59.1757C8.24463 59.7124 8.40234 60.2907 8.40234 60.9105C8.40234 61.3477 8.31934 61.7544 8.15332 62.1307C7.99284 62.5015 7.69678 62.9193 7.26514 63.3842ZM4.69189 59.7235C4.31006 59.7235 3.99463 59.8508 3.74561 60.1053C3.50212 60.3544 3.38037 60.6753 3.38037 61.0682C3.38037 61.4611 3.51042 61.7904 3.77051 62.056C4.0306 62.3217 4.35156 62.4545 4.7334 62.4545C5.1263 62.4545 5.44727 62.3244 5.69629 62.0643C5.95085 61.8042 6.07812 61.4667 6.07812 61.0516C6.07812 60.6587 5.95085 60.3405 5.69629 60.097C5.44173 59.848 5.10693 59.7235 4.69189 59.7235ZM4.7832 64.621C4.22428 64.621 3.75391 64.7925 3.37207 65.1356C2.99023 65.4732 2.79932 65.8772 2.79932 66.3475C2.79932 66.84 2.97917 67.2579 3.33887 67.601C3.69857 67.9385 4.17171 68.1073 4.7583 68.1073C5.35042 68.1073 5.8208 67.9496 6.16943 67.6342C6.5236 67.3132 6.70068 66.9009 6.70068 66.3973C6.70068 65.8938 6.51807 65.4732 6.15283 65.1356C5.7876 64.7925 5.33105 64.621 4.7832 64.621ZM12.7603 60.8026H10.5273C10.6436 59.9006 10.9673 59.1757 11.4985 58.6278C12.2401 57.8641 13.1725 57.4823 14.2959 57.4823C15.2975 57.4823 16.1359 57.8005 16.811 58.4369C17.4917 59.0733 17.832 59.8287 17.832 60.703C17.832 61.2453 17.6826 61.7406 17.3838 62.1888C17.0905 62.6371 16.6616 62.9996 16.0972 63.2762C16.8387 63.4976 17.417 63.885 17.832 64.4384C18.2526 64.9862 18.4629 65.6337 18.4629 66.3807C18.4629 67.4764 18.0589 68.4061 17.251 69.1698C16.443 69.9279 15.4137 70.307 14.1631 70.307C12.9788 70.307 12.0132 69.9501 11.2661 69.2362C10.519 68.5168 10.1095 67.5401 10.0376 66.306H12.3369C12.4365 66.9369 12.6551 67.4073 12.9927 67.7172C13.3358 68.0215 13.7674 68.1737 14.2876 68.1737C14.8299 68.1737 15.2782 67.9994 15.6323 67.6508C15.992 67.3021 16.1719 66.876 16.1719 66.3724C16.1719 65.8191 15.9312 65.3514 15.4497 64.9696C14.9683 64.5878 14.2738 64.3913 13.3662 64.3802V62.3881C13.9251 62.3438 14.3402 62.258 14.6113 62.1307C14.888 61.9979 15.1011 61.8181 15.2505 61.5912C15.4054 61.3643 15.4829 61.1236 15.4829 60.869C15.4829 60.537 15.3667 60.2631 15.1343 60.0472C14.9019 59.8259 14.5975 59.7152 14.2212 59.7152C13.8892 59.7152 13.5876 59.8176 13.3164 60.0223C13.0452 60.2216 12.8599 60.4816 12.7603 60.8026ZM23.7837 57.4823C24.6746 57.4823 25.4411 57.7009 26.083 58.1381C26.7305 58.5752 27.2285 59.2448 27.5771 60.1469C27.9313 61.0433 28.1084 62.294 28.1084 63.8988C28.1084 65.5202 27.9285 66.7819 27.5688 67.684C27.2147 68.586 26.736 69.25 26.1328 69.6761C25.5296 70.0967 24.7687 70.307 23.8501 70.307C22.9315 70.307 22.1595 70.094 21.5342 69.6678C20.9089 69.2417 20.4191 68.5943 20.0649 67.7255C19.7108 66.8566 19.5337 65.6198 19.5337 64.015C19.5337 61.7738 19.8796 60.1496 20.5713 59.1425C21.3405 58.0357 22.4113 57.4823 23.7837 57.4823ZM23.8418 59.6903C23.4489 59.6903 23.1003 59.8176 22.7959 60.0721C22.4915 60.3212 22.2591 60.7528 22.0986 61.3671C21.9382 61.9813 21.8579 62.8806 21.8579 64.0648C21.8579 65.6088 22.0405 66.6768 22.4058 67.2689C22.7765 67.8555 23.2552 68.1488 23.8418 68.1488C24.4062 68.1488 24.8545 67.8693 25.1865 67.3104C25.5905 66.6353 25.7925 65.5064 25.7925 63.9237C25.7925 62.3189 25.6099 61.2121 25.2446 60.6034C24.8849 59.9947 24.4173 59.6903 23.8418 59.6903ZM38.0776 57.4823C38.9686 57.4823 39.735 57.7009 40.377 58.1381C41.0244 58.5752 41.5225 59.2448 41.8711 60.1469C42.2253 61.0433 42.4023 62.294 42.4023 63.8988C42.4023 65.5202 42.2225 66.7819 41.8628 67.684C41.5086 68.586 41.0299 69.25 40.4268 69.6761C39.8236 70.0967 39.0627 70.307 38.144 70.307C37.2254 70.307 36.4535 70.094 35.8281 69.6678C35.2028 69.2417 34.7131 68.5943 34.3589 67.7255C34.0047 66.8566 33.8276 65.6198 33.8276 64.015C33.8276 61.7738 34.1735 60.1496 34.8652 59.1425C35.6344 58.0357 36.7052 57.4823 38.0776 57.4823ZM38.1357 59.6903C37.7428 59.6903 37.3942 59.8176 37.0898 60.0721C36.7855 60.3212 36.5531 60.7528 36.3926 61.3671C36.2321 61.9813 36.1519 62.8806 36.1519 64.0648C36.1519 65.6088 36.3345 66.6768 36.6997 67.2689C37.0705 67.8555 37.5492 68.1488 38.1357 68.1488C38.7002 68.1488 39.1484 67.8693 39.4805 67.3104C39.8844 66.6353 40.0864 65.5064 40.0864 63.9237C40.0864 62.3189 39.9038 61.2121 39.5386 60.6034C39.1789 59.9947 38.7113 59.6903 38.1357 59.6903ZM47.6069 57.4823C48.4979 57.4823 49.2643 57.7009 49.9062 58.1381C50.5537 58.5752 51.0518 59.2448 51.4004 60.1469C51.7546 61.0433 51.9316 62.294 51.9316 63.8988C51.9316 65.5202 51.7518 66.7819 51.3921 67.684C51.0379 68.586 50.5592 69.25 49.9561 69.6761C49.3529 70.0967 48.592 70.307 47.6733 70.307C46.7547 70.307 45.9827 70.094 45.3574 69.6678C44.7321 69.2417 44.2424 68.5943 43.8882 67.7255C43.534 66.8566 43.3569 65.6198 43.3569 64.015C43.3569 61.7738 43.7028 60.1496 44.3945 59.1425C45.1637 58.0357 46.2345 57.4823 47.6069 57.4823ZM47.665 59.6903C47.2721 59.6903 46.9235 59.8176 46.6191 60.0721C46.3148 60.3212 46.0824 60.7528 45.9219 61.3671C45.7614 61.9813 45.6812 62.8806 45.6812 64.0648C45.6812 65.6088 45.8638 66.6768 46.229 67.2689C46.5998 67.8555 47.0785 68.1488 47.665 68.1488C48.2295 68.1488 48.6777 67.8693 49.0098 67.3104C49.4137 66.6353 49.6157 65.5064 49.6157 63.9237C49.6157 62.3189 49.4331 61.2121 49.0679 60.6034C48.7082 59.9947 48.2406 59.6903 47.665 59.6903ZM57.1362 57.4823C58.0272 57.4823 58.7936 57.7009 59.4355 58.1381C60.083 58.5752 60.5811 59.2448 60.9297 60.1469C61.2839 61.0433 61.4609 62.294 61.4609 63.8988C61.4609 65.5202 61.2811 66.7819 60.9214 67.684C60.5672 68.586 60.0885 69.25 59.4854 69.6761C58.8822 70.0967 58.1213 70.307 57.2026 70.307C56.284 70.307 55.512 70.094 54.8867 69.6678C54.2614 69.2417 53.7716 68.5943 53.4175 67.7255C53.0633 66.8566 52.8862 65.6198 52.8862 64.015C52.8862 61.7738 53.2321 60.1496 53.9238 59.1425C54.693 58.0357 55.7638 57.4823 57.1362 57.4823ZM57.1943 59.6903C56.8014 59.6903 56.4528 59.8176 56.1484 60.0721C55.8441 60.3212 55.6117 60.7528 55.4512 61.3671C55.2907 61.9813 55.2104 62.8806 55.2104 64.0648C55.2104 65.6088 55.3931 66.6768 55.7583 67.2689C56.1291 67.8555 56.6077 68.1488 57.1943 68.1488C57.7588 68.1488 58.207 67.8693 58.5391 67.3104C58.943 66.6353 59.145 65.5064 59.145 63.9237C59.145 62.3189 58.9624 61.2121 58.5972 60.6034C58.2375 59.9947 57.7699 59.6903 57.1943 59.6903ZM76.6929 62.7948L74.8086 63.8324C74.4544 63.4616 74.103 63.2043 73.7544 63.0604C73.4113 62.9165 73.0073 62.8446 72.5425 62.8446C71.6958 62.8446 71.0096 63.0992 70.4839 63.6083C69.9637 64.1119 69.7036 64.7593 69.7036 65.5507C69.7036 66.3199 69.9554 66.948 70.459 67.4349C70.9626 67.9219 71.6239 68.1654 72.4429 68.1654C73.4556 68.1654 74.2441 67.8195 74.8086 67.1278L76.5933 68.348C75.6248 69.6042 74.258 70.2323 72.4927 70.2323C70.9045 70.2323 69.6593 69.7619 68.7573 68.8212C67.8608 67.8804 67.4126 66.7792 67.4126 65.5175C67.4126 64.6431 67.6312 63.8379 68.0684 63.1019C68.5055 62.3659 69.1143 61.7876 69.8945 61.3671C70.6803 60.9465 71.5575 60.7362 72.5259 60.7362C73.4224 60.7362 74.2275 60.9161 74.9414 61.2758C75.6553 61.6299 76.2391 62.1363 76.6929 62.7948ZM77.7388 60.9686H80.0547L82.4038 66.6381L84.9937 60.9686H87.3179L81.6567 73.3036H79.3159L81.1753 69.3275L77.7388 60.9686ZM94.1328 66.663L96.9053 60.9686H98.3994L100.657 69.9999H98.4409L97.2373 64.704L94.5479 69.9999H93.6182L90.9868 64.704L89.7749 69.9999H87.5669L89.8247 60.9686H91.3188L94.1328 66.663ZM101.139 72.1747L106.625 57.4408H108.236L102.741 72.1747H101.139ZM115.267 66.663L118.039 60.9686H119.533L121.791 69.9999H119.575L118.371 64.704L115.682 69.9999H114.752L112.121 64.704L110.909 69.9999H108.701L110.958 60.9686H112.453L115.267 66.663ZM132.101 66.14H124.821C124.926 66.7819 125.205 67.2938 125.659 67.6757C126.118 68.052 126.702 68.2401 127.411 68.2401C128.257 68.2401 128.985 67.9441 129.594 67.3519L131.503 68.2484C131.027 68.9235 130.457 69.4244 129.793 69.7509C129.129 70.0718 128.34 70.2323 127.427 70.2323C126.011 70.2323 124.857 69.7868 123.966 68.8959C123.075 67.9994 122.629 66.8788 122.629 65.5341C122.629 64.1561 123.072 63.0134 123.958 62.1058C124.848 61.1927 125.964 60.7362 127.303 60.7362C128.725 60.7362 129.882 61.1927 130.772 62.1058C131.663 63.0134 132.109 64.2142 132.109 65.7084L132.101 66.14ZM129.826 64.3553C129.677 63.8518 129.381 63.4423 128.938 63.1268C128.501 62.8114 127.992 62.6537 127.411 62.6537C126.78 62.6537 126.226 62.8308 125.75 63.1849C125.452 63.4063 125.175 63.7964 124.92 64.3553H129.826ZM142.784 62.7948L140.899 63.8324C140.545 63.4616 140.194 63.2043 139.845 63.0604C139.502 62.9165 139.098 62.8446 138.633 62.8446C137.787 62.8446 137.1 63.0992 136.575 63.6083C136.055 64.1119 135.794 64.7593 135.794 65.5507C135.794 66.3199 136.046 66.948 136.55 67.4349C137.053 67.9219 137.715 68.1654 138.534 68.1654C139.546 68.1654 140.335 67.8195 140.899 67.1278L142.684 68.348C141.716 69.6042 140.349 70.2323 138.583 70.2323C136.995 70.2323 135.75 69.7619 134.848 68.8212C133.952 67.8804 133.503 66.7792 133.503 65.5175C133.503 64.6431 133.722 63.8379 134.159 63.1019C134.596 62.3659 135.205 61.7876 135.985 61.3671C136.771 60.9465 137.648 60.7362 138.617 60.7362C139.513 60.7362 140.318 60.9161 141.032 61.2758C141.746 61.6299 142.33 62.1363 142.784 62.7948ZM149.698 60.9686H157.277V69.9999H156.115V62.0643H150.86V69.9999H149.698V60.9686ZM159.892 60.9686H161.045V62.6288C161.505 61.9979 162.033 61.5248 162.631 61.2094C163.229 60.8939 163.895 60.7362 164.631 60.7362C165.915 60.7362 167.014 61.1983 167.927 62.1224C168.84 63.0466 169.296 64.1589 169.296 65.4594C169.296 66.7875 168.843 67.9164 167.935 68.8461C167.033 69.7702 165.943 70.2323 164.665 70.2323C163.945 70.2323 163.284 70.0829 162.681 69.7841C162.077 69.4852 161.532 69.0398 161.045 68.4476V73.3036H159.892V60.9686ZM164.54 61.8568C163.533 61.8568 162.683 62.2082 161.992 62.911C161.306 63.6138 160.962 64.4882 160.962 65.5341C160.962 66.2203 161.115 66.8373 161.419 67.3851C161.729 67.933 162.169 68.3674 162.739 68.6884C163.314 69.0093 163.92 69.1698 164.557 69.1698C165.182 69.1698 165.769 69.0093 166.316 68.6884C166.87 68.3619 167.31 67.9081 167.636 67.327C167.963 66.746 168.126 66.1372 168.126 65.5009C168.126 64.8589 167.963 64.2502 167.636 63.6747C167.315 63.0992 166.881 62.6537 166.333 62.3383C165.785 62.0173 165.188 61.8568 164.54 61.8568ZM172.642 60.9686V67.6508L179.274 60.9686H179.365V69.9999H178.203V63.3759L171.621 69.9999H171.479V60.9686H172.642ZM194.273 67.0033L195.253 67.5179C194.932 68.1488 194.561 68.6579 194.141 69.0453C193.72 69.4327 193.247 69.7287 192.721 69.9335C192.195 70.1327 191.601 70.2323 190.937 70.2323C189.465 70.2323 188.313 69.7509 187.483 68.788C186.653 67.8195 186.238 66.7266 186.238 65.5092C186.238 64.3636 186.59 63.3427 187.292 62.4462C188.183 61.3062 189.376 60.7362 190.87 60.7362C192.409 60.7362 193.637 61.32 194.556 62.4877C195.209 63.3122 195.541 64.3415 195.552 65.5756H187.434C187.456 66.627 187.791 67.4903 188.438 68.1654C189.085 68.835 189.885 69.1698 190.837 69.1698C191.296 69.1698 191.742 69.0896 192.173 68.9291C192.611 68.7686 192.981 68.5555 193.286 68.2899C193.59 68.0243 193.919 67.5954 194.273 67.0033ZM194.273 64.5712C194.118 63.9514 193.892 63.4561 193.593 63.0853C193.299 62.7146 192.909 62.4157 192.422 62.1888C191.935 61.962 191.424 61.8485 190.887 61.8485C190.001 61.8485 189.24 62.1335 188.604 62.7035C188.139 63.1185 187.788 63.7411 187.55 64.5712H194.273ZM202.358 60.9686H203.537V64.9613L207.854 60.9686H209.273L205.006 64.9945L209.597 69.9999H208.111L204.201 65.6337L203.537 66.1898V69.9999H202.358V66.1898L201.711 65.6337L197.818 69.9999H196.332L200.873 64.9945L196.672 60.9686H198.092L202.358 64.9613V60.9686ZM218.412 67.0033L219.392 67.5179C219.071 68.1488 218.7 68.6579 218.279 69.0453C217.859 69.4327 217.386 69.7287 216.86 69.9335C216.334 70.1327 215.739 70.2323 215.075 70.2323C213.603 70.2323 212.452 69.7509 211.622 68.788C210.792 67.8195 210.377 66.7266 210.377 65.5092C210.377 64.3636 210.728 63.3427 211.431 62.4462C212.322 61.3062 213.515 60.7362 215.009 60.7362C216.547 60.7362 217.776 61.32 218.694 62.4877C219.347 63.3122 219.679 64.3415 219.69 65.5756H211.572C211.594 66.627 211.929 67.4903 212.577 68.1654C213.224 68.835 214.024 69.1698 214.976 69.1698C215.435 69.1698 215.88 69.0896 216.312 68.9291C216.749 68.7686 217.12 68.5555 217.424 68.2899C217.729 68.0243 218.058 67.5954 218.412 67.0033ZM218.412 64.5712C218.257 63.9514 218.03 63.4561 217.731 63.0853C217.438 62.7146 217.048 62.4157 216.561 62.1888C216.074 61.962 215.562 61.8485 215.025 61.8485C214.14 61.8485 213.379 62.1335 212.743 62.7035C212.278 63.1185 211.926 63.7411 211.688 64.5712H218.412ZM231.668 60.9686H232L235.063 69.9999H233.852L231.619 63.351L228.149 69.9999H227.933L224.455 63.351L222.23 69.9999H221.019L224.098 60.9686H224.414L228.049 68.0326L231.668 60.9686ZM244.41 67.0033L245.39 67.5179C245.069 68.1488 244.698 68.6579 244.277 69.0453C243.857 69.4327 243.384 69.7287 242.858 69.9335C242.332 70.1327 241.737 70.2323 241.073 70.2323C239.601 70.2323 238.45 69.7509 237.62 68.788C236.79 67.8195 236.375 66.7266 236.375 65.5092C236.375 64.3636 236.726 63.3427 237.429 62.4462C238.32 61.3062 239.513 60.7362 241.007 60.7362C242.545 60.7362 243.774 61.32 244.692 62.4877C245.345 63.3122 245.677 64.3415 245.688 65.5756H237.57C237.592 66.627 237.927 67.4903 238.575 68.1654C239.222 68.835 240.022 69.1698 240.974 69.1698C241.433 69.1698 241.878 69.0896 242.31 68.9291C242.747 68.7686 243.118 68.5555 243.422 68.2899C243.727 68.0243 244.056 67.5954 244.41 67.0033ZM244.41 64.5712C244.255 63.9514 244.028 63.4561 243.729 63.0853C243.436 62.7146 243.046 62.4157 242.559 62.1888C242.072 61.962 241.56 61.8485 241.023 61.8485C240.138 61.8485 239.377 62.1335 238.741 62.7035C238.276 63.1185 237.924 63.7411 237.687 64.5712H244.41ZM256.629 62.8446L255.708 63.4174C254.911 62.3604 253.823 61.8319 252.445 61.8319C251.344 61.8319 250.428 62.1861 249.698 62.8944C248.973 63.6027 248.61 64.4633 248.61 65.476C248.61 66.1345 248.776 66.7543 249.108 67.3353C249.446 67.9164 249.905 68.3674 250.486 68.6884C251.073 69.0093 251.729 69.1698 252.454 69.1698C253.782 69.1698 254.866 68.6413 255.708 67.5844L256.629 68.1903C256.197 68.8378 255.616 69.3413 254.886 69.701C254.161 70.0552 253.333 70.2323 252.404 70.2323C250.976 70.2323 249.792 69.7785 248.851 68.871C247.91 67.9634 247.44 66.8594 247.44 65.559C247.44 64.6846 247.659 63.8739 248.096 63.1268C248.538 62.3742 249.144 61.7876 249.914 61.3671C250.683 60.9465 251.543 60.7362 252.495 60.7362C253.093 60.7362 253.668 60.8275 254.222 61.0101C254.781 61.1927 255.254 61.4307 255.641 61.724C256.028 62.0173 256.358 62.3908 256.629 62.8446ZM262.68 65.9574H261.85L259.277 69.9999H258.023L260.738 65.8412C260.063 65.7582 259.515 65.5036 259.094 65.0775C258.674 64.6459 258.463 64.1119 258.463 63.4755C258.463 62.6786 258.704 62.0616 259.186 61.6244C259.673 61.1872 260.309 60.9686 261.095 60.9686H263.842V69.9999H262.68V65.9574ZM262.68 61.973H261.917C261.175 61.973 260.677 62.0201 260.422 62.1141C260.168 62.2082 259.966 62.3715 259.816 62.6039C259.667 62.8308 259.592 63.1379 259.592 63.5253C259.592 63.896 259.689 64.2032 259.883 64.4467C260.076 64.6846 260.292 64.8313 260.53 64.8866C260.768 64.9419 261.23 64.9696 261.917 64.9696H262.68V61.973ZM270.483 65.9242H268.441C267.517 65.9242 266.831 65.6862 266.382 65.2103C265.94 64.7344 265.718 64.0731 265.718 63.2264V60.9686H266.855V62.6039C266.855 63.6553 267.005 64.3083 267.304 64.5629C267.603 64.8119 268.095 64.9364 268.781 64.9364H270.483V60.9686H271.637V69.9999H270.483V65.9242ZM280.643 65.6503H275.397V69.9999H274.227V60.9686H275.397V64.5546H280.643V60.9686H281.805V69.9999H280.643V65.6503ZM288.678 60.7362C290.067 60.7362 291.218 61.2398 292.131 62.2469C292.961 63.1656 293.376 64.253 293.376 65.5092C293.376 66.7709 292.937 67.8749 292.057 68.8212C291.182 69.7619 290.056 70.2323 288.678 70.2323C287.295 70.2323 286.163 69.7619 285.283 68.8212C284.409 67.8749 283.972 66.7709 283.972 65.5092C283.972 64.2585 284.387 63.1739 285.217 62.2552C286.13 61.2426 287.284 60.7362 288.678 60.7362ZM288.678 61.8734C287.715 61.8734 286.888 62.2303 286.196 62.9442C285.505 63.6581 285.159 64.5214 285.159 65.5341C285.159 66.1871 285.316 66.7958 285.632 67.3602C285.947 67.9247 286.373 68.3619 286.91 68.6718C287.447 68.9761 288.036 69.1283 288.678 69.1283C289.32 69.1283 289.91 68.9761 290.446 68.6718C290.983 68.3619 291.409 67.9247 291.725 67.3602C292.04 66.7958 292.198 66.1871 292.198 65.5341C292.198 64.5214 291.849 63.6581 291.152 62.9442C290.46 62.2303 289.636 61.8734 288.678 61.8734ZM296.705 60.9686V67.6508L303.337 60.9686H303.429V69.9999H302.267V63.3759L295.684 69.9999H295.543V60.9686H296.705ZM296.547 57.3412H297.643C297.831 57.6289 298.083 57.8448 298.398 57.9886C298.714 58.1325 299.09 58.2045 299.527 58.2045C299.97 58.2045 300.327 58.1408 300.598 58.0135C300.869 57.8863 301.127 57.6622 301.37 57.3412H302.433C302.311 57.8392 301.998 58.257 301.495 58.5946C300.997 58.9266 300.338 59.0927 299.519 59.0927C298.706 59.0927 298.042 58.9294 297.527 58.6029C297.012 58.2709 296.686 57.8503 296.547 57.3412ZM315.008 60.7362C316.397 60.7362 317.548 61.2398 318.461 62.2469C319.292 63.1656 319.707 64.253 319.707 65.5092C319.707 66.7709 319.267 67.8749 318.387 68.8212C317.512 69.7619 316.386 70.2323 315.008 70.2323C313.625 70.2323 312.493 69.7619 311.613 68.8212C310.739 67.8749 310.302 66.7709 310.302 65.5092C310.302 64.2585 310.717 63.1739 311.547 62.2552C312.46 61.2426 313.614 60.7362 315.008 60.7362ZM315.008 61.8734C314.045 61.8734 313.218 62.2303 312.526 62.9442C311.835 63.6581 311.489 64.5214 311.489 65.5341C311.489 66.1871 311.646 66.7958 311.962 67.3602C312.277 67.9247 312.703 68.3619 313.24 68.6718C313.777 68.9761 314.366 69.1283 315.008 69.1283C315.65 69.1283 316.24 68.9761 316.776 68.6718C317.313 68.3619 317.739 67.9247 318.055 67.3602C318.37 66.7958 318.528 66.1871 318.528 65.5341C318.528 64.5214 318.179 63.6581 317.482 62.9442C316.79 62.2303 315.966 61.8734 315.008 61.8734ZM321.873 60.9686H329.452V69.9999H328.29V62.0643H323.035V69.9999H321.873V60.9686ZM339.695 69.9999H338.458L335.437 63.4257L332.44 69.9999H331.195L335.329 60.9686H335.536L339.695 69.9999ZM350.478 60.9686V69.9999H349.332V68.4476C348.845 69.0398 348.297 69.4852 347.688 69.7841C347.085 70.0829 346.424 70.2323 345.705 70.2323C344.426 70.2323 343.333 69.7702 342.426 68.8461C341.524 67.9164 341.073 66.7875 341.073 65.4594C341.073 64.1589 341.529 63.0466 342.442 62.1224C343.355 61.1983 344.454 60.7362 345.738 60.7362C346.479 60.7362 347.149 60.8939 347.747 61.2094C348.35 61.5248 348.878 61.9979 349.332 62.6288V60.9686H350.478ZM345.829 61.8568C345.182 61.8568 344.584 62.0173 344.036 62.3383C343.488 62.6537 343.051 63.0992 342.725 63.6747C342.404 64.2502 342.243 64.8589 342.243 65.5009C342.243 66.1372 342.406 66.746 342.733 67.327C343.059 67.9081 343.497 68.3619 344.044 68.6884C344.598 69.0093 345.19 69.1698 345.821 69.1698C346.457 69.1698 347.06 69.0093 347.63 68.6884C348.2 68.3674 348.638 67.933 348.942 67.3851C349.252 66.8373 349.407 66.2203 349.407 65.5341C349.407 64.4882 349.061 63.6138 348.369 62.911C347.683 62.2082 346.836 61.8568 345.829 61.8568ZM352.088 60.9686H358.031V61.973H355.641V69.9999H354.47V61.973H352.088V60.9686ZM367.212 67.0033L368.191 67.5179C367.87 68.1488 367.5 68.6579 367.079 69.0453C366.659 69.4327 366.185 69.7287 365.66 69.9335C365.134 70.1327 364.539 70.2323 363.875 70.2323C362.403 70.2323 361.252 69.7509 360.422 68.788C359.592 67.8195 359.177 66.7266 359.177 65.5092C359.177 64.3636 359.528 63.3427 360.231 62.4462C361.122 61.3062 362.314 60.7362 363.809 60.7362C365.347 60.7362 366.576 61.32 367.494 62.4877C368.147 63.3122 368.479 64.3415 368.49 65.5756H360.372C360.394 66.627 360.729 67.4903 361.376 68.1654C362.024 68.835 362.824 69.1698 363.775 69.1698C364.235 69.1698 364.68 69.0896 365.112 68.9291C365.549 68.7686 365.92 68.5555 366.224 68.2899C366.528 68.0243 366.858 67.5954 367.212 67.0033ZM367.212 64.5712C367.057 63.9514 366.83 63.4561 366.531 63.0853C366.238 62.7146 365.848 62.4157 365.361 62.1888C364.874 61.962 364.362 61.8485 363.825 61.8485C362.94 61.8485 362.179 62.1335 361.542 62.7035C361.078 63.1185 360.726 63.7411 360.488 64.5712H367.212Z" fill="black"/>
<path d="M2.84082 98.7893H8.56006V100.931H4.57568L4.07764 103.156C4.21598 103.117 4.35156 103.089 4.48438 103.073C4.61719 103.05 4.74447 103.039 4.86621 103.039C5.97298 103.039 6.8916 103.418 7.62207 104.177C8.35807 104.929 8.72607 105.895 8.72607 107.073C8.72607 108.263 8.31934 109.268 7.50586 110.087C6.69792 110.9 5.71289 111.307 4.55078 111.307C3.51042 111.307 2.6167 111.011 1.86963 110.419C1.12256 109.827 0.632812 109.016 0.400391 107.987H2.84082C3.02897 108.368 3.27523 108.659 3.57959 108.858C3.88949 109.052 4.22982 109.149 4.60059 109.149C5.11523 109.149 5.55241 108.963 5.91211 108.593C6.27181 108.222 6.45166 107.746 6.45166 107.165C6.45166 106.6 6.28288 106.138 5.94531 105.779C5.61328 105.413 5.20931 105.231 4.7334 105.231C4.47884 105.231 4.22705 105.294 3.97803 105.422C3.73454 105.549 3.49382 105.74 3.25586 105.994L1.36328 105.571L2.84082 98.7893ZM12.3701 98.7893H18.0894V100.931H14.105L13.6069 103.156C13.7453 103.117 13.8809 103.089 14.0137 103.073C14.1465 103.05 14.2738 103.039 14.3955 103.039C15.5023 103.039 16.4209 103.418 17.1514 104.177C17.8874 104.929 18.2554 105.895 18.2554 107.073C18.2554 108.263 17.8486 109.268 17.0352 110.087C16.2272 110.9 15.2422 111.307 14.0801 111.307C13.0397 111.307 12.146 111.011 11.3989 110.419C10.6519 109.827 10.1621 109.016 9.92969 107.987H12.3701C12.5583 108.368 12.8045 108.659 13.1089 108.858C13.4188 109.052 13.7591 109.149 14.1299 109.149C14.6445 109.149 15.0817 108.963 15.4414 108.593C15.8011 108.222 15.981 107.746 15.981 107.165C15.981 106.6 15.8122 106.138 15.4746 105.779C15.1426 105.413 14.7386 105.231 14.2627 105.231C14.0081 105.231 13.7563 105.294 13.5073 105.422C13.2638 105.549 13.0231 105.74 12.7852 105.994L10.8926 105.571L12.3701 98.7893ZM23.7837 98.4822C24.6746 98.4822 25.4411 98.7008 26.083 99.1379C26.7305 99.5751 27.2285 100.245 27.5771 101.147C27.9313 102.043 28.1084 103.294 28.1084 104.899C28.1084 106.52 27.9285 107.782 27.5688 108.684C27.2147 109.586 26.736 110.25 26.1328 110.676C25.5296 111.097 24.7687 111.307 23.8501 111.307C22.9315 111.307 22.1595 111.094 21.5342 110.668C20.9089 110.242 20.4191 109.594 20.0649 108.725C19.7108 107.857 19.5337 106.62 19.5337 105.015C19.5337 102.774 19.8796 101.149 20.5713 100.142C21.3405 99.0356 22.4113 98.4822 23.7837 98.4822ZM23.8418 100.69C23.4489 100.69 23.1003 100.817 22.7959 101.072C22.4915 101.321 22.2591 101.753 22.0986 102.367C21.9382 102.981 21.8579 103.88 21.8579 105.065C21.8579 106.609 22.0405 107.677 22.4058 108.269C22.7765 108.855 23.2552 109.149 23.8418 109.149C24.4062 109.149 24.8545 108.869 25.1865 108.31C25.5905 107.635 25.7925 106.506 25.7925 104.924C25.7925 103.319 25.6099 102.212 25.2446 101.603C24.8849 100.995 24.4173 100.69 23.8418 100.69ZM38.0776 98.4822C38.9686 98.4822 39.735 98.7008 40.377 99.1379C41.0244 99.5751 41.5225 100.245 41.8711 101.147C42.2253 102.043 42.4023 103.294 42.4023 104.899C42.4023 106.52 42.2225 107.782 41.8628 108.684C41.5086 109.586 41.0299 110.25 40.4268 110.676C39.8236 111.097 39.0627 111.307 38.144 111.307C37.2254 111.307 36.4535 111.094 35.8281 110.668C35.2028 110.242 34.7131 109.594 34.3589 108.725C34.0047 107.857 33.8276 106.62 33.8276 105.015C33.8276 102.774 34.1735 101.149 34.8652 100.142C35.6344 99.0356 36.7052 98.4822 38.0776 98.4822ZM38.1357 100.69C37.7428 100.69 37.3942 100.817 37.0898 101.072C36.7855 101.321 36.5531 101.753 36.3926 102.367C36.2321 102.981 36.1519 103.88 36.1519 105.065C36.1519 106.609 36.3345 107.677 36.6997 108.269C37.0705 108.855 37.5492 109.149 38.1357 109.149C38.7002 109.149 39.1484 108.869 39.4805 108.31C39.8844 107.635 40.0864 106.506 40.0864 104.924C40.0864 103.319 39.9038 102.212 39.5386 101.603C39.1789 100.995 38.7113 100.69 38.1357 100.69ZM47.6069 98.4822C48.4979 98.4822 49.2643 98.7008 49.9062 99.1379C50.5537 99.5751 51.0518 100.245 51.4004 101.147C51.7546 102.043 51.9316 103.294 51.9316 104.899C51.9316 106.52 51.7518 107.782 51.3921 108.684C51.0379 109.586 50.5592 110.25 49.9561 110.676C49.3529 111.097 48.592 111.307 47.6733 111.307C46.7547 111.307 45.9827 111.094 45.3574 110.668C44.7321 110.242 44.2424 109.594 43.8882 108.725C43.534 107.857 43.3569 106.62 43.3569 105.015C43.3569 102.774 43.7028 101.149 44.3945 100.142C45.1637 99.0356 46.2345 98.4822 47.6069 98.4822ZM47.665 100.69C47.2721 100.69 46.9235 100.817 46.6191 101.072C46.3148 101.321 46.0824 101.753 45.9219 102.367C45.7614 102.981 45.6812 103.88 45.6812 105.065C45.6812 106.609 45.8638 107.677 46.229 108.269C46.5998 108.855 47.0785 109.149 47.665 109.149C48.2295 109.149 48.6777 108.869 49.0098 108.31C49.4137 107.635 49.6157 106.506 49.6157 104.924C49.6157 103.319 49.4331 102.212 49.0679 101.603C48.7082 100.995 48.2406 100.69 47.665 100.69ZM57.1362 98.4822C58.0272 98.4822 58.7936 98.7008 59.4355 99.1379C60.083 99.5751 60.5811 100.245 60.9297 101.147C61.2839 102.043 61.4609 103.294 61.4609 104.899C61.4609 106.52 61.2811 107.782 60.9214 108.684C60.5672 109.586 60.0885 110.25 59.4854 110.676C58.8822 111.097 58.1213 111.307 57.2026 111.307C56.284 111.307 55.512 111.094 54.8867 110.668C54.2614 110.242 53.7716 109.594 53.4175 108.725C53.0633 107.857 52.8862 106.62 52.8862 105.015C52.8862 102.774 53.2321 101.149 53.9238 100.142C54.693 99.0356 55.7638 98.4822 57.1362 98.4822ZM57.1943 100.69C56.8014 100.69 56.4528 100.817 56.1484 101.072C55.8441 101.321 55.6117 101.753 55.4512 102.367C55.2907 102.981 55.2104 103.88 55.2104 105.065C55.2104 106.609 55.3931 107.677 55.7583 108.269C56.1291 108.855 56.6077 109.149 57.1943 109.149C57.7588 109.149 58.207 108.869 58.5391 108.31C58.943 107.635 59.145 106.506 59.145 104.924C59.145 103.319 58.9624 102.212 58.5972 101.603C58.2375 100.995 57.7699 100.69 57.1943 100.69ZM76.6929 103.795L74.8086 104.832C74.4544 104.462 74.103 104.204 73.7544 104.06C73.4113 103.916 73.0073 103.844 72.5425 103.844C71.6958 103.844 71.0096 104.099 70.4839 104.608C69.9637 105.112 69.7036 105.759 69.7036 106.551C69.7036 107.32 69.9554 107.948 70.459 108.435C70.9626 108.922 71.6239 109.165 72.4429 109.165C73.4556 109.165 74.2441 108.819 74.8086 108.128L76.5933 109.348C75.6248 110.604 74.258 111.232 72.4927 111.232C70.9045 111.232 69.6593 110.762 68.7573 109.821C67.8608 108.88 67.4126 107.779 67.4126 106.517C67.4126 105.643 67.6312 104.838 68.0684 104.102C68.5055 103.366 69.1143 102.788 69.8945 102.367C70.6803 101.946 71.5575 101.736 72.5259 101.736C73.4224 101.736 74.2275 101.916 74.9414 102.276C75.6553 102.63 76.2391 103.136 76.6929 103.795ZM77.7388 101.969H80.0547L82.4038 107.638L84.9937 101.969H87.3179L81.6567 114.303H79.3159L81.1753 110.327L77.7388 101.969ZM94.1328 107.663L96.9053 101.969H98.3994L100.657 111H98.4409L97.2373 105.704L94.5479 111H93.6182L90.9868 105.704L89.7749 111H87.5669L89.8247 101.969H91.3188L94.1328 107.663ZM101.139 113.175L106.625 98.4407H108.236L102.741 113.175H101.139ZM115.267 107.663L118.039 101.969H119.533L121.791 111H119.575L118.371 105.704L115.682 111H114.752L112.121 105.704L110.909 111H108.701L110.958 101.969H112.453L115.267 107.663ZM132.101 107.14H124.821C124.926 107.782 125.205 108.294 125.659 108.676C126.118 109.052 126.702 109.24 127.411 109.24C128.257 109.24 128.985 108.944 129.594 108.352L131.503 109.248C131.027 109.923 130.457 110.424 129.793 110.751C129.129 111.072 128.34 111.232 127.427 111.232C126.011 111.232 124.857 110.787 123.966 109.896C123.075 108.999 122.629 107.879 122.629 106.534C122.629 105.156 123.072 104.013 123.958 103.106C124.848 102.193 125.964 101.736 127.303 101.736C128.725 101.736 129.882 102.193 130.772 103.106C131.663 104.013 132.109 105.214 132.109 106.708L132.101 107.14ZM129.826 105.355C129.677 104.852 129.381 104.442 128.938 104.127C128.501 103.811 127.992 103.654 127.411 103.654C126.78 103.654 126.226 103.831 125.75 104.185C125.452 104.406 125.175 104.796 124.92 105.355H129.826ZM142.784 103.795L140.899 104.832C140.545 104.462 140.194 104.204 139.845 104.06C139.502 103.916 139.098 103.844 138.633 103.844C137.787 103.844 137.1 104.099 136.575 104.608C136.055 105.112 135.794 105.759 135.794 106.551C135.794 107.32 136.046 107.948 136.55 108.435C137.053 108.922 137.715 109.165 138.534 109.165C139.546 109.165 140.335 108.819 140.899 108.128L142.684 109.348C141.716 110.604 140.349 111.232 138.583 111.232C136.995 111.232 135.75 110.762 134.848 109.821C133.952 108.88 133.503 107.779 133.503 106.517C133.503 105.643 133.722 104.838 134.159 104.102C134.596 103.366 135.205 102.788 135.985 102.367C136.771 101.946 137.648 101.736 138.617 101.736C139.513 101.736 140.318 101.916 141.032 102.276C141.746 102.63 142.33 103.136 142.784 103.795ZM149.698 101.969H157.277V111H156.115V103.064H150.86V111H149.698V101.969ZM159.892 101.969H161.045V103.629C161.505 102.998 162.033 102.525 162.631 102.209C163.229 101.894 163.895 101.736 164.631 101.736C165.915 101.736 167.014 102.198 167.927 103.122C168.84 104.046 169.296 105.159 169.296 106.459C169.296 107.787 168.843 108.916 167.935 109.846C167.033 110.77 165.943 111.232 164.665 111.232C163.945 111.232 163.284 111.083 162.681 110.784C162.077 110.485 161.532 110.04 161.045 109.448V114.303H159.892V101.969ZM164.54 102.857C163.533 102.857 162.683 103.208 161.992 103.911C161.306 104.614 160.962 105.488 160.962 106.534C160.962 107.22 161.115 107.837 161.419 108.385C161.729 108.933 162.169 109.367 162.739 109.688C163.314 110.009 163.92 110.17 164.557 110.17C165.182 110.17 165.769 110.009 166.316 109.688C166.87 109.362 167.31 108.908 167.636 108.327C167.963 107.746 168.126 107.137 168.126 106.501C168.126 105.859 167.963 105.25 167.636 104.675C167.315 104.099 166.881 103.654 166.333 103.338C165.785 103.017 165.188 102.857 164.54 102.857ZM172.642 101.969V108.651L179.274 101.969H179.365V111H178.203V104.376L171.621 111H171.479V101.969H172.642ZM190.945 101.736C192.334 101.736 193.485 102.24 194.398 103.247C195.228 104.165 195.643 105.253 195.643 106.509C195.643 107.771 195.203 108.875 194.323 109.821C193.449 110.762 192.323 111.232 190.945 111.232C189.561 111.232 188.43 110.762 187.55 109.821C186.675 108.875 186.238 107.771 186.238 106.509C186.238 105.258 186.653 104.174 187.483 103.255C188.396 102.242 189.55 101.736 190.945 101.736ZM190.945 102.873C189.982 102.873 189.155 103.23 188.463 103.944C187.771 104.658 187.425 105.521 187.425 106.534C187.425 107.187 187.583 107.796 187.898 108.36C188.214 108.925 188.64 109.362 189.177 109.672C189.714 109.976 190.303 110.128 190.945 110.128C191.587 110.128 192.176 109.976 192.713 109.672C193.25 109.362 193.676 108.925 193.991 108.36C194.307 107.796 194.464 107.187 194.464 106.534C194.464 105.521 194.116 104.658 193.418 103.944C192.727 103.23 191.902 102.873 190.945 102.873ZM197.81 101.969H205.388V111H204.226V103.064H198.972V111H197.81V101.969ZM215.631 111H214.395L211.373 104.426L208.376 111H207.131L211.265 101.969H211.473L215.631 111ZM226.414 101.969V111H225.269V109.448C224.782 110.04 224.234 110.485 223.625 110.784C223.022 111.083 222.361 111.232 221.641 111.232C220.363 111.232 219.27 110.77 218.362 109.846C217.46 108.916 217.009 107.787 217.009 106.459C217.009 105.159 217.466 104.046 218.379 103.122C219.292 102.198 220.39 101.736 221.674 101.736C222.416 101.736 223.085 101.894 223.683 102.209C224.286 102.525 224.815 102.998 225.269 103.629V101.969H226.414ZM221.766 102.857C221.118 102.857 220.521 103.017 219.973 103.338C219.425 103.654 218.988 104.099 218.661 104.675C218.34 105.25 218.18 105.859 218.18 106.501C218.18 107.137 218.343 107.746 218.669 108.327C218.996 108.908 219.433 109.362 219.981 109.688C220.534 110.009 221.126 110.17 221.757 110.17C222.394 110.17 222.997 110.009 223.567 109.688C224.137 109.367 224.574 108.933 224.878 108.385C225.188 107.837 225.343 107.22 225.343 106.534C225.343 105.488 224.997 104.614 224.306 103.911C223.619 103.208 222.773 102.857 221.766 102.857ZM228.024 101.969H233.968V102.973H231.577V111H230.407V102.973H228.024V101.969ZM243.148 108.003L244.128 108.518C243.807 109.149 243.436 109.658 243.016 110.045C242.595 110.433 242.122 110.729 241.596 110.933C241.07 111.133 240.476 111.232 239.812 111.232C238.34 111.232 237.188 110.751 236.358 109.788C235.528 108.819 235.113 107.726 235.113 106.509C235.113 105.364 235.465 104.343 236.167 103.446C237.058 102.306 238.251 101.736 239.745 101.736C241.284 101.736 242.512 102.32 243.431 103.488C244.084 104.312 244.416 105.341 244.427 106.575H236.309C236.331 107.627 236.666 108.49 237.313 109.165C237.96 109.835 238.76 110.17 239.712 110.17C240.171 110.17 240.617 110.089 241.048 109.929C241.486 109.768 241.856 109.555 242.161 109.29C242.465 109.024 242.794 108.595 243.148 108.003ZM243.148 105.571C242.993 104.951 242.767 104.456 242.468 104.085C242.174 103.714 241.784 103.416 241.297 103.189C240.81 102.962 240.299 102.848 239.762 102.848C238.876 102.848 238.115 103.133 237.479 103.703C237.014 104.118 236.663 104.741 236.425 105.571H243.148ZM252.827 105.77H253.433C253.82 105.77 254.175 105.643 254.496 105.388C254.822 105.134 254.985 104.769 254.985 104.293C254.985 103.889 254.855 103.543 254.595 103.255C254.335 102.962 253.937 102.815 253.4 102.815C252.775 102.815 252.146 103.059 251.516 103.546L250.86 102.74C251.673 102.06 252.537 101.719 253.45 101.719C254.202 101.719 254.833 101.944 255.342 102.392C255.851 102.84 256.106 103.418 256.106 104.127C256.106 105.067 255.691 105.707 254.861 106.044C255.945 106.498 256.488 107.292 256.488 108.427C256.488 109.146 256.233 109.796 255.724 110.377C255.221 110.953 254.465 111.24 253.458 111.24C252.224 111.24 251.231 110.839 250.478 110.037L251.208 109.207C251.767 109.838 252.484 110.153 253.358 110.153C253.945 110.153 254.404 109.995 254.736 109.68C255.074 109.365 255.243 108.949 255.243 108.435C255.243 107.931 255.074 107.527 254.736 107.223C254.399 106.919 254 106.766 253.541 106.766H252.827V105.77ZM267.503 101.969V111H266.357V109.448C265.87 110.04 265.323 110.485 264.714 110.784C264.111 111.083 263.449 111.232 262.73 111.232C261.452 111.232 260.359 110.77 259.451 109.846C258.549 108.916 258.098 107.787 258.098 106.459C258.098 105.159 258.555 104.046 259.468 103.122C260.381 102.198 261.479 101.736 262.763 101.736C263.505 101.736 264.174 101.894 264.772 102.209C265.375 102.525 265.904 102.998 266.357 103.629V101.969H267.503ZM262.854 102.857C262.207 102.857 261.609 103.017 261.062 103.338C260.514 103.654 260.076 104.099 259.75 104.675C259.429 105.25 259.269 105.859 259.269 106.501C259.269 107.137 259.432 107.746 259.758 108.327C260.085 108.908 260.522 109.362 261.07 109.688C261.623 110.009 262.215 110.17 262.846 110.17C263.483 110.17 264.086 110.009 264.656 109.688C265.226 109.367 265.663 108.933 265.967 108.385C266.277 107.837 266.432 107.22 266.432 106.534C266.432 105.488 266.086 104.614 265.395 103.911C264.708 103.208 263.862 102.857 262.854 102.857ZM275.995 102.99V111H274.841V101.969H279.406V102.99H275.995ZM285.258 101.736C286.647 101.736 287.798 102.24 288.711 103.247C289.542 104.165 289.957 105.253 289.957 106.509C289.957 107.771 289.517 108.875 288.637 109.821C287.762 110.762 286.636 111.232 285.258 111.232C283.875 111.232 282.743 110.762 281.863 109.821C280.989 108.875 280.552 107.771 280.552 106.509C280.552 105.258 280.967 104.174 281.797 103.255C282.71 102.242 283.864 101.736 285.258 101.736ZM285.258 102.873C284.295 102.873 283.468 103.23 282.776 103.944C282.085 104.658 281.739 105.521 281.739 106.534C281.739 107.187 281.896 107.796 282.212 108.36C282.527 108.925 282.953 109.362 283.49 109.672C284.027 109.976 284.616 110.128 285.258 110.128C285.9 110.128 286.49 109.976 287.026 109.672C287.563 109.362 287.989 108.925 288.305 108.36C288.62 107.796 288.778 107.187 288.778 106.534C288.778 105.521 288.429 104.658 287.732 103.944C287.04 103.23 286.216 102.873 285.258 102.873ZM292.198 110.012L295.684 101.969H296.29L299.751 110.012H300.839V112.154H299.718V111H292.248V112.203H291.102V110.012H292.198ZM295.966 103.761L293.327 110.012H298.498L295.966 103.761Z" fill="black"/>
<path d="M528.888 14.0432H532.342L538.116 28.7893H540.118V34.6853H536.81V31.9998H524.457V34.6853H521.148V28.7893H523.138L528.888 14.0432ZM530.646 18.804L526.715 28.7893H534.564L530.646 18.804ZM555.279 26.3235H544.574C544.728 27.2675 545.139 28.0203 545.807 28.5818C546.482 29.1352 547.341 29.4119 548.382 29.4119C549.627 29.4119 550.698 28.9765 551.593 28.1057L554.4 29.4241C553.701 30.4169 552.862 31.1534 551.886 31.6335C550.909 32.1056 549.75 32.3416 548.407 32.3416C546.323 32.3416 544.627 31.6864 543.316 30.3762C542.006 29.0579 541.351 27.4099 541.351 25.4324C541.351 23.406 542.002 21.7255 543.304 20.3909C544.614 19.0481 546.254 18.3767 548.224 18.3767C550.315 18.3767 552.016 19.0481 553.326 20.3909C554.636 21.7255 555.292 23.4915 555.292 25.6887L555.279 26.3235ZM551.935 23.699C551.715 22.9584 551.279 22.3562 550.628 21.8923C549.986 21.4285 549.237 21.1965 548.382 21.1965C547.455 21.1965 546.641 21.4569 545.941 21.9778C545.501 22.3033 545.095 22.877 544.72 23.699H551.935ZM556.805 18.7185H569.183V21.8923H564.776V31.9998H561.432V21.8923H556.805V18.7185ZM581.183 18.7185H584.503V31.9998H581.183V30.5959C580.532 31.2144 579.876 31.662 579.217 31.9387C578.566 32.2073 577.858 32.3416 577.093 32.3416C575.376 32.3416 573.891 31.6783 572.638 30.3518C571.384 29.0172 570.758 27.3611 570.758 25.3835C570.758 23.3328 571.364 21.6523 572.577 20.342C573.789 19.0318 575.262 18.3767 576.996 18.3767C577.793 18.3767 578.542 18.5273 579.242 18.8284C579.942 19.1295 580.589 19.5811 581.183 20.1833V18.7185ZM577.679 21.4529C576.646 21.4529 575.787 21.8191 575.104 22.5515C574.42 23.2758 574.078 24.2076 574.078 25.3469C574.078 26.4944 574.424 27.4384 575.116 28.179C575.816 28.9195 576.674 29.2898 577.691 29.2898C578.741 29.2898 579.612 28.9277 580.304 28.2034C580.995 27.4709 581.341 26.5147 581.341 25.3347C581.341 24.1791 580.995 23.2432 580.304 22.5271C579.612 21.811 578.737 21.4529 577.679 21.4529ZM599.737 31.9998H596.344L593.023 23.6135L589.642 31.9998H586.261L591.925 18.7185H594.073L599.737 31.9998ZM603.253 31.9998H601.483V18.7185H604.73V26.5188L611.529 18.7185H613.128V31.9998H609.881V24.3582L603.253 31.9998ZM623.517 18.7185H626.849V23.6868L631.439 18.7185H635.504L629.583 25.1882L635.577 31.9998H631.158L627.203 27.3123L626.849 27.7273V31.9998H623.517V18.7185ZM635.467 18.7185H638.873L642.328 27.0559L646.136 18.7185H649.554L641.229 36.8582H637.787L640.521 31.011L635.467 18.7185ZM654.754 18.7185V20.1833C655.357 19.5811 656.008 19.1295 656.708 18.8284C657.407 18.5273 658.156 18.3767 658.954 18.3767C660.687 18.3767 662.16 19.0318 663.373 20.342C664.585 21.6523 665.191 23.3328 665.191 25.3835C665.191 27.3611 664.565 29.0172 663.312 30.3518C662.058 31.6783 660.573 32.3416 658.856 32.3416C658.091 32.3416 657.379 32.2073 656.72 31.9387C656.061 31.662 655.405 31.2144 654.754 30.5959V36.8582H651.446V18.7185H654.754ZM658.258 21.4529C657.208 21.4529 656.337 21.811 655.646 22.5271C654.954 23.2432 654.608 24.1791 654.608 25.3347C654.608 26.5147 654.954 27.4709 655.646 28.2034C656.337 28.9277 657.208 29.2898 658.258 29.2898C659.275 29.2898 660.13 28.9195 660.821 28.179C661.521 27.4384 661.871 26.4944 661.871 25.3469C661.871 24.2076 661.529 23.2758 660.846 22.5515C660.162 21.8191 659.299 21.4529 658.258 21.4529ZM680.951 21.4041L678.18 22.9299C677.659 22.3847 677.142 22.0063 676.629 21.7947C676.125 21.5831 675.531 21.4773 674.847 21.4773C673.602 21.4773 672.593 21.8516 671.82 22.6003C671.055 23.3409 670.672 24.2931 670.672 25.4568C670.672 26.588 671.043 27.5116 671.783 28.2278C672.524 28.9439 673.496 29.302 674.701 29.302C676.19 29.302 677.35 28.7934 678.18 27.7761L680.804 29.5706C679.38 31.4179 677.37 32.3416 674.774 32.3416C672.438 32.3416 670.607 31.6498 669.281 30.2664C667.962 28.8829 667.303 27.2634 667.303 25.408C667.303 24.1222 667.625 22.9381 668.268 21.8557C668.91 20.7734 669.806 19.9229 670.953 19.3044C672.109 18.686 673.399 18.3767 674.823 18.3767C676.141 18.3767 677.325 18.6412 678.375 19.1702C679.425 19.691 680.283 20.4356 680.951 21.4041ZM693.78 18.7185H697.101V31.9998H693.78V30.5959C693.129 31.2144 692.474 31.662 691.815 31.9387C691.164 32.2073 690.456 32.3416 689.691 32.3416C687.974 32.3416 686.489 31.6783 685.235 30.3518C683.982 29.0172 683.355 27.3611 683.355 25.3835C683.355 23.3328 683.962 21.6523 685.174 20.342C686.387 19.0318 687.86 18.3767 689.593 18.3767C690.391 18.3767 691.139 18.5273 691.839 18.8284C692.539 19.1295 693.186 19.5811 693.78 20.1833V18.7185ZM690.277 21.4529C689.243 21.4529 688.385 21.8191 687.701 22.5515C687.018 23.2758 686.676 24.2076 686.676 25.3469C686.676 26.4944 687.022 27.4384 687.713 28.179C688.413 28.9195 689.272 29.2898 690.289 29.2898C691.339 29.2898 692.21 28.9277 692.901 28.2034C693.593 27.4709 693.939 26.5147 693.939 25.3347C693.939 24.1791 693.593 23.2432 692.901 22.5271C692.21 21.811 691.335 21.4529 690.277 21.4529Z" fill="black"/>
<path d="M523.549 65.0311V65.91C523.911 65.5487 524.301 65.2777 524.721 65.097C525.141 64.9164 525.59 64.826 526.069 64.826C527.109 64.826 527.993 65.2191 528.72 66.0052C529.448 66.7914 529.812 67.7997 529.812 69.0302C529.812 70.2167 529.436 71.2103 528.684 72.0111C527.932 72.807 527.041 73.205 526.01 73.205C525.551 73.205 525.124 73.1244 524.729 72.9633C524.333 72.7972 523.94 72.5287 523.549 72.1576V75.9149H521.564V65.0311H523.549ZM525.651 66.6718C525.021 66.6718 524.499 66.8866 524.084 67.3163C523.669 67.746 523.461 68.3075 523.461 69.0009C523.461 69.7089 523.669 70.2826 524.084 70.722C524.499 71.1566 525.021 71.3739 525.651 71.3739C526.262 71.3739 526.774 71.1517 527.189 70.7074C527.609 70.2631 527.819 69.6967 527.819 69.0082C527.819 68.3246 527.614 67.7655 527.204 67.3309C526.794 66.8915 526.276 66.6718 525.651 66.6718ZM530.581 65.0311H532.624L534.697 70.0336L536.982 65.0311H539.033L534.038 75.9149H531.972L533.613 72.4066L530.581 65.0311ZM547.968 66.6425L546.306 67.558C545.993 67.2308 545.683 67.0038 545.376 66.8768C545.073 66.7499 544.716 66.6864 544.306 66.6864C543.559 66.6864 542.954 66.911 542.49 67.3602C542.031 67.8046 541.801 68.3759 541.801 69.0741C541.801 69.7528 542.023 70.307 542.468 70.7367C542.912 71.1664 543.496 71.3812 544.218 71.3812C545.112 71.3812 545.808 71.076 546.306 70.4657L547.88 71.5424C547.026 72.6508 545.82 73.205 544.262 73.205C542.861 73.205 541.762 72.7899 540.966 71.9598C540.175 71.1298 539.78 70.1581 539.78 69.0448C539.78 68.2733 539.973 67.5629 540.358 66.9135C540.744 66.264 541.281 65.7538 541.97 65.3827C542.663 65.0116 543.437 64.826 544.292 64.826C545.083 64.826 545.793 64.9847 546.423 65.3021C547.053 65.6146 547.568 66.0614 547.968 66.6425ZM557.578 66.6425L555.915 67.558C555.603 67.2308 555.292 67.0038 554.985 66.8768C554.682 66.7499 554.326 66.6864 553.916 66.6864C553.168 66.6864 552.563 66.911 552.099 67.3602C551.64 67.8046 551.411 68.3759 551.411 69.0741C551.411 69.7528 551.633 70.307 552.077 70.7367C552.521 71.1664 553.105 71.3812 553.828 71.3812C554.721 71.3812 555.417 71.076 555.915 70.4657L557.49 71.5424C556.635 72.6508 555.429 73.205 553.872 73.205C552.47 73.205 551.372 72.7899 550.576 71.9598C549.785 71.1298 549.389 70.1581 549.389 69.0448C549.389 68.2733 549.582 67.5629 549.968 66.9135C550.354 66.264 550.891 65.7538 551.579 65.3827C552.272 65.0116 553.046 64.826 553.901 64.826C554.692 64.826 555.402 64.9847 556.032 65.3021C556.662 65.6146 557.177 66.0614 557.578 66.6425ZM559.387 65.0311H561.386V68.0121L564.14 65.0311H566.579L563.027 68.913L566.623 72.9999H563.972L561.599 70.1874L561.386 70.4364V72.9999H559.387V65.0311ZM568.498 72.9999H567.436V65.0311H569.384V69.7113L573.464 65.0311H574.423V72.9999H572.475V68.4149L568.498 72.9999ZM577.507 72.9999H576.445V65.0311H578.393V69.7113L582.473 65.0311H583.432V72.9999H581.484V68.4149L577.507 72.9999ZM577.031 61.5155H578.649C578.776 61.7157 578.952 61.8671 579.177 61.9696C579.406 62.0673 579.685 62.1161 580.012 62.1161C580.344 62.1161 580.644 62.0575 580.913 61.9403C581.088 61.8622 581.242 61.7206 581.374 61.5155H582.993C582.9 62.1356 582.602 62.6337 582.099 63.0096C581.601 63.3856 580.903 63.5736 580.004 63.5736C579.399 63.5736 578.891 63.4906 578.481 63.3246C578.076 63.1537 577.749 62.912 577.5 62.5995C577.251 62.287 577.094 61.9257 577.031 61.5155Z" fill="black"/>
<path d="M670.295 62.226H675.342V64.1156H671.826L671.387 66.0785C671.509 66.0443 671.628 66.0199 671.746 66.0052C671.863 65.9857 671.975 65.976 672.083 65.976C673.059 65.976 673.87 66.3104 674.514 66.9794C675.164 67.6434 675.488 68.4955 675.488 69.5355C675.488 70.5853 675.129 71.4716 674.412 72.1942C673.699 72.912 672.83 73.2709 671.804 73.2709C670.886 73.2709 670.098 73.0096 669.438 72.4872C668.779 71.9647 668.347 71.2494 668.142 70.3412H670.295C670.461 70.6781 670.679 70.9344 670.947 71.1102C671.221 71.2811 671.521 71.3666 671.848 71.3666C672.302 71.3666 672.688 71.203 673.005 70.8759C673.323 70.5487 673.481 70.1288 673.481 69.6161C673.481 69.118 673.333 68.7103 673.035 68.3929C672.742 68.0707 672.385 67.9095 671.965 67.9095C671.741 67.9095 671.519 67.9657 671.299 68.078C671.084 68.1903 670.872 68.3588 670.662 68.5834L668.992 68.2098L670.295 62.226ZM688.533 72.9999H686.497L684.504 67.9681L682.476 72.9999H680.447L683.845 65.0311H685.134L688.533 72.9999ZM697.571 69.5941H691.147C691.24 70.1605 691.487 70.6122 691.887 70.9491C692.292 71.2811 692.808 71.4471 693.433 71.4471C694.18 71.4471 694.822 71.1859 695.359 70.6635L697.043 71.4545C696.624 72.0502 696.121 72.4921 695.535 72.7802C694.949 73.0634 694.253 73.205 693.447 73.205C692.197 73.205 691.179 72.8119 690.393 72.0258C689.607 71.2347 689.214 70.246 689.214 69.0594C689.214 67.8436 689.604 66.8353 690.386 66.0345C691.172 65.2289 692.156 64.826 693.337 64.826C694.592 64.826 695.613 65.2289 696.399 66.0345C697.185 66.8353 697.578 67.8949 697.578 69.2133L697.571 69.5941ZM695.564 68.0194C695.432 67.5751 695.171 67.2137 694.78 66.9354C694.395 66.6571 693.945 66.5179 693.433 66.5179C692.876 66.5179 692.388 66.6742 691.968 66.9867C691.704 67.182 691.46 67.5262 691.235 68.0194H695.564ZM698.486 65.0311H705.913V66.9354H703.269V72.9999H701.262V66.9354H698.486V65.0311Z" fill="black"/>
<path d="M525.283 108.271L523.54 107.407L525.422 103.745C524.509 103.745 523.733 103.417 523.093 102.763C522.454 102.109 522.134 101.296 522.134 100.324C522.134 99.3817 522.461 98.5858 523.115 97.9364C523.774 97.2821 524.568 96.955 525.496 96.955C526.467 96.955 527.275 97.2943 527.92 97.973C528.569 98.6469 528.894 99.4232 528.894 100.302C528.894 100.634 528.843 100.969 528.74 101.306C528.643 101.638 528.413 102.153 528.052 102.851L525.283 108.271ZM525.54 101.804C525.92 101.804 526.24 101.664 526.499 101.386C526.758 101.108 526.887 100.764 526.887 100.353C526.887 99.9335 526.751 99.5819 526.477 99.2987C526.209 99.0155 525.894 98.8739 525.532 98.8739C525.151 98.8739 524.824 99.0155 524.551 99.2987C524.277 99.577 524.141 99.9261 524.141 100.346C524.141 100.761 524.272 101.108 524.536 101.386C524.805 101.664 525.139 101.804 525.54 101.804ZM530.93 103.1H534.651V104.96H530.93V103.1ZM538.408 97.226H541.477V108H539.441V99.1522H537.222L538.408 97.226ZM546.816 97.226H549.885V108H547.849V99.1522H545.63L546.816 97.226ZM565.09 108H563.054L561.062 102.968L559.033 108H557.004L560.403 100.031H561.692L565.09 108ZM574.128 104.594H567.705C567.798 105.161 568.044 105.612 568.445 105.949C568.85 106.281 569.365 106.447 569.99 106.447C570.737 106.447 571.379 106.186 571.917 105.663L573.601 106.454C573.181 107.05 572.678 107.492 572.092 107.78C571.506 108.063 570.811 108.205 570.005 108.205C568.755 108.205 567.737 107.812 566.951 107.026C566.165 106.235 565.771 105.246 565.771 104.059C565.771 102.844 566.162 101.835 566.943 101.035C567.73 100.229 568.713 99.826 569.895 99.826C571.15 99.826 572.17 100.229 572.957 101.035C573.743 101.835 574.136 102.895 574.136 104.213L574.128 104.594ZM572.122 103.019C571.99 102.575 571.729 102.214 571.338 101.935C570.952 101.657 570.503 101.518 569.99 101.518C569.434 101.518 568.945 101.674 568.525 101.987C568.262 102.182 568.018 102.526 567.793 103.019H572.122ZM575.044 100.031H582.471V101.935H579.827V108H577.82V101.935H575.044V100.031Z" fill="black"/>
<path d="M669.719 97.226H672.788V108H670.751V99.1522H668.532L669.719 97.226ZM682.858 100.031V100.91C683.22 100.549 683.61 100.278 684.03 100.097C684.45 99.9164 684.899 99.826 685.378 99.826C686.418 99.826 687.302 100.219 688.029 101.005C688.757 101.791 689.121 102.8 689.121 104.03C689.121 105.217 688.745 106.21 687.993 107.011C687.241 107.807 686.35 108.205 685.319 108.205C684.86 108.205 684.433 108.124 684.038 107.963C683.642 107.797 683.249 107.529 682.858 107.158V110.915H680.874V100.031H682.858ZM684.96 101.672C684.331 101.672 683.808 101.887 683.393 102.316C682.978 102.746 682.771 103.307 682.771 104.001C682.771 104.709 682.978 105.283 683.393 105.722C683.808 106.157 684.331 106.374 684.96 106.374C685.571 106.374 686.084 106.152 686.499 105.707C686.918 105.263 687.128 104.697 687.128 104.008C687.128 103.325 686.923 102.766 686.513 102.331C686.103 101.891 685.585 101.672 684.96 101.672ZM696.665 100.031H698.657V108H696.665V107.158C696.274 107.529 695.881 107.797 695.485 107.963C695.095 108.124 694.67 108.205 694.211 108.205C693.181 108.205 692.29 107.807 691.538 107.011C690.786 106.21 690.41 105.217 690.41 104.03C690.41 102.8 690.773 101.791 691.501 101.005C692.229 100.219 693.112 99.826 694.152 99.826C694.631 99.826 695.08 99.9164 695.5 100.097C695.92 100.278 696.308 100.549 696.665 100.91V100.031ZM694.563 101.672C693.942 101.672 693.427 101.891 693.017 102.331C692.607 102.766 692.402 103.325 692.402 104.008C692.402 104.697 692.609 105.263 693.024 105.707C693.444 106.152 693.96 106.374 694.57 106.374C695.2 106.374 695.722 106.157 696.137 105.722C696.552 105.283 696.76 104.709 696.76 104.001C696.76 103.307 696.552 102.746 696.137 102.316C695.722 101.887 695.197 101.672 694.563 101.672ZM702.011 104.623V103.195H702.407C702.675 103.195 702.91 103.132 703.11 103.005C703.31 102.878 703.41 102.673 703.41 102.39C703.41 102.145 703.32 101.945 703.139 101.789C702.963 101.628 702.746 101.547 702.487 101.547C702.16 101.547 701.75 101.706 701.257 102.023L700.466 100.646C701.154 100.099 701.921 99.826 702.766 99.826C703.542 99.826 704.184 100.029 704.692 100.434C705.205 100.834 705.461 101.376 705.461 102.06C705.461 102.753 705.09 103.315 704.348 103.745C705.339 104.111 705.835 104.772 705.835 105.729C705.835 106.442 705.556 107.033 705 107.502C704.443 107.971 703.674 108.205 702.692 108.205C701.613 108.205 700.722 107.902 700.019 107.297L701.125 105.905C701.599 106.257 702.048 106.432 702.473 106.432C702.814 106.432 703.085 106.352 703.286 106.191C703.486 106.025 703.586 105.812 703.586 105.554C703.586 105.305 703.491 105.087 703.3 104.902C703.115 104.716 702.858 104.623 702.531 104.623H702.011ZM711.635 108V100.031H714.836C715.886 100.031 716.599 100.239 716.975 100.654C717.351 101.064 717.539 101.53 717.539 102.053C717.539 102.829 717.153 103.388 716.381 103.73C717.436 104.091 717.963 104.772 717.963 105.773C717.963 106.315 717.824 106.765 717.546 107.121C717.268 107.473 716.914 107.707 716.484 107.824C716.059 107.941 715.463 108 714.697 108H711.635ZM713.642 103.166H714.411C714.738 103.166 714.99 103.085 715.166 102.924C715.346 102.758 715.437 102.575 715.437 102.375C715.437 102.077 715.351 101.845 715.18 101.679C715.009 101.513 714.807 101.43 714.572 101.43L714.316 101.437H713.642V103.166ZM713.642 106.462H714.646C715.036 106.462 715.31 106.371 715.466 106.191C715.627 106.005 715.708 105.825 715.708 105.649C715.708 105.39 715.617 105.153 715.437 104.938C715.261 104.724 714.941 104.616 714.477 104.616H713.642V106.462ZM725.866 102.902H728.84V100.031H730.847V108H728.84V104.697H725.866V108H723.859V100.031H725.866V102.902ZM740.859 104.594H734.436C734.528 105.161 734.775 105.612 735.175 105.949C735.581 106.281 736.096 106.447 736.721 106.447C737.468 106.447 738.11 106.186 738.647 105.663L740.332 106.454C739.912 107.05 739.409 107.492 738.823 107.78C738.237 108.063 737.541 108.205 736.735 108.205C735.485 108.205 734.467 107.812 733.681 107.026C732.895 106.235 732.502 105.246 732.502 104.059C732.502 102.844 732.893 101.835 733.674 101.035C734.46 100.229 735.444 99.826 736.626 99.826C737.88 99.826 738.901 100.229 739.687 101.035C740.473 101.835 740.866 102.895 740.866 104.213L740.859 104.594ZM738.852 103.019C738.72 102.575 738.459 102.214 738.068 101.935C737.683 101.657 737.233 101.518 736.721 101.518C736.164 101.518 735.676 101.674 735.256 101.987C734.992 102.182 734.748 102.526 734.523 103.019H738.852ZM743.518 108V109.384H741.738V106.308H742.939L745.686 100.031H746.975L749.758 106.308H750.981V109.384H749.077V108H743.518ZM747.634 106.308L746.33 102.953L744.982 106.308H747.634ZM760.239 104.594H753.815C753.908 105.161 754.155 105.612 754.555 105.949C754.96 106.281 755.476 106.447 756.101 106.447C756.848 106.447 757.49 106.186 758.027 105.663L759.711 106.454C759.292 107.05 758.789 107.492 758.203 107.78C757.617 108.063 756.921 108.205 756.115 108.205C754.865 108.205 753.847 107.812 753.061 107.026C752.275 106.235 751.882 105.246 751.882 104.059C751.882 102.844 752.272 101.835 753.054 101.035C753.84 100.229 754.824 99.826 756.005 99.826C757.26 99.826 758.281 100.229 759.067 101.035C759.853 101.835 760.246 102.895 760.246 104.213L760.239 104.594ZM758.232 103.019C758.1 102.575 757.839 102.214 757.448 101.935C757.063 101.657 756.613 101.518 756.101 101.518C755.544 101.518 755.056 101.674 754.636 101.987C754.372 102.182 754.128 102.526 753.903 103.019H758.232ZM768.984 108H766.948L764.956 102.968L762.927 108H760.898L764.296 100.031H765.585L768.984 108ZM772.038 108H770.031V100.031H772.038V103.188H773.1C773.344 102.133 773.855 101.31 774.631 100.72C775.412 100.124 776.254 99.826 777.158 99.826C778.325 99.826 779.318 100.231 780.139 101.042C780.964 101.848 781.376 102.836 781.376 104.008C781.376 105.156 780.976 106.142 780.175 106.967C779.375 107.792 778.371 108.205 777.165 108.205C776.203 108.205 775.336 107.902 774.565 107.297C773.798 106.686 773.31 105.927 773.1 105.019H772.038V108ZM779.362 104.016C779.362 103.332 779.157 102.778 778.747 102.353C778.342 101.923 777.819 101.708 777.18 101.708C776.555 101.708 776.037 101.931 775.627 102.375C775.222 102.814 775.019 103.359 775.019 104.008C775.019 104.706 775.222 105.27 775.627 105.7C776.037 106.125 776.555 106.337 777.18 106.337C777.795 106.337 778.313 106.125 778.732 105.7C779.152 105.27 779.362 104.709 779.362 104.016ZM789.221 108H787.214V100.031H794.201V108H792.194V101.957H789.221V108ZM799.973 99.826C800.725 99.826 801.43 100.014 802.089 100.39C802.753 100.766 803.271 101.276 803.642 101.921C804.013 102.565 804.199 103.261 804.199 104.008C804.199 104.76 804.011 105.463 803.635 106.118C803.264 106.772 802.756 107.285 802.111 107.656C801.467 108.022 800.756 108.205 799.98 108.205C798.837 108.205 797.861 107.8 797.05 106.989C796.245 106.174 795.842 105.185 795.842 104.023C795.842 102.778 796.298 101.74 797.211 100.91C798.012 100.187 798.933 99.826 799.973 99.826ZM800.002 101.708C799.382 101.708 798.864 101.926 798.449 102.36C798.039 102.79 797.834 103.342 797.834 104.016C797.834 104.709 798.037 105.27 798.442 105.7C798.852 106.13 799.37 106.345 799.995 106.345C800.62 106.345 801.14 106.127 801.555 105.693C801.97 105.258 802.177 104.699 802.177 104.016C802.177 103.332 801.972 102.778 801.562 102.353C801.157 101.923 800.637 101.708 800.002 101.708ZM811.376 104.623V103.195H811.772C812.041 103.195 812.275 103.132 812.475 103.005C812.675 102.878 812.775 102.673 812.775 102.39C812.775 102.145 812.685 101.945 812.504 101.789C812.329 101.628 812.111 101.547 811.853 101.547C811.525 101.547 811.115 101.706 810.622 102.023L809.831 100.646C810.52 100.099 811.286 99.826 812.131 99.826C812.907 99.826 813.549 100.029 814.057 100.434C814.57 100.834 814.826 101.376 814.826 102.06C814.826 102.753 814.455 103.315 813.713 103.745C814.704 104.111 815.2 104.772 815.2 105.729C815.2 106.442 814.921 107.033 814.365 107.502C813.808 107.971 813.039 108.205 812.058 108.205C810.979 108.205 810.087 107.902 809.384 107.297L810.49 105.905C810.964 106.257 811.413 106.432 811.838 106.432C812.18 106.432 812.451 106.352 812.651 106.191C812.851 106.025 812.951 105.812 812.951 105.554C812.951 105.305 812.856 105.087 812.666 104.902C812.48 104.716 812.224 104.623 811.897 104.623H811.376ZM825.322 104.836H823.718C822.634 104.836 821.799 104.628 821.213 104.213C820.632 103.793 820.341 103.105 820.341 102.148V100.031H822.348V101.994C822.348 102.692 822.814 103.041 823.747 103.041L824.523 103.034H825.322V100.031H827.329V108H825.322V104.836ZM835.239 100.031H837.231V108H835.239V107.158C834.848 107.529 834.455 107.797 834.06 107.963C833.669 108.124 833.244 108.205 832.785 108.205C831.755 108.205 830.864 107.807 830.112 107.011C829.36 106.21 828.984 105.217 828.984 104.03C828.984 102.8 829.348 101.791 830.075 101.005C830.803 100.219 831.687 99.826 832.727 99.826C833.205 99.826 833.654 99.9164 834.074 100.097C834.494 100.278 834.882 100.549 835.239 100.91V100.031ZM833.137 101.672C832.517 101.672 832.001 101.891 831.591 102.331C831.181 102.766 830.976 103.325 830.976 104.008C830.976 104.697 831.184 105.263 831.599 105.707C832.019 106.152 832.534 106.374 833.144 106.374C833.774 106.374 834.296 106.157 834.711 105.722C835.126 105.283 835.334 104.709 835.334 104.001C835.334 103.307 835.126 102.746 834.711 102.316C834.296 101.887 833.772 101.672 833.137 101.672ZM847.053 101.642L845.39 102.558C845.078 102.231 844.768 102.004 844.46 101.877C844.157 101.75 843.801 101.686 843.391 101.686C842.644 101.686 842.038 101.911 841.574 102.36C841.115 102.805 840.886 103.376 840.886 104.074C840.886 104.753 841.108 105.307 841.552 105.737C841.997 106.166 842.58 106.381 843.303 106.381C844.196 106.381 844.892 106.076 845.39 105.466L846.965 106.542C846.11 107.651 844.904 108.205 843.347 108.205C841.945 108.205 840.847 107.79 840.051 106.96C839.26 106.13 838.864 105.158 838.864 104.045C838.864 103.273 839.057 102.563 839.443 101.913C839.829 101.264 840.366 100.754 841.054 100.383C841.748 100.012 842.522 99.826 843.376 99.826C844.167 99.826 844.877 99.9847 845.507 100.302C846.137 100.615 846.652 101.061 847.053 101.642ZM854.751 100.031H856.743V108H854.751V107.158C854.36 107.529 853.967 107.797 853.571 107.963C853.181 108.124 852.756 108.205 852.297 108.205C851.267 108.205 850.376 107.807 849.624 107.011C848.872 106.21 848.496 105.217 848.496 104.03C848.496 102.8 848.859 101.791 849.587 101.005C850.314 100.219 851.198 99.826 852.238 99.826C852.717 99.826 853.166 99.9164 853.586 100.097C854.006 100.278 854.394 100.549 854.751 100.91V100.031ZM852.648 101.672C852.028 101.672 851.513 101.891 851.103 102.331C850.693 102.766 850.488 103.325 850.488 104.008C850.488 104.697 850.695 105.263 851.11 105.707C851.53 106.152 852.045 106.374 852.656 106.374C853.286 106.374 853.808 106.157 854.223 105.722C854.638 105.283 854.846 104.709 854.846 104.001C854.846 103.307 854.638 102.746 854.223 102.316C853.808 101.887 853.283 101.672 852.648 101.672Z" fill="black"/>
<path d="M992.037 9.04346V11.3628H992.794C997.107 11.3628 999.264 13.141 999.264 16.6973C999.264 17.7064 999.093 18.5649 998.751 19.2729C998.417 19.9728 997.921 20.5547 997.262 21.0186C996.611 21.4743 995.935 21.7754 995.235 21.9219C994.544 22.0602 993.478 22.1294 992.037 22.1294V27H988.595V22.1294C987.089 22.1294 985.852 21.9788 984.884 21.6777C983.924 21.3766 983.134 20.807 982.516 19.9688C981.897 19.1224 981.588 18.0645 981.588 16.7949C981.588 15.5986 981.836 14.5895 982.333 13.7676C982.829 12.9456 983.529 12.3394 984.432 11.9487C985.344 11.5581 986.731 11.3628 988.595 11.3628V9.04346H992.037ZM988.595 14.5122H987.801C986.605 14.5122 985.807 14.7075 985.409 15.0981C985.01 15.4806 984.811 16.0422 984.811 16.7827C984.811 17.6535 985.051 18.2557 985.531 18.5894C986.019 18.923 986.731 19.0898 987.667 19.0898H988.595V14.5122ZM992.037 14.5122V19.0898H993.16C994.316 19.0898 995.081 18.8742 995.455 18.4429C995.829 18.0116 996.017 17.45 996.017 16.7583C996.017 16.0503 995.817 15.501 995.418 15.1104C995.028 14.7116 994.234 14.5122 993.038 14.5122H992.037ZM1007.77 13.377C1009.03 13.377 1010.2 13.6903 1011.3 14.3169C1012.41 14.9435 1013.27 15.7939 1013.89 16.8682C1014.51 17.9424 1014.82 19.1021 1014.82 20.3472C1014.82 21.6004 1014.5 22.7723 1013.88 23.8628C1013.26 24.9533 1012.41 25.8078 1011.34 26.4263C1010.26 27.0366 1009.08 27.3418 1007.78 27.3418C1005.88 27.3418 1004.25 26.6663 1002.9 25.3154C1001.56 23.9564 1000.89 22.3084 1000.89 20.3716C1000.89 18.2964 1001.65 16.5671 1003.17 15.1836C1004.5 13.9792 1006.04 13.377 1007.77 13.377ZM1007.82 16.5142C1006.79 16.5142 1005.92 16.8763 1005.23 17.6006C1004.55 18.3167 1004.21 19.2363 1004.21 20.3594C1004.21 21.515 1004.55 22.4508 1005.22 23.167C1005.9 23.8831 1006.77 24.2412 1007.81 24.2412C1008.85 24.2412 1009.72 23.8791 1010.41 23.1548C1011.1 22.4305 1011.45 21.4987 1011.45 20.3594C1011.45 19.2201 1011.1 18.2964 1010.42 17.5884C1009.75 16.8722 1008.88 16.5142 1007.82 16.5142ZM1020.86 13.7188V15.1836C1021.46 14.5814 1022.11 14.1297 1022.81 13.8286C1023.51 13.5275 1024.26 13.377 1025.06 13.377C1026.79 13.377 1028.26 14.0321 1029.48 15.3423C1030.69 16.6525 1031.29 18.333 1031.29 20.3838C1031.29 22.3613 1030.67 24.0174 1029.42 25.3521C1028.16 26.6785 1026.68 27.3418 1024.96 27.3418C1024.19 27.3418 1023.48 27.2075 1022.82 26.939C1022.16 26.6623 1021.51 26.2147 1020.86 25.5962V31.8584H1017.55V13.7188H1020.86ZM1024.36 16.4531C1023.31 16.4531 1022.44 16.8112 1021.75 17.5273C1021.06 18.2435 1020.71 19.1794 1020.71 20.335C1020.71 21.515 1021.06 22.4712 1021.75 23.2036C1022.44 23.9279 1023.31 24.29 1024.36 24.29C1025.38 24.29 1026.23 23.9198 1026.92 23.1792C1027.62 22.4386 1027.97 21.4946 1027.97 20.3472C1027.97 19.2078 1027.63 18.276 1026.95 17.5518C1026.27 16.8193 1025.4 16.4531 1024.36 16.4531ZM1042.18 22.0928L1046.26 13.7188H1048.46L1051.78 27H1048.52L1046.75 19.2119L1042.79 27H1041.43L1037.56 19.2119L1035.77 27H1032.53L1035.85 13.7188H1038.05L1042.18 22.0928ZM1063.45 13.7188H1066.77V27H1063.45V25.5962C1062.8 26.2147 1062.14 26.6623 1061.48 26.939C1060.83 27.2075 1060.12 27.3418 1059.36 27.3418C1057.64 27.3418 1056.16 26.6785 1054.9 25.3521C1053.65 24.0174 1053.02 22.3613 1053.02 20.3838C1053.02 18.333 1053.63 16.6525 1054.84 15.3423C1056.05 14.0321 1057.53 13.377 1059.26 13.377C1060.06 13.377 1060.81 13.5275 1061.51 13.8286C1062.21 14.1297 1062.85 14.5814 1063.45 15.1836V13.7188ZM1059.94 16.4531C1058.91 16.4531 1058.05 16.8193 1057.37 17.5518C1056.69 18.276 1056.34 19.2078 1056.34 20.3472C1056.34 21.4946 1056.69 22.4386 1057.38 23.1792C1058.08 23.9198 1058.94 24.29 1059.96 24.29C1061.01 24.29 1061.88 23.9279 1062.57 23.2036C1063.26 22.4712 1063.61 21.515 1063.61 20.335C1063.61 19.1794 1063.26 18.2435 1062.57 17.5273C1061.88 16.8112 1061 16.4531 1059.94 16.4531ZM1083.38 13.377C1084.64 13.377 1085.81 13.6903 1086.91 14.3169C1088.02 14.9435 1088.88 15.7939 1089.5 16.8682C1090.12 17.9424 1090.43 19.1021 1090.43 20.3472C1090.43 21.6004 1090.11 22.7723 1089.49 23.8628C1088.87 24.9533 1088.02 25.8078 1086.95 26.4263C1085.87 27.0366 1084.69 27.3418 1083.39 27.3418C1081.49 27.3418 1079.86 26.6663 1078.51 25.3154C1077.17 23.9564 1076.5 22.3084 1076.5 20.3716C1076.5 18.2964 1077.26 16.5671 1078.78 15.1836C1080.11 13.9792 1081.65 13.377 1083.38 13.377ZM1083.43 16.5142C1082.4 16.5142 1081.53 16.8763 1080.84 17.6006C1080.16 18.3167 1079.82 19.2363 1079.82 20.3594C1079.82 21.515 1080.16 22.4508 1080.83 23.167C1081.51 23.8831 1082.38 24.2412 1083.42 24.2412C1084.46 24.2412 1085.33 23.8791 1086.02 23.1548C1086.71 22.4305 1087.06 21.4987 1087.06 20.3594C1087.06 19.2201 1086.71 18.2964 1086.03 17.5884C1085.36 16.8722 1084.49 16.5142 1083.43 16.5142ZM1096.49 27H1093.15V13.7188H1104.79V27H1101.45V16.9292H1096.49V27ZM1120.04 27H1116.65L1113.33 18.6138L1109.94 27H1106.56L1112.23 13.7188H1114.38L1120.04 27ZM1131.61 13.7188H1134.93V27H1131.61V25.5962C1130.96 26.2147 1130.31 26.6623 1129.65 26.939C1129 27.2075 1128.29 27.3418 1127.52 27.3418C1125.81 27.3418 1124.32 26.6785 1123.07 25.3521C1121.81 24.0174 1121.19 22.3613 1121.19 20.3838C1121.19 18.333 1121.79 16.6525 1123.01 15.3423C1124.22 14.0321 1125.69 13.377 1127.43 13.377C1128.22 13.377 1128.97 13.5275 1129.67 13.8286C1130.37 14.1297 1131.02 14.5814 1131.61 15.1836V13.7188ZM1128.11 16.4531C1127.08 16.4531 1126.22 16.8193 1125.53 17.5518C1124.85 18.276 1124.51 19.2078 1124.51 20.3472C1124.51 21.4946 1124.85 22.4386 1125.55 23.1792C1126.25 23.9198 1127.1 24.29 1128.12 24.29C1129.17 24.29 1130.04 23.9279 1130.73 23.2036C1131.43 22.4712 1131.77 21.515 1131.77 20.335C1131.77 19.1794 1131.43 18.2435 1130.73 17.5273C1130.04 16.8112 1129.17 16.4531 1128.11 16.4531ZM1137.12 13.7188H1149.5V16.8926H1145.09V27H1141.74V16.8926H1137.12V13.7188ZM1155.01 18.5039H1156C1157.39 18.5039 1158.46 18.6138 1159.2 18.8335C1159.95 19.0451 1160.58 19.4927 1161.09 20.1763C1161.6 20.8599 1161.86 21.7184 1161.86 22.752C1161.86 23.7773 1161.63 24.6318 1161.17 25.3154C1160.7 25.9909 1160.11 26.4425 1159.38 26.6704C1158.67 26.8901 1157.66 27 1156.36 27H1151.67V13.7188H1155.01V18.5039ZM1155.01 24.4365H1156.03C1156.63 24.4365 1157.06 24.3958 1157.33 24.3145C1157.6 24.2249 1157.84 24.0581 1158.04 23.814C1158.24 23.5698 1158.35 23.2728 1158.35 22.9229C1158.35 21.7835 1157.69 21.2139 1156.39 21.2139H1155.01V24.4365ZM1164.18 13.7188H1167.51V27H1164.18V13.7188Z" fill="black"/>
<path d="M1124.96 93C1118.35 93 1113 98.3712 1113 105C1113 111.629 1118.35 117 1124.96 117C1131.56 117 1136.9 111.629 1136.9 105C1136.9 98.3712 1131.55 93 1124.96 93ZM1129.12 111.079C1128.77 111.245 1128.39 111.384 1128.01 111.48C1126.56 111.882 1125.09 111.9 1123.65 111.428C1121.9 110.86 1120.74 109.664 1120.05 107.978C1119.92 107.655 1119.82 107.314 1119.73 106.974H1118.34C1118.11 106.974 1117.93 106.79 1117.93 106.555V105.629C1117.93 105.393 1118.11 105.21 1118.34 105.21H1119.47C1119.47 104.956 1119.47 104.712 1119.47 104.45H1118.34C1118.11 104.45 1117.93 104.266 1117.93 104.031V103.105C1117.93 102.869 1118.11 102.686 1118.34 102.686H1119.79L1119.84 102.546C1120.23 101.306 1120.89 100.249 1121.93 99.4454C1122.75 98.8079 1123.69 98.4585 1124.7 98.2926C1126.15 98.0568 1127.54 98.2576 1128.9 98.7904C1128.98 98.8253 1129.07 98.869 1129.15 98.9127C1129.47 99.1048 1129.56 99.3493 1129.41 99.6987C1129.25 100.065 1129.11 100.432 1128.94 100.799C1128.8 101.114 1128.6 101.21 1128.27 101.131C1127.82 101.026 1127.37 100.886 1126.9 100.79C1125.94 100.59 1124.98 100.581 1124.04 100.956C1123.23 101.279 1122.75 101.891 1122.41 102.668C1122.4 102.677 1122.4 102.686 1122.4 102.694H1125.21C1125.44 102.694 1125.63 102.878 1125.63 103.114V104.039C1125.63 104.275 1125.44 104.459 1125.21 104.459H1122.01C1122 104.703 1122.01 104.956 1122.01 105.218H1125.22C1125.45 105.218 1125.63 105.402 1125.63 105.638V106.563C1125.63 106.799 1125.45 106.983 1125.22 106.983H1122.28C1122.64 107.996 1123.22 108.782 1124.29 109.122C1125.16 109.393 1126.03 109.376 1126.9 109.201C1127.36 109.105 1127.8 108.965 1128.25 108.869C1128.61 108.79 1128.8 108.886 1128.95 109.21C1129.11 109.576 1129.27 109.943 1129.42 110.319C1129.56 110.651 1129.47 110.921 1129.12 111.079Z" fill="#B8B8B8"/>
<path d="M1144.34 109.707L1141.24 100.004H1143.63L1144.81 104.109C1145.14 105.262 1145.44 106.371 1145.67 107.576H1145.71C1145.96 106.406 1146.26 105.262 1146.59 104.153L1147.83 100.004H1150.15L1146.9 109.707H1144.34Z" fill="#B8B8B8"/>
<path d="M1157.43 106.109C1157.43 108.686 1155.61 109.865 1153.73 109.865C1151.68 109.865 1150.11 108.511 1150.11 106.24C1150.11 103.969 1151.59 102.511 1153.85 102.511C1156 102.511 1157.43 103.996 1157.43 106.109ZM1152.35 106.179C1152.35 107.384 1152.85 108.293 1153.79 108.293C1154.63 108.293 1155.18 107.445 1155.18 106.179C1155.18 105.131 1154.78 104.065 1153.79 104.065C1152.74 104.065 1152.35 105.148 1152.35 106.179Z" fill="#B8B8B8"/>
<path d="M1158.78 104.991C1158.78 103.952 1158.75 103.279 1158.72 102.677H1160.6L1160.67 103.969H1160.73C1161.09 102.948 1161.95 102.52 1162.63 102.52C1162.83 102.52 1162.93 102.52 1163.09 102.546V104.607C1162.93 104.581 1162.74 104.546 1162.49 104.546C1161.69 104.546 1161.15 104.974 1161.01 105.655C1160.98 105.795 1160.96 105.969 1160.96 106.144V109.716H1158.78V104.991Z" fill="#B8B8B8"/>
<path d="M1166.37 105.637H1166.39C1166.55 105.349 1166.72 105.061 1166.9 104.79L1168.31 102.677H1170.94L1168.43 105.524L1171.3 109.716H1168.62L1166.92 106.825L1166.37 107.515V109.716H1164.18V99.4977H1166.37V105.637Z" fill="#B8B8B8"/>
<path d="M1176.01 109.707L1175.88 109H1175.84C1175.38 109.559 1174.67 109.865 1173.83 109.865C1172.41 109.865 1171.57 108.825 1171.57 107.707C1171.57 105.882 1173.2 105 1175.68 105.017V104.913C1175.68 104.537 1175.48 104.004 1174.4 104.004C1173.69 104.004 1172.93 104.249 1172.46 104.537L1172.06 103.122C1172.55 102.852 1173.51 102.502 1174.79 102.502C1177.13 102.502 1177.87 103.882 1177.87 105.542V107.987C1177.87 108.659 1177.89 109.314 1177.97 109.699H1176.01V109.707ZM1175.75 106.389C1174.6 106.371 1173.72 106.651 1173.72 107.498C1173.72 108.057 1174.09 108.336 1174.58 108.336C1175.13 108.336 1175.57 107.978 1175.71 107.533C1175.74 107.419 1175.75 107.288 1175.75 107.157V106.389Z" fill="#B8B8B8"/>
<path d="M1179.58 107.795C1179.98 108.039 1180.82 108.327 1181.46 108.327C1182.12 108.327 1182.39 108.1 1182.39 107.734C1182.39 107.367 1182.17 107.201 1181.36 106.93C1179.91 106.441 1179.35 105.646 1179.36 104.817C1179.36 103.506 1180.49 102.511 1182.22 102.511C1183.04 102.511 1183.77 102.694 1184.19 102.913L1183.8 104.424C1183.49 104.249 1182.89 104.022 1182.28 104.022C1181.75 104.022 1181.44 104.24 1181.44 104.598C1181.44 104.93 1181.71 105.105 1182.57 105.402C1183.91 105.865 1184.47 106.537 1184.48 107.576C1184.48 108.886 1183.44 109.847 1181.44 109.847C1180.53 109.847 1179.71 109.646 1179.18 109.358L1179.58 107.795Z" fill="#B8B8B8"/>
<path d="M1185.81 107.795C1186.21 108.039 1187.05 108.327 1187.69 108.327C1188.35 108.327 1188.62 108.1 1188.62 107.734C1188.62 107.367 1188.4 107.201 1187.59 106.93C1186.14 106.441 1185.58 105.646 1185.59 104.817C1185.59 103.506 1186.72 102.511 1188.45 102.511C1189.26 102.511 1190 102.694 1190.42 102.913L1190.03 104.424C1189.72 104.249 1189.12 104.022 1188.51 104.022C1187.98 104.022 1187.67 104.24 1187.67 104.598C1187.67 104.93 1187.94 105.105 1188.8 105.402C1190.13 105.865 1190.7 106.537 1190.71 107.576C1190.71 108.886 1189.67 109.847 1187.67 109.847C1186.76 109.847 1185.94 109.646 1185.41 109.358L1185.81 107.795Z" fill="#B8B8B8"/>
<path d="M1193.73 106.886C1193.8 107.795 1194.68 108.223 1195.7 108.223C1196.45 108.223 1197.05 108.118 1197.64 107.934L1197.93 109.419C1197.22 109.707 1196.34 109.847 1195.39 109.847C1193.01 109.847 1191.65 108.467 1191.65 106.266C1191.65 104.485 1192.75 102.511 1195.19 102.511C1197.45 102.511 1198.31 104.284 1198.31 106.022C1198.31 106.397 1198.27 106.729 1198.24 106.886H1193.73ZM1196.29 105.393C1196.29 104.86 1196.07 103.969 1195.06 103.969C1194.15 103.969 1193.77 104.808 1193.71 105.393H1196.29Z" fill="#B8B8B8"/>
<path d="M1038.45 94.9999H1028.05C1028.66 98.5096 1031.99 101.813 1035.62 101.813H1043.9C1044 101.503 1044 100.987 1044 100.677C1044 97.5805 1041.48 94.9999 1038.45 94.9999Z" fill="#9C9C9C"/>
<path d="M1028.96 102.432V111H1034.01V106.458H1038.45C1040.87 106.458 1042.99 104.703 1043.7 102.432H1028.96Z" fill="#B8B8B8"/>
<path d="M1011.2 94.9999V110.897H1015.64C1015.64 110.897 1016.75 110.897 1017.35 109.761C1020.38 103.671 1021.29 101.813 1021.29 101.813H1021.9V110.897H1026.94V94.9999H1022.5C1022.5 94.9999 1021.39 95.1031 1020.79 96.1354C1018.26 101.4 1016.85 104.084 1016.85 104.084H1016.24V94.9999H1011.2Z" fill="#B8B8B8"/>
<path d="M990.002 111V95.103H995.049C995.049 95.103 996.462 95.103 997.269 97.374C999.288 103.361 999.49 104.187 999.49 104.187C999.49 104.187 999.894 102.742 1001.71 97.374C1002.52 95.103 1003.93 95.103 1003.93 95.103H1008.98V111H1003.93V102.432H1003.33L1000.5 111H998.279L995.452 102.432H994.847V111H990.002Z" fill="#B8B8B8"/>
<path d="M1147.33 65.1429C1147.13 66.6508 1145.93 66.6508 1144.83 66.6508H1144.24L1144.73 63.7355C1144.73 63.5344 1144.93 63.4339 1145.13 63.4339H1145.43C1146.23 63.4339 1146.93 63.4339 1147.33 63.836C1147.33 64.2381 1147.33 64.6402 1147.33 65.1429ZM1146.83 61.1217H1142.54C1142.24 61.1217 1142.04 61.3228 1141.94 61.6243L1140.25 72.6825C1140.25 72.8836 1140.35 73.0847 1140.65 73.0847H1142.64C1142.94 73.0847 1143.14 72.8836 1143.24 72.582L1143.74 69.5661C1143.74 69.2646 1144.04 69.0635 1144.34 69.0635H1145.73C1148.52 69.0635 1150.12 67.6561 1150.62 64.9418C1150.82 63.7355 1150.62 62.8307 1150.12 62.127C1149.32 61.5238 1148.23 61.1217 1146.83 61.1217Z" fill="#B8B8B8"/>
<path d="M1156.7 69.164C1156.5 70.3703 1155.61 71.1746 1154.41 71.1746C1153.81 71.1746 1153.31 70.9735 1153.01 70.5714C1152.71 70.1693 1152.61 69.6666 1152.71 69.164C1152.91 67.9576 1153.81 67.1534 1155.01 67.1534C1155.61 67.1534 1156.1 67.3545 1156.4 67.7566C1156.6 68.0582 1156.8 68.5608 1156.7 69.164ZM1159.5 65.1428H1157.5C1157.3 65.1428 1157.2 65.2434 1157.1 65.4444L1157 66.0476L1156.9 65.8465C1156.5 65.2434 1155.51 64.9418 1154.51 64.9418C1152.21 64.9418 1150.32 66.6508 1149.92 69.0635C1149.72 70.2698 1150.02 71.3756 1150.72 72.1799C1151.32 72.8836 1152.21 73.1852 1153.31 73.1852C1155.11 73.1852 1156.1 71.9788 1156.1 71.9788L1156 72.582C1156 72.783 1156.1 72.9841 1156.4 72.9841H1158.2C1158.5 72.9841 1158.7 72.783 1158.8 72.4815L1159.89 65.4444C1159.89 65.3439 1159.79 65.1428 1159.5 65.1428Z" fill="#B8B8B8"/>
<path d="M1170.37 65.1428H1168.27C1168.07 65.1428 1167.87 65.2434 1167.77 65.4444L1164.98 69.6666L1163.78 65.6455C1163.68 65.3439 1163.48 65.2433 1163.18 65.2433H1161.19C1160.99 65.2433 1160.79 65.4444 1160.89 65.746L1163.18 72.3809L1161.09 75.3968C1160.89 75.5978 1161.09 76 1161.39 76H1163.48C1163.68 76 1163.88 75.8994 1163.98 75.6984L1170.76 65.746C1170.86 65.4444 1170.66 65.1428 1170.37 65.1428Z" fill="#B8B8B8"/>
<path d="M1177.65 65.1429C1177.45 66.6508 1176.25 66.6508 1175.15 66.6508H1174.55L1175.05 63.7355C1175.05 63.5344 1175.25 63.4339 1175.45 63.4339H1175.75C1176.55 63.4339 1177.25 63.4339 1177.65 63.836C1177.75 64.2381 1177.75 64.6402 1177.65 65.1429ZM1177.15 61.1217H1172.86C1172.56 61.1217 1172.36 61.3228 1172.26 61.6243L1170.56 72.6825C1170.56 72.8836 1170.66 73.0847 1170.96 73.0847H1173.16C1173.36 73.0847 1173.56 72.9841 1173.56 72.6825L1174.06 69.5661C1174.06 69.2646 1174.35 69.0635 1174.65 69.0635H1176.05C1178.84 69.0635 1180.44 67.6561 1180.94 64.9418C1181.14 63.7355 1180.94 62.8307 1180.44 62.127C1179.74 61.5238 1178.64 61.1217 1177.15 61.1217Z" fill="#9C9C9C"/>
<path d="M1187.12 69.164C1186.92 70.3703 1186.03 71.1746 1184.83 71.1746C1184.23 71.1746 1183.73 70.9735 1183.43 70.5714C1183.13 70.1693 1183.03 69.6666 1183.13 69.164C1183.33 67.9576 1184.23 67.1534 1185.43 67.1534C1186.03 67.1534 1186.53 67.3545 1186.83 67.7566C1187.02 68.0582 1187.22 68.5608 1187.12 69.164ZM1189.92 65.1428H1187.92C1187.72 65.1428 1187.62 65.2434 1187.52 65.4444L1187.42 66.0476L1187.32 65.8465C1186.92 65.2434 1185.93 64.9418 1184.93 64.9418C1182.64 64.9418 1180.74 66.6508 1180.34 69.0635C1180.14 70.2698 1180.44 71.3756 1181.14 72.1799C1181.74 72.8836 1182.64 73.1852 1183.73 73.1852C1185.53 73.1852 1186.53 71.9788 1186.53 71.9788L1186.43 72.582C1186.43 72.783 1186.53 72.9841 1186.83 72.9841H1188.62C1188.92 72.9841 1189.12 72.783 1189.22 72.4815L1190.32 65.4444C1190.32 65.3439 1190.12 65.1428 1189.92 65.1428Z" fill="#9C9C9C"/>
<path d="M1192.31 61.4233L1190.51 72.6825C1190.51 72.8836 1190.61 73.0847 1190.91 73.0847H1192.71C1193.01 73.0847 1193.21 72.8836 1193.31 72.582L1195 61.5238C1195 61.3228 1194.9 61.1217 1194.6 61.1217H1192.61C1192.51 61.1217 1192.41 61.3228 1192.31 61.4233Z" fill="#9C9C9C"/>
<path d="M1122.49 75.1955L1122.79 73.0844H1122.09H1118.6L1120.99 57.7034C1120.99 57.7034 1120.99 57.6029 1121.09 57.6029H1121.19H1127.08C1128.97 57.6029 1130.37 58.005 1131.07 58.8093C1131.37 59.2114 1131.57 59.6135 1131.67 60.0156C1131.77 60.5183 1131.77 61.0209 1131.67 61.7246V62.1267L1131.97 62.3278C1132.26 62.4283 1132.46 62.6294 1132.66 62.8304C1132.96 63.132 1133.16 63.5341 1133.16 64.0368C1133.26 64.5394 1133.26 65.1426 1133.06 65.8463C1132.86 66.6505 1132.66 67.2537 1132.36 67.8569C1132.06 68.3595 1131.67 68.7616 1131.27 69.1638C1130.87 69.4653 1130.27 69.6664 1129.77 69.8675C1129.17 69.968 1128.57 70.0685 1127.88 70.0685H1127.38C1127.08 70.0685 1126.78 70.169 1126.48 70.3701C1126.28 70.5712 1126.08 70.8727 1125.98 71.1743V71.3754L1125.38 75.095V75.1955V75.296C1125.38 75.296 1125.38 75.296 1125.28 75.296H1122.49V75.1955Z" fill="#B8B8B8"/>
<path d="M1132.37 61.7247C1132.37 61.8253 1132.37 61.9258 1132.27 62.0263C1131.47 66.0475 1128.87 67.3544 1125.48 67.3544H1123.79C1123.39 67.3544 1122.99 67.656 1122.99 68.0581L1122.09 73.6877L1121.89 75.2962C1121.89 75.5977 1122.09 75.7988 1122.29 75.7988H1125.38C1125.78 75.7988 1126.08 75.4972 1126.08 75.1956V74.9946L1126.68 71.3755V71.1745C1126.78 70.7724 1127.08 70.5713 1127.38 70.5713H1127.88C1130.87 70.5713 1133.16 69.3649 1133.76 65.8464C1134.06 64.3385 1133.86 63.1321 1133.16 62.3279C1132.96 62.1269 1132.66 61.9258 1132.37 61.7247Z" fill="#9C9C9C"/>
<path d="M1131.57 61.4233C1131.47 61.4233 1131.37 61.3228 1131.17 61.3228C1131.07 61.3228 1130.87 61.2222 1130.77 61.2222C1130.27 61.1217 1129.77 61.1217 1129.27 61.1217H1124.68C1124.58 61.1217 1124.48 61.1217 1124.38 61.2222C1124.19 61.3228 1123.99 61.5238 1123.99 61.7249L1122.99 67.9577V68.1587C1123.09 67.7566 1123.39 67.455 1123.79 67.455H1125.48C1128.87 67.455 1131.47 66.0476 1132.26 62.127C1132.26 62.0265 1132.26 61.9259 1132.36 61.8254C1132.16 61.7249 1131.97 61.6244 1131.77 61.5238C1131.67 61.4233 1131.57 61.4233 1131.57 61.4233Z" fill="#585858"/>
<path d="M1123.99 61.7247C1123.99 61.5237 1124.19 61.3226 1124.39 61.2221C1124.49 61.2221 1124.58 61.1216 1124.68 61.1216H1129.27C1129.77 61.1216 1130.37 61.1216 1130.77 61.2221C1130.87 61.2221 1131.07 61.2221 1131.17 61.3226C1131.27 61.3226 1131.37 61.4232 1131.57 61.4232C1131.67 61.4232 1131.67 61.4232 1131.77 61.5237C1131.97 61.6242 1132.17 61.7247 1132.36 61.8253C1132.56 60.3173 1132.36 59.312 1131.57 58.4073C1130.67 57.402 1129.07 56.9999 1127.08 56.9999H1121.19C1120.79 56.9999 1120.4 57.3015 1120.4 57.7036L1118 73.1851C1118 73.4866 1118.2 73.7882 1118.5 73.7882H1122.09L1122.99 67.9576L1123.99 61.7247Z" fill="#B8B8B8"/>
<path d="M1043.43 57.3H1039.15C1037.86 57.3 1036.87 57.7 1036.27 59L1028.12 77.7H1033.89C1033.89 77.7 1034.88 75.2001 1035.08 74.6C1035.67 74.6 1041.34 74.6 1042.14 74.6C1042.34 75.3001 1042.83 77.6 1042.83 77.6H1048L1043.43 57.3ZM1036.67 70.4C1037.17 69.2 1038.86 64.7 1038.86 64.7C1038.86 64.8 1039.35 63.5 1039.55 62.8L1039.95 64.6C1039.95 64.6 1041.04 69.5 1041.24 70.5H1036.67V70.4Z" fill="#3362AB"/>
<path d="M1028.52 70.9999C1028.52 75.1999 1024.74 77.9999 1018.87 77.9999C1016.39 77.9999 1014 77.4999 1012.71 76.8999L1013.5 72.2999L1014.2 72.5999C1015.99 73.3999 1017.18 73.6999 1019.37 73.6999C1020.96 73.6999 1022.65 73.0999 1022.65 71.6999C1022.65 70.7999 1021.95 70.1999 1019.77 69.1999C1017.68 68.1999 1014.9 66.5999 1014.9 63.6999C1014.9 59.6999 1018.77 56.9999 1024.24 56.9999C1026.33 56.9999 1028.12 57.3999 1029.21 57.8999L1028.42 62.2999L1028.02 61.8999C1027.02 61.4999 1025.73 61.0999 1023.84 61.0999C1021.76 61.1999 1020.76 62.0999 1020.76 62.8999C1020.76 63.7999 1021.95 64.4999 1023.84 65.3999C1027.02 66.8999 1028.52 68.5999 1028.52 70.9999Z" fill="#3362AB"/>
<path d="M980.002 57.4999L980.101 57.0999H988.651C989.844 57.0999 990.739 57.4999 991.037 58.7999L992.926 67.7999C991.037 62.9999 986.663 59.0999 980.002 57.4999Z" fill="#F9B50B"/>
<path d="M1004.96 57.2998L996.307 77.5998H990.441L985.471 60.5998C989.05 62.8998 992.032 66.4998 993.126 68.9998L993.722 71.0998L999.091 57.1998H1004.96V57.2998Z" fill="#3362AB"/>
<path d="M1007.24 57.1998H1012.71L1009.23 77.5998H1003.76L1007.24 57.1998Z" fill="#3362AB"/>
<path d="M1045.41 82.6653L1048.16 81.7396L1049.04 81.4438L1048.31 80.8721L1040.31 74.6064L1039.5 73.9733V75V86.1142V87.2432L1040.34 86.4845L1042.7 84.3418C1042.7 84.3437 1042.7 84.3457 1042.7 84.3479L1042.7 84.3479L1042.7 84.3506L1045.26 89.2317L1045.52 89.737L1045.99 89.409L1047.67 88.2248L1048.03 87.9726L1047.83 87.584L1045.38 82.9171C1045.36 82.8669 1045.35 82.7959 1045.37 82.7325C1045.38 82.7043 1045.39 82.6833 1045.41 82.671C1045.41 82.6685 1045.41 82.6666 1045.41 82.6653Z" fill="white" stroke="#333333"/>
</svg>
