<svg width="218" height="59" viewBox="0 0 218 59" fill="none" xmlns="http://www.w3.org/2000/svg">
<path d="M92.9902 10.5286H98.6186C102.247 10.5286 104.943 10.9833 106.711 11.8869C108.473 12.7907 109.928 14.2598 111.07 16.3001C112.212 18.335 112.78 20.7135 112.78 23.436C112.78 25.3719 112.461 27.1497 111.823 28.7706C111.186 30.3913 110.299 31.7382 109.174 32.8109C108.05 33.8779 106.832 34.6183 105.522 35.032C104.212 35.4402 101.94 35.6441 98.7059 35.6441H92.9902V10.5286ZM97.7204 15.1459V30.9917H99.923C102.097 30.9917 103.667 30.7409 104.647 30.2397C105.627 29.7383 106.427 28.8929 107.047 27.7095C107.667 26.526 107.98 25.0685 107.98 23.3312C107.98 20.667 107.238 18.5972 105.76 17.1281C104.427 15.8045 102.282 15.1459 99.3315 15.1459H97.7204ZM116.959 10.5286H121.689V35.6441H116.959V10.5286ZM150.127 14.6327L146.782 17.9619C144.666 15.7115 142.197 14.5862 139.38 14.5862C136.928 14.5862 134.87 15.4023 133.213 17.0409C131.555 18.679 130.726 20.667 130.726 23.0106C130.726 25.43 131.584 27.4823 133.305 29.1669C135.027 30.852 137.148 31.6916 139.67 31.6916C141.31 31.6916 142.696 31.3416 143.82 30.6479C144.945 29.954 145.855 28.8696 146.544 27.3889H139.316V22.9116H151.872L151.906 23.9669C151.906 26.1646 151.338 28.246 150.208 30.2165C149.072 32.1812 147.605 33.6852 145.808 34.7231C144.006 35.7548 141.89 36.2741 139.467 36.2741C136.876 36.2741 134.563 35.7083 132.528 34.5774C130.494 33.4404 128.888 31.8314 127.7 29.7383C126.517 27.6397 125.926 25.3835 125.926 22.9581C125.926 19.6349 127.022 16.7431 129.207 14.2889C131.798 11.3625 135.177 9.89893 139.334 9.89893C141.507 9.89893 143.542 10.3011 145.438 11.1116C147.032 11.7934 148.597 12.9713 150.127 14.6327ZM155.9 10.5286H160.63V35.6441H155.9V10.5286ZM163.546 10.5286H177.353V15.2508H172.797V35.6441H167.963V15.2508H163.546V10.5286ZM188.222 10.5286H193.01L202.62 35.6441H197.676L195.728 30.4673H185.492L183.498 35.6441H178.553L188.222 10.5286ZM190.622 17.2039L187.236 25.8498H193.989L190.622 17.2039ZM206.278 10.5286H211.008V31.0968H217.999V35.6441H206.278V10.5286Z" fill="#F65C2C"/>
<path d="M159.178 41.2764H160.8L164.055 49.7846H162.38L161.721 48.0307H158.253L157.577 49.7846H155.902L159.178 41.2764ZM159.991 43.5375L158.844 46.4668H161.131L159.991 43.5375ZM165.318 41.2764H166.944V44.2191L169.234 41.2764H171.176L168.22 45.0744L171.462 49.7846H169.552L166.944 45.9947V49.7846H165.318V41.2764ZM175.199 41.2764H176.822L180.077 49.7846H178.402L177.742 48.0307H174.274L173.599 49.7846H171.924L175.199 41.2764ZM176.012 43.5375L174.866 46.4668H177.153L176.012 43.5375ZM181.34 41.2764H183.247C184.476 41.2764 185.389 41.4304 185.988 41.7364C186.585 42.0425 187.078 42.5403 187.464 43.2317C187.851 43.9209 188.044 44.7267 188.044 45.6489C188.044 46.3047 187.936 46.9072 187.72 47.456C187.504 48.0052 187.204 48.4615 186.822 48.8247C186.441 49.1862 186.029 49.437 185.585 49.5772C185.141 49.7156 184.372 49.7846 183.276 49.7846H181.34V41.2764ZM182.942 42.8405V48.2084H183.688C184.425 48.2084 184.957 48.1237 185.289 47.9538C185.621 47.7842 185.892 47.4976 186.102 47.0965C186.312 46.6957 186.418 46.2021 186.418 45.6133C186.418 44.7107 186.167 44.0096 185.666 43.5122C185.214 43.0636 184.488 42.8405 183.488 42.8405H182.942ZM189.589 41.2764H194.207V42.8644H191.191V44.3928H194.207V45.9571H191.191V48.1968H194.207V49.7846H189.589V41.2764ZM196.515 41.2764H198.076L200.045 47.2112L202.025 41.2764H203.582L205 49.7846H203.447L202.543 44.4109L200.752 49.7846H199.331L197.548 44.4109L196.627 49.7846H195.056L196.515 41.2764Z" fill="#F65C2C"/>
<path d="M213.123 41.2764H214.745L218 49.7846H216.326L215.666 48.0307H212.198L211.522 49.7846H209.848L213.123 41.2764ZM213.936 43.5375L212.789 46.4668H215.077L213.936 43.5375Z" fill="#F65C2C"/>
<path d="M206.331 41.2764H208.744V49.7846H207.142V42.7931H205.398L206.331 41.2764Z" fill="#F65C2C"/>
<path fill-rule="evenodd" clip-rule="evenodd" d="M16.681 14.1239C24.3986 15.5045 35.6903 19.3858 34.3174 27.1481C32.9449 34.9102 19.4275 43.6131 11.7097 42.2325C3.99238 40.8517 -1.15096 33.4402 0.221722 25.6781C1.5944 17.9163 8.96368 12.7428 16.681 14.1239ZM20.8073 12.3883C24.2725 5.06345 31.6976 0 40.2998 0C52.2151 0 61.875 9.71537 61.875 21.6997C61.875 28.1659 59.0626 33.9717 54.6013 37.9472C50.7942 41.3395 45.786 43.3994 40.2998 43.3994C35.6972 43.3994 31.432 41.9491 27.9294 39.4792C32.7369 35.9698 36.54 31.4433 37.299 27.1526C38.6917 19.2772 29.3903 14.6796 20.8073 12.3883ZM18.0815 11.6354C15.5399 11.1485 13.3104 10.9393 10.7455 11.4664C9.86849 9.89243 9.69981 7.53428 10.4906 5.72426C11.5861 3.21589 15.0985 1.69111 17.6667 2.60942C19.5044 3.26753 20.8582 4.68971 21.4034 6.39377C20.0976 7.97802 18.9701 9.75696 18.0815 11.6354ZM81.8312 29.2498C79.1574 29.728 75.2454 31.0728 75.721 33.7623C76.1964 36.4515 80.8797 39.4666 83.5535 38.9883C86.2273 38.5099 88.0094 35.942 87.5337 33.2528C87.0581 30.5636 84.505 28.7715 81.8312 29.2498ZM79.7717 21.5253C79.096 24.9764 76.6985 27.6524 73.6206 28.5917C72.9799 28.7871 72.3093 28.892 71.6201 28.928C69.5526 27.4653 67.1877 26.3997 64.6349 25.8402C64.8142 24.6449 64.9078 23.4212 64.9078 22.1756C64.9078 19.5246 64.4853 16.9736 63.7067 14.5844C63.9278 14.2638 64.1683 13.9616 64.4306 13.6815C66.6363 11.3262 70.0858 10.3572 73.4593 11.2835C77.4882 12.3898 80.5781 17.4028 79.7717 21.5253ZM45.5256 45.0223C46.179 52.8508 52.7026 59 60.6555 59C69.0416 59 75.8403 52.1623 75.8403 43.7276C75.8403 36.4088 70.7215 30.2934 63.8883 28.803C61.4043 37.2084 54.294 43.6104 45.5256 45.0223Z" fill="#F65C2C"/>
</svg>
