<svg width="88" height="59" viewBox="0 0 88 59" fill="none" xmlns="http://www.w3.org/2000/svg">
<path fill-rule="evenodd" clip-rule="evenodd" d="M16.6803 14.1222C24.3979 15.5027 35.6896 19.3838 34.3167 27.1454C32.9442 34.9069 19.4268 43.6091 11.709 42.2286C3.99165 40.8479 -1.15169 33.437 0.220989 25.6755C1.59367 17.9143 8.96295 12.7413 16.6803 14.1222ZM20.8066 12.3868C24.2718 5.06255 31.6969 -0.000488281 40.2991 -0.000488281C52.2145 -0.000488281 61.8744 9.71409 61.8744 21.6975C61.8744 28.1631 59.0619 33.9685 54.6007 37.9436C50.7936 41.3356 45.7853 43.3954 40.2991 43.3954C35.6965 43.3954 31.4313 41.9452 27.9287 39.4755C32.7362 35.9664 36.5393 31.4402 37.2983 27.1499C38.691 19.2751 29.3896 14.6779 20.8066 12.3868ZM18.0808 11.6339C15.5392 11.1471 13.3097 10.9379 10.7448 11.465C9.86777 9.89114 9.69908 7.53318 10.4899 5.7233C11.5854 3.21514 15.0978 1.69048 17.666 2.60872C19.5037 3.26678 20.8575 4.68884 21.4027 6.39276C20.0969 7.97688 18.9694 9.75568 18.0808 11.6339ZM81.8305 29.247C79.1567 29.7251 75.2447 31.0698 75.7203 33.7591C76.1957 36.448 80.879 39.463 83.5528 38.9846C86.2266 38.5063 88.0087 35.9386 87.5331 33.2496C87.0574 30.5606 84.5043 28.7686 81.8305 29.247ZM79.771 21.5231C79.0954 24.9739 76.6978 27.6497 73.62 28.5889C72.9792 28.7843 72.3086 28.8891 71.6194 28.9251C69.5519 27.4626 67.1871 26.3971 64.6342 25.8376C64.8135 24.6424 64.9071 23.4188 64.9071 22.1733C64.9071 19.5226 64.4846 16.9717 63.706 14.5827C63.9272 14.2621 64.1677 13.9599 64.4299 13.6799C66.6356 11.3248 70.0851 10.3558 73.4586 11.2821C77.4875 12.3883 80.5774 17.4009 79.771 21.5231ZM45.5249 45.0182C46.1783 52.846 52.7019 58.9947 60.6548 58.9947C69.0409 58.9947 75.8397 52.1576 75.8397 43.7235C75.8397 36.4054 70.7208 30.2904 63.8876 28.8002C61.4036 37.2049 54.2933 43.6064 45.5249 45.0182Z" fill="white"/>
</svg>
