<svg width="50" height="9" viewBox="0 0 50 9" fill="none" xmlns="http://www.w3.org/2000/svg">
<path d="M4.17637 0.272461H5.79863L9.0541 8.78072H7.37914L6.71948 7.0268H3.25153L2.57609 8.78072H0.901123L4.17637 0.272461ZM4.9894 2.53359L3.84274 5.4629H6.13027L4.9894 2.53359ZM10.3168 0.272461H11.943V3.21517L14.2325 0.272461H16.1747L13.2193 4.07045L16.4612 8.78072H14.5506L11.943 4.99077V8.78072H10.3168V0.272461ZM20.198 0.272461H21.8203L25.0758 8.78072H23.401L22.7411 7.0268H19.2732L18.5978 8.78072H16.9228L20.198 0.272461ZM21.0113 2.53359L19.8644 5.4629H22.1522L21.0113 2.53359ZM26.3385 0.272461H28.2454C29.4745 0.272461 30.3878 0.426484 30.9866 0.732514C31.5836 1.03855 32.0763 1.53637 32.4633 2.22779C32.85 2.91697 33.0427 3.72284 33.0427 4.64496C33.0427 5.30083 32.9347 5.90328 32.7187 6.45208C32.5026 7.00132 32.2024 7.45758 31.8212 7.82084C31.4402 8.18231 31.0279 8.43313 30.5841 8.57329C30.1402 8.71166 29.3705 8.78072 28.275 8.78072H26.3385V0.272461ZM27.9409 1.83659V7.20452H28.6873C29.4234 7.20452 29.9557 7.11981 30.2878 6.94992C30.6194 6.78025 30.8903 6.49365 31.1006 6.09262C31.3106 5.6918 31.4167 5.19823 31.4167 4.60942C31.4167 3.70675 31.1655 3.00571 30.6647 2.50833C30.2129 2.05968 29.4863 1.83659 28.487 1.83659H27.9409ZM34.5877 0.272461H39.2062V1.86051H36.1902V3.38888H39.2062V4.95322H36.1902V7.19291H39.2062V8.78072H34.5877V0.272461ZM41.5135 0.272461H43.0749L45.0441 6.20729L47.0238 0.272461H48.581L49.9986 8.78072H48.4456L47.5419 3.40698L45.7512 8.78072H44.3296L42.5464 3.40698L41.6256 8.78072H40.0548L41.5135 0.272461Z" fill="white"/>
</svg>
