<svg width="126" height="28" viewBox="0 0 126 28" fill="none" xmlns="http://www.w3.org/2000/svg">
<path d="M0.990723 1.52737H6.61905C10.2479 1.52737 12.9432 1.98202 14.7111 2.8855C16.4732 3.78921 17.9283 5.25821 19.0703 7.29832C20.2123 9.33306 20.7804 11.7114 20.7804 14.4337C20.7804 16.3694 20.4614 18.1471 19.824 19.7679C19.1863 21.3884 18.2993 22.7352 17.1747 23.8078C16.0502 24.8747 14.8329 25.615 13.5229 26.0288C12.2129 26.4369 9.94073 26.6408 6.70639 26.6408H0.990723V1.52737ZM5.72089 6.14427V21.9888H7.92348C10.0972 21.9888 11.6679 21.738 12.6476 21.2369C13.6271 20.7355 14.4271 19.8901 15.0474 18.7068C15.6677 17.5235 15.9807 16.0661 15.9807 14.3288C15.9807 11.6649 15.2388 9.59526 13.7607 8.12626C12.4274 6.80277 10.2826 6.14427 7.33204 6.14427H5.72089ZM24.9596 1.52737H29.6895V26.6408H24.9596V1.52737ZM58.1276 5.63105L54.7827 8.96C52.6668 6.70978 50.1977 5.58456 47.3806 5.58456C44.9286 5.58456 42.8709 6.40066 41.2131 8.03909C39.5552 9.67708 38.7262 11.6649 38.7262 14.0083C38.7262 16.4275 39.5841 18.4797 41.3057 20.1642C43.0274 21.8491 45.1488 22.6887 47.6702 22.6887C49.3109 22.6887 50.6963 22.3386 51.8209 21.645C52.9453 20.9512 53.8555 19.8669 54.5449 18.3862H47.317V13.9093H59.8721L59.9067 14.9646C59.9067 17.162 59.3389 19.2432 58.2084 21.2136C57.0723 23.1782 55.6058 24.6821 53.8088 25.7199C52.0061 26.7514 49.8906 27.2707 47.4675 27.2707C44.8764 27.2707 42.5637 26.7049 40.5289 25.5741C38.4944 24.4373 36.8887 22.8284 35.7005 20.7355C34.5179 18.6371 33.9267 16.381 33.9267 13.9558C33.9267 10.6329 35.0222 7.74135 37.2075 5.28728C39.7986 2.36112 43.1778 0.897705 47.3341 0.897705C49.5078 0.897705 51.5424 1.29983 53.4381 2.11033C55.0321 2.79208 56.5971 3.96982 58.1276 5.63105ZM63.9008 1.52737H68.6307V26.6408H63.9008V1.52737ZM71.5463 1.52737H85.3536V6.24911H80.7975V26.6408H75.9633V6.24911H71.5463V1.52737ZM96.2224 1.52737H101.01L110.621 26.6408H105.676L103.729 21.4644H93.4921L91.4982 26.6408H86.5536L96.2224 1.52737ZM98.6222 8.20204L95.2369 16.8473H101.99L98.6222 8.20204ZM114.278 1.52737H119.009V22.0939H125.999V26.6408H114.278V1.52737Z" fill="white"/>
</svg>
