<svg width="44" height="44" viewBox="0 0 44 44" fill="none" xmlns="http://www.w3.org/2000/svg">
<circle r="22" transform="matrix(-1 0 0 1 22 22.0002)" fill="#FF6B00"/>
<g clip-path="url(#clip0_1738_259)">
<path d="M16.4442 21.2198L25.3445 12.3198C25.5503 12.1137 25.8251 12.0002 26.1181 12.0002C26.4111 12.0002 26.6859 12.1137 26.8918 12.3198L27.5472 12.975C27.9737 13.402 27.9737 14.096 27.5472 14.5223L20.0734 21.9961L27.5555 29.4782C27.7613 29.6842 27.875 29.9588 27.875 30.2516C27.875 30.5448 27.7613 30.8194 27.5555 31.0256L26.9 31.6807C26.694 31.8867 26.4194 32.0002 26.1264 32.0002C25.8334 32.0002 25.5586 31.8867 25.3527 31.6807L16.4442 22.7725C16.2379 22.5658 16.1245 22.2899 16.1252 21.9966C16.1245 21.7021 16.2379 21.4263 16.4442 21.2198Z" fill="white"/>
</g>
<defs>
<clipPath id="clip0_1738_259">
<rect width="20" height="20" fill="white" transform="matrix(-1 0 0 1 32 12.0002)"/>
</clipPath>
</defs>
</svg>
