<svg width="12" height="12" viewBox="0 0 12 12" fill="none" xmlns="http://www.w3.org/2000/svg">
<g clip-path="url(#clip0_22_1325)">
<path d="M11.9531 6.18468C12.0156 6.0695 12.0156 5.93019 11.9531 5.81501C10.8067 3.70437 8.57074 2.27148 6.00001 2.27148C3.42929 2.27148 1.19326 3.70439 0.0469118 5.81501C-0.0156373 5.93019 -0.0156373 6.0695 0.0469118 6.18468C1.19328 8.29532 3.42925 9.72823 5.99999 9.72823C8.57074 9.72823 10.8067 8.29532 11.9531 6.18468ZM5.99999 8.85976C4.4205 8.85976 3.14009 7.57932 3.14009 5.99986C3.14009 4.42039 4.4205 3.13993 5.99999 3.13993C7.57948 3.13993 8.85991 4.42037 8.85991 5.99986C8.85991 7.57934 7.57948 8.85976 5.99999 8.85976Z" fill="#868686"/>
<path d="M5.99995 4.54248C5.87964 4.54248 5.76279 4.55717 5.65097 4.58464C5.7655 4.71719 5.83495 4.88979 5.83495 5.07872C5.83495 5.49636 5.49638 5.83495 5.07872 5.83495C4.88979 5.83495 4.71719 5.76552 4.58464 5.65097C4.55717 5.7628 4.54248 5.87964 4.54248 5.99995C4.54248 6.80489 5.19501 7.4574 5.99993 7.4574C6.80485 7.4574 7.45738 6.80487 7.45738 5.99995C7.45738 5.19503 6.80489 4.54248 5.99995 4.54248Z" fill="#868686"/>
</g>
<defs>
<clipPath id="clip0_22_1325">
<rect width="12" height="12" fill="white"/>
</clipPath>
</defs>
</svg>
