<svg width="21" height="13" viewBox="0 0 21 13" fill="none" xmlns="http://www.w3.org/2000/svg">
<path d="M11.3194 12.3351L20.6624 2.98799C20.8787 2.7718 20.9978 2.4832 20.9978 2.17548C20.9978 1.86775 20.8787 1.57915 20.6624 1.36295L19.9745 0.674567C19.5263 0.22663 18.7978 0.226612 18.3502 0.674527L10.5045 8.52355L2.65014 0.665433C2.43387 0.449234 2.14557 0.32986 1.83815 0.329852C1.5304 0.329844 1.2421 0.449205 1.02566 0.665393L0.337942 1.35375C0.121675 1.5701 0.00253289 1.85853 0.00253288 2.16626C0.00253287 2.47398 0.121675 2.76258 0.337942 2.97878L9.68947 12.3351C9.90642 12.5518 10.1961 12.6708 10.504 12.6702C10.8131 12.6709 11.1026 12.5518 11.3194 12.3351Z" fill="white"/>
</svg>
