<svg width="20" height="25" viewBox="0 0 20 25" fill="none" xmlns="http://www.w3.org/2000/svg">
<path d="M2.73088 7.52913C2.38559 5.25263 3.99328 3.20269 6.44922 2.4505C6.88528 2.31704 7.35583 2.35497 7.76489 2.55655C8.17395 2.75813 8.49069 3.10818 8.6505 3.53528L9.43803 5.63779C9.56465 5.97599 9.58735 6.34431 9.50323 6.6955C9.4191 7.04669 9.23199 7.36475 8.96588 7.60888L6.62322 9.7576C6.50768 9.86374 6.42159 9.99798 6.37331 10.1473C6.32503 10.2965 6.31622 10.4558 6.34772 10.6095L6.36856 10.7037L6.42656 10.9403C6.47822 11.1396 6.55616 11.4206 6.66581 11.7559C6.88331 12.422 7.23041 13.3173 7.74697 14.2118C8.26353 15.1063 8.86528 15.8548 9.33291 16.3759C9.57645 16.6473 9.83102 16.9085 10.096 17.1589L10.1685 17.226C10.2856 17.3298 10.4277 17.4014 10.5808 17.434C10.7339 17.4666 10.8928 17.4589 11.0421 17.4118L14.0744 16.4575C14.4189 16.3492 14.788 16.3463 15.1341 16.4492C15.4803 16.552 15.7879 16.7559 16.0174 17.0348L17.452 18.7766C18.0501 19.5016 17.9794 20.5673 17.2916 21.2081C15.412 22.9598 12.8274 23.3196 11.0294 21.8733C8.82554 20.0957 6.9676 17.9278 5.54841 15.4778C4.11749 13.0295 3.16158 10.3321 2.73088 7.52913ZM8.24631 10.7282L10.1911 8.94469C10.7233 8.45643 11.0976 7.82032 11.2658 7.11793C11.4341 6.41554 11.3887 5.67891 11.1354 5.0025L10.347 2.9C10.0253 2.04099 9.3882 1.33699 8.56543 0.931504C7.74267 0.526016 6.79624 0.449572 5.91906 0.717754C2.86953 1.65119 0.420844 4.38535 0.939219 7.801C1.40412 10.8297 2.43627 13.7435 3.9815 16.3895C5.51222 19.0316 7.51608 21.3694 9.89297 23.2861C12.5891 25.452 16.1905 24.7134 18.5277 22.5339C19.1965 21.9106 19.6023 21.0557 19.6624 20.1435C19.7225 19.2312 19.4324 18.3304 18.8512 17.6248L17.4167 15.8829C16.9576 15.3251 16.3423 14.9171 15.6497 14.7114C14.9572 14.5057 14.2189 14.5116 13.5298 14.7284L11.0131 15.5204C10.9004 15.4046 10.7902 15.2864 10.6823 15.1661C10.1651 14.5939 9.7075 13.9705 9.31659 13.3056C8.93605 12.6345 8.62481 11.9263 8.38769 11.1922C8.33741 11.0385 8.29027 10.8838 8.24631 10.7282Z" fill="white"/>
</svg>
