<svg width="25" height="38" viewBox="0 0 25 38" fill="none" xmlns="http://www.w3.org/2000/svg">
<path d="M0.678785 17.5603L19.6158 1.38348C20.0538 1.00902 20.6384 0.802734 21.2619 0.802734C21.8853 0.802734 22.47 1.00902 22.908 1.38348L24.3025 2.57451C25.21 3.35061 25.21 4.61199 24.3025 5.3869L8.40068 18.9712L24.3202 32.5706C24.7582 32.9451 25 33.4443 25 33.9765C25 34.5094 24.7582 35.0086 24.3202 35.3833L22.9256 36.5741C22.4873 36.9485 21.9029 37.1548 21.2795 37.1548C20.6561 37.1548 20.0714 36.9485 19.6334 36.5741L0.678785 20.3824C0.239758 20.0068 -0.00137711 19.5053 5.72205e-06 18.9721C-0.00137711 18.4369 0.239758 17.9356 0.678785 17.5603Z" fill="#B9B9B9"/>
</svg>
