<svg width="18" height="12" viewBox="0 0 18 12" fill="none" xmlns="http://www.w3.org/2000/svg">
<path d="M9.70227 11.0015L17.7106 2.98967C17.8959 2.80437 17.998 2.557 17.998 2.29323C17.998 2.02947 17.8959 1.7821 17.7106 1.59678L17.1209 1.00674C16.7367 0.622791 16.1123 0.622775 15.7287 1.0067L9.0038 7.73444L2.27147 0.998907C2.0861 0.813594 1.83899 0.711273 1.57549 0.711267C1.3117 0.71126 1.06458 0.813569 0.879066 0.998873L0.289595 1.58889C0.104223 1.77434 0.00209993 2.02156 0.00209992 2.28533C0.00209991 2.54909 0.104223 2.79646 0.289595 2.98178L8.30519 11.0015C8.49114 11.1872 8.73943 11.2893 9.00337 11.2887C9.26833 11.2893 9.51646 11.1873 9.70227 11.0015Z" fill="#444444"/>
</svg>
