<svg width="176" height="48" viewBox="0 0 176 48" fill="none" xmlns="http://www.w3.org/2000/svg">
<path d="M75.0757 8.44349H79.6197C82.5494 8.44349 84.7254 8.80812 86.1527 9.53275C87.5753 10.2575 88.7501 11.4357 89.6721 13.072C90.594 14.7039 91.0527 16.6114 91.0527 18.7947C91.0527 20.3472 90.7952 21.773 90.2805 23.0729C89.7657 24.3726 89.0496 25.4527 88.1416 26.3131C87.2338 27.1687 86.251 27.7625 85.1934 28.0943C84.1358 28.4217 82.3014 28.5852 79.6902 28.5852H75.0757V8.44349ZM78.8945 12.1464V24.8542H80.6728C82.4277 24.8542 83.6958 24.653 84.4868 24.2511C85.2776 23.849 85.9234 23.171 86.4242 22.2219C86.925 21.2728 87.1777 20.1039 87.1777 18.7106C87.1777 16.5741 86.5787 14.9142 85.3854 13.736C84.3089 12.6745 82.5773 12.1464 80.1953 12.1464H78.8945ZM94.4267 8.44349H98.2453V28.5852H94.4267V8.44349ZM121.205 11.7348L118.504 14.4047C116.796 12.5999 114.802 11.6975 112.528 11.6975C110.548 11.6975 108.887 12.352 107.549 13.6661C106.21 14.9798 105.541 16.5741 105.541 18.4536C105.541 20.3938 106.234 22.0397 107.624 23.3907C109.014 24.7421 110.726 25.4154 112.762 25.4154C114.086 25.4154 115.205 25.1347 116.113 24.5784C117.021 24.022 117.755 23.1523 118.312 21.9648H112.477V18.3741H122.613L122.641 19.2205C122.641 20.9829 122.182 22.6521 121.27 24.2324C120.353 25.8081 119.169 27.0142 117.718 27.8466C116.262 28.6739 114.554 29.0904 112.598 29.0904C110.506 29.0904 108.639 28.6366 106.996 27.7297C105.354 26.8179 104.058 25.5275 103.098 23.849C102.143 22.1659 101.666 20.3565 101.666 18.4114C101.666 15.7463 102.551 13.4273 104.315 11.459C106.407 9.11218 109.135 7.93848 112.491 7.93848C114.245 7.93848 115.888 8.26099 117.418 8.91103C118.705 9.45782 119.969 10.4024 121.205 11.7348ZM125.865 8.44349H129.684V28.5852H125.865V8.44349ZM132.038 8.44349H143.185V12.2305H139.507V28.5852H135.604V12.2305H132.038V8.44349ZM151.96 8.44349H155.825L163.584 28.5852H159.593L158.02 24.4336H149.756L148.146 28.5852H144.154L151.96 8.44349ZM153.897 13.7968L151.164 20.7305H156.616L153.897 13.7968ZM166.537 8.44349H170.356V24.9384H176V28.5852H166.537V8.44349Z" fill="#F65C2C"/>
<path d="M128.51 33.1021H129.819L132.448 39.9254H131.095L130.563 38.5188H127.763L127.218 39.9254H125.865L128.51 33.1021ZM129.166 34.9154L128.24 37.2646H130.087L129.166 34.9154ZM133.467 33.1021H134.78V35.462L136.628 33.1021H138.196L135.81 36.1479L138.428 39.9254H136.885L134.78 36.886V39.9254H133.467V33.1021ZM141.445 33.1021H142.754L145.383 39.9254H144.031L143.498 38.5188H140.698L140.153 39.9254H138.8L141.445 33.1021ZM142.101 34.9154L141.175 37.2646H143.022L142.101 34.9154ZM146.402 33.1021H147.942C148.934 33.1021 149.671 33.2256 150.155 33.471C150.637 33.7164 151.034 34.1157 151.347 34.6702C151.659 35.2229 151.815 35.8691 151.815 36.6086C151.815 37.1346 151.727 37.6178 151.553 38.0579C151.379 38.4984 151.136 38.8643 150.828 39.1556C150.521 39.4455 150.188 39.6466 149.83 39.759C149.471 39.87 148.85 39.9254 147.965 39.9254H146.402V33.1021ZM147.696 34.3564V38.6613H148.298C148.893 38.6613 149.322 38.5934 149.591 38.4571C149.858 38.3211 150.077 38.0912 150.247 37.7696C150.416 37.4482 150.502 37.0523 150.502 36.5801C150.502 35.8562 150.299 35.294 149.895 34.8951C149.53 34.5353 148.943 34.3564 148.137 34.3564H147.696ZM153.062 33.1021H156.791V34.3756H154.356V35.6013H156.791V36.8559H154.356V38.652H156.791V39.9254H153.062V33.1021ZM158.653 33.1021H159.914L161.504 37.8616L163.102 33.1021H164.359L165.504 39.9254H164.25L163.52 35.6158L162.075 39.9254H160.927L159.487 35.6158L158.744 39.9254H157.476L158.653 33.1021Z" fill="#F65C2C"/>
<path d="M172.062 33.1021H173.372L176 39.9254H174.648L174.115 38.5188H171.316L170.77 39.9254H169.418L172.062 33.1021ZM172.719 34.9154L171.793 37.2646H173.64L172.719 34.9154Z" fill="#F65C2C"/>
<path d="M166.58 33.1021H168.528V39.9254H167.234V34.3184H165.827L166.58 33.1021Z" fill="#F65C2C"/>
<path fill-rule="evenodd" clip-rule="evenodd" d="M13.4673 11.3268C19.6979 12.434 28.8142 15.5467 27.7058 21.7718C26.5978 27.9967 15.6846 34.9761 9.45372 33.869C3.22321 32.7616 -0.929216 26.8178 0.179005 20.5929C1.28723 14.3682 7.23674 10.2193 13.4673 11.3268ZM16.7986 9.93494C19.5962 4.0607 25.5907 0 32.5356 0C42.1554 0 49.9542 7.79137 49.9542 17.4024C49.9542 22.588 47.6836 27.2441 44.0819 30.4323C41.0082 33.1528 36.9649 34.8048 32.5356 34.8048C28.8198 34.8048 25.3763 33.6416 22.5485 31.6609C26.4298 28.8464 29.5002 25.2164 30.113 21.7754C31.2374 15.4596 23.728 11.7725 16.7986 9.93494ZM14.5979 9.33115C12.546 8.9407 10.746 8.77291 8.6753 9.19563C7.96723 7.93337 7.83104 6.04222 8.46949 4.59065C9.35395 2.57903 12.1896 1.35621 14.2631 2.09266C15.7467 2.62044 16.8396 3.76097 17.2798 5.12757C16.2256 6.39808 15.3153 7.82472 14.5979 9.33115ZM66.0656 23.4573C63.9069 23.8408 60.7486 24.9193 61.1326 27.0761C61.5164 29.2328 65.2974 31.6508 67.4561 31.2672C69.6147 30.8835 71.0535 28.8242 70.6695 26.6676C70.2855 24.5109 68.2243 23.0737 66.0656 23.4573ZM64.4029 17.2625C63.8574 20.0302 61.9218 22.1762 59.4369 22.9295C58.9196 23.0862 58.3782 23.1703 57.8218 23.1992C56.1526 22.0262 54.2434 21.1716 52.1823 20.7229C52.3271 19.7643 52.4027 18.783 52.4027 17.784C52.4027 15.658 52.0616 13.6122 51.433 11.6961C51.6115 11.439 51.8057 11.1967 52.0174 10.972C53.7982 9.08322 56.5831 8.30607 59.3066 9.04897C62.5593 9.9362 65.0539 13.9564 64.4029 17.2625ZM36.7546 36.1063C37.2822 42.3844 42.5489 47.3159 48.9696 47.3159C55.7401 47.3159 61.229 41.8323 61.229 35.0679C61.229 29.1985 57.0963 24.2942 51.5796 23.099C49.5742 29.8398 43.8337 34.974 36.7546 36.1063Z" fill="#F65C2C"/>
</svg>
