<svg width="15" height="19" viewBox="0 0 15 19" fill="none" xmlns="http://www.w3.org/2000/svg">
<path d="M1.87392 5.9004C1.62389 4.2519 2.78808 2.76746 4.56652 2.22277C4.88228 2.12612 5.22303 2.15359 5.51924 2.29956C5.81546 2.44553 6.04482 2.69902 6.16055 3.0083L6.73083 4.5308C6.82252 4.77571 6.83896 5.04242 6.77804 5.29673C6.71712 5.55104 6.58162 5.78136 6.38892 5.95814L4.69252 7.51411C4.60885 7.59098 4.54651 7.68819 4.51155 7.79628C4.47659 7.90438 4.4702 8.01969 4.49302 8.13099L4.50811 8.19924L4.55011 8.37052C4.58752 8.51489 4.64395 8.71833 4.72336 8.96114C4.88086 9.44349 5.1322 10.0919 5.50627 10.7396C5.88033 11.3873 6.31608 11.9294 6.6547 12.3067C6.83106 12.5032 7.01541 12.6923 7.20727 12.8737L7.25977 12.9223C7.34462 12.9974 7.44749 13.0493 7.55835 13.0729C7.66922 13.0965 7.7843 13.0909 7.89239 13.0568L10.0882 12.3658C10.3377 12.2873 10.6049 12.2852 10.8556 12.3597C11.1063 12.4342 11.329 12.5819 11.4952 12.7838L12.534 14.0451C12.9672 14.5701 12.916 15.3419 12.4179 15.8058C11.0568 17.0744 9.1852 17.3349 7.8832 16.2875C6.2873 15.0004 4.9419 13.4305 3.9142 11.6564C2.87802 9.8834 2.18581 7.93012 1.87392 5.9004ZM5.86786 8.21696L7.27617 6.92546C7.66157 6.57189 7.93257 6.11126 8.0544 5.60263C8.17624 5.09401 8.14336 4.56058 7.95999 4.07077L7.38905 2.54827C7.15613 1.92623 6.69474 1.41643 6.09895 1.1228C5.50315 0.829176 4.81781 0.773819 4.18261 0.96802C1.97433 1.64396 0.201141 3.62386 0.576516 6.09727C0.913171 8.29047 1.66059 10.4005 2.77955 12.3166C3.888 14.2298 5.33907 15.9226 7.06027 17.3106C9.01261 18.8791 11.6205 18.3442 13.313 16.7659C13.7973 16.3146 14.0912 15.6955 14.1347 15.0349C14.1782 14.3743 13.9681 13.722 13.5473 13.211L12.5085 11.9497C12.176 11.5457 11.7305 11.2503 11.229 11.1013C10.7274 10.9524 10.1929 10.9567 9.6938 11.1136L7.87139 11.6872C7.78982 11.6033 7.70996 11.5178 7.63186 11.4306C7.25733 11.0163 6.92596 10.5648 6.64289 10.0833C6.36732 9.59735 6.14194 9.08459 5.97023 8.55296C5.93382 8.44167 5.89969 8.32964 5.86786 8.21696Z" fill="#444444"/>
</svg>
