<svg width="40" height="40" viewBox="0 0 40 40" fill="none" xmlns="http://www.w3.org/2000/svg">
<path d="M32.5875 4.99499C32.1863 5.02419 31.7924 5.11833 31.4213 5.27374H31.4163C31.06 5.41499 29.3663 6.12749 26.7913 7.20749L17.5638 11.0937C10.9425 13.8812 4.43378 16.6262 4.43378 16.6262L4.51128 16.5962C4.51128 16.5962 4.06253 16.7437 3.59378 17.065C3.30419 17.2493 3.05499 17.4904 2.86128 17.7737C2.63128 18.1112 2.44628 18.6275 2.51503 19.1612C2.62753 20.0637 3.21253 20.605 3.63253 20.9037C4.05753 21.2062 4.46253 21.3475 4.46253 21.3475H4.47253L10.5763 23.4037C10.85 24.2825 12.4363 29.4975 12.8175 30.6987C13.0425 31.4162 13.2613 31.865 13.535 32.2075C13.6675 32.3825 13.8225 32.5287 14.0088 32.6462C14.1056 32.7026 14.2088 32.7471 14.3163 32.7787L14.2538 32.7637C14.2725 32.7687 14.2875 32.7837 14.3013 32.7887C14.3513 32.8025 14.385 32.8075 14.4488 32.8175C15.415 33.11 16.1913 32.51 16.1913 32.51L16.235 32.475L19.8388 29.1937L25.8788 33.8275L26.0163 33.8862C27.275 34.4387 28.55 34.1312 29.2238 33.5887C29.9025 33.0425 30.1663 32.3437 30.1663 32.3437L30.21 32.2312L34.8775 8.31999C35.01 7.72999 35.0438 7.17749 34.8975 6.64124C34.7467 6.09852 34.3985 5.63175 33.9213 5.33249C33.5206 5.08889 33.0559 4.9713 32.5875 4.99499ZM32.4613 7.55749C32.4563 7.63624 32.4713 7.62749 32.4363 7.77874V7.79249L27.8125 31.455C27.7925 31.4887 27.7588 31.5625 27.6663 31.6362C27.5688 31.7137 27.4913 31.7625 27.085 31.6012L19.6975 25.9375L15.235 30.005L16.1725 24.0175L28.2425 12.7675C28.74 12.305 28.5738 12.2075 28.5738 12.2075C28.6088 11.64 27.8225 12.0412 27.8225 12.0412L12.6025 21.47L12.5975 21.445L5.30253 18.9887V18.9837L5.28378 18.98C5.29657 18.9757 5.30909 18.9707 5.32128 18.965L5.36128 18.945L5.40003 18.9312C5.40003 18.9312 11.9138 16.1862 18.535 13.3987C21.85 12.0025 25.19 10.5962 27.7588 9.51124C29.2822 8.87 30.8072 8.2325 32.3338 7.59874C32.4363 7.55874 32.3875 7.55874 32.4613 7.55874V7.55749Z" fill="white"/>
</svg>
